{
.appVersion = "3112";
.formatVersion = 3;
customParameters = (
{
name = vendorID;
value = PYRS;
},
{
name = panose;
value = (
2,
11,
5,
3,
3,
0,
0,
2,
0,
4
);
},
{
name = unicodeRanges;
value = (
0,
1,
2,
3,
5,
6,
9,
31,
33,
35,
37,
38,
47
);
},
{
name = codePageRanges;
value = (
"1252",
"1250",
"1251",
"1254",
"1257",
"bit 29"
);
},
{
name = fsType;
value = (
);
},
{
name = glyphOrder;
value = (
.notdef,
NULL,
CR,
space,
B,
D,
E,
F,
H,
I,
L,
M,
N,
P,
R,
U,
V,
W,
X,
Y,
Z,
b,
d,
h,
i,
l,
m,
n,
p,
q,
u,
v,
w,
x,
z,
period,
comma,
A,
breve,
circumflex,
uni0326,
exclam,
quotedbl,
quotesingle,
numbersign,
percent,
asterisk,
plus,
slash,
colon,
semicolon,
less,
equal,
greater,
at,
bracketleft,
bracketright,
backslash,
asciicircum,
underscore,
braceleft,
bar,
braceright,
Euro,
quotedblbase,
quotesinglbase,
quotedblright,
quoteright,
quotedblleft,
quoteleft,
minus,
hyphen,
endash,
emdash,
grave,
acute,
guillemotright,
guilsinglright,
guillemotleft,
guilsinglleft,
uni00AD,
ellipsis,
uni0445,
uni0431,
uni0432,
uni0433,
uni0434,
uni0436,
uni043A,
uni0438,
uni0439,
uni043B,
uni043C,
uni043D,
uni043F,
uni0442,
uni0444,
uni0446,
uni0447,
uni0448,
uni0449,
uni044A,
uni044B,
uni044C,
uni044E,
uni044F,
u_alt,
uni0410,
uni0415,
uni041C,
uni041D,
uni0420,
uni0422,
uni0425,
T,
uni0412,
uni041F,
uni0413,
uni041B,
uni0414,
uni0411,
uni0416,
uni0417,
uni0418,
uni0419,
uni041A,
uni0423,
uni0424,
uni0426,
uni0427,
uni0428,
uni0429,
uni042A,
uni042B,
uni042C,
uni042D,
uni042E,
uni042F,
uni0440,
O,
be_alt,
a,
c,
e,
f,
g,
j,
o,
r,
t,
y_alt,
y2_alt,
uni0443,
uni0451,
uni0437,
uni044D,
C,
S,
uni0421,
G,
uni041E,
Q,
J,
K_alt,
K,
k_alt,
k,
i_alt,
j_alt,
s_alt,
s,
c_alt,
copyright,
ampersand,
dollar,
parenleft,
parenright,
cent,
section,
uni04C1,
uni04C2,
w_alt,
W_alt,
zero,
one,
two,
three,
four,
seven,
eight,
nine,
uni0430,
uni0435,
uni043E,
uni0441,
uni0218,
uni0219,
uni021A,
uni021B,
question,
uni2116,
uni0401,
asciitilde,
trademark,
registered,
degree,
bullet,
uni27F5,
uni27F6,
arrowup,

glyphs = (
{
glyphname = .notdef;
layers = (
{
layerId = m01;
shapes = (
{
closed = 1;
nodes = (
(540,-295,l),
(540,960,l),
(20,960,l),
(20,-295,l)
);
},
{
closed = 1;
nodes = (
(530,950,l),
(530,-285,l),
(30,-285,l),
(30,950,l)
);
}
);
userData = {
assembly = "MPPEM[ ]	/* MeasurePixelPerEm */
PUSHB[ ]	/* 1 value pushed */
50 
LT[ ]	/* LessThan */
IF[ ]	/* If */
NPUSHB[ ]	/* 21 values pushed */
0 3 3 0 95 0 0 0 68 77 0 2 2 1 95 0 1 1 69 1 78 
ELSE[ ]	/* Else */
NPUSHB[ ]	/* 24 values pushed */
0 0 0 3 2 0 3 103 0 2 1 1 2 87 0 2 2 1 95 0 1 2 1 79 
EIF[ ]	/* EndIf */
PUSHB[ ]	/* 7 values pushed */
17 17 17 16 4 6 26 
CALL[ ]	/* CallFunction */";
};
width = 560;
}
);
note = ".notdef";
},
{
glyphname = B;
layers = (
{
layerId = m01;
shapes = (
{
closed = 1;
nodes = (
(410,0,o),
(516,19,o),
(601,67,o),
(656,151,o),
(656,217,qs),
(656,278,o),
(603,365,o),
(551,385,q),
(589,408,o),
(624,481,o),
(624,525,qs),
(624,576,o),
(588,646,o),
(528,689,o),
(449,708,o),
(406,708,qs),
(73,708,l),
(73,0,l),
(358,0,ls)
);
},
{
closed = 1;
nodes = (
(236,560,l),
(366,560,ls),
(385,560,o),
(420,556,o),
(447,543,o),
(464,518,o),
(464,498,qs),
(464,458,o),
(401,427,o),
(351,427,qs),
(236,427,l)
);
},
{
closed = 1;
nodes = (
(377,292,ls),
(400,292,o),
(442,288,o),
(474,274,o),
(493,247,o),
(493,225,qs),
(493,200,o),
(472,169,o),
(436,153,o),
(387,147,o),
(359,147,qs),
(236,147,l),
(236,292,l)
);
}
);
userData = {
assembly = "NPUSHB[ ]	/* 59 values pushed */
10 1 5 2 1 76 7 1 2 0 5 4 2 5 103 0 3 3 0 95 0 0 0 38 77 0 4 4 1 95 6 1 1 1 39 1 78 20 19 0 0 42 40 32 30 28 26 19 29 20 29 0 18 0 17 33 8 8 23 
CALL[ ]	/* CallFunction */";
};
width = 692;
}
);
note = B;
unicode = 66;
},
{
glyphname = D;
kernRight = D;
layers = (
{
layerId = m01;
shapes = (
{
closed = 1;
nodes = (
(519,0,o),
(702,179,o),
(702,354,qs),
(702,441,o),
(652,573,o),
(559,663,o),
(426,708,o),
(343,708,qs),
(74,708,l),
(74,0,l),
(347,0,ls)
);
},
{
closed = 1;
nodes = (
(237,559,l),
(341,559,ls),
(441,559,o),
(536,455,o),
(536,353,qs),
(536,306,o),
(516,230,o),
(471,176,o),
(400,147,o),
(349,147,qs),
(237,147,l)
);
}
);
userData = {
assembly = "NPUSHB[ ]	/* 41 values pushed */
0 3 3 0 95 0 0 0 38 77 5 1 2 2 1 95 4 1 1 1 39 1 78 12 11 0 0 20 18 11 21 12 21 0 10 0 9 33 6 8 23 
CALL[ ]	/* CallFunction */";
};
width = 738;
}
);
note = D;
unicode = 68;
},
{
glyphname = E;
layers = (
{
layerId = m01;
shapes = (
{
closed = 1;
nodes = (
(74,0,l),
(594,0,l),
(594,147,l),
(237,147,l),
(237,278,l),
(540,278,l),
(540,423,l),
(237,423,l),
(237,559,l),
(594,559,l),
(594,708,l),
(74,708,l)
);
}
);
userData = {
assembly = "NPUSHB[ ]	/* 44 values pushed */
0 1 0 2 3 1 2 103 0 0 0 5 95 6 1 5 5 38 77 0 3 3 4 95 0 4 4 39 4 78 0 0 0 11 0 11 17 17 17 17 17 7 8 27 
CALL[ ]	/* CallFunction */";
};
width = 629;
}
);
note = E;
unicode = 69;
},
{
glyphname = F;
layers = (
{
layerId = m01;
shapes = (
{
closed = 1;
nodes = (
(74,0,l),
(237,0,l),
(237,257,l),
(524,257,l),
(524,403,l),
(237,403,l),
(237,559,l),
(582,559,l),
(582,708,l),
(74,708,l)
);
}
);
userData = {
assembly = "NPUSHB[ ]	/* 38 values pushed */
0 1 0 2 3 1 2 103 0 0 0 4 95 5 1 4 4 38 77 0 3 3 39 3 78 0 0 0 9 0 9 17 17 17 17 6 8 26 
CALL[ ]	/* CallFunction */";
};
width = 606;
}
);
note = F;
unicode = 70;
},
{
glyphname = H;
layers = (
{
layerId = m01;
shapes = (
{
closed = 1;
nodes = (
(74,708,l),
(74,0,l),
(237,0,l),
(237,276,l),
(522,276,l),
(522,0,l),
(685,0,l),
(685,708,l),
(522,708,l),
(522,423,l),
(237,423,l),
(237,708,l)
);
}
);
userData = {
assembly = "NPUSHB[ ]	/* 30 values pushed */
0 0 0 3 2 0 3 103 5 1 1 1 38 77 4 1 2 2 39 2 78 17 17 17 17 17 16 6 8 28 
CALL[ ]	/* CallFunction */";
};
width = 759;
}
);
note = H;
unicode = 72;
},
{
glyphname = I;
layers = (
{
layerId = m01;
shapes = (
{
closed = 1;
nodes = (
(74,708,l),
(74,0,l),
(237,0,l),
(237,708,l)
);
}
);
userData = {
assembly = "NPUSHB[ ]	/* 16 values pushed */
0 1 1 38 77 0 0 0 39 0 78 17 16 2 8 24 
CALL[ ]	/* CallFunction */";
};
width = 311;
}
);
note = I;
unicode = 73;
},
{
glyphname = L;
layers = (
{
layerId = m01;
shapes = (
{
closed = 1;
nodes = (
(74,708,l),
(74,0,l),
(580,0,l),
(580,147,l),
(237,147,l),
(237,708,l)
);
}
);
userData = {
assembly = "NPUSHB[ ]	/* 22 values pushed */
0 2 2 38 77 0 0 0 1 96 0 1 1 39 1 78 17 17 16 3 8 25 
CALL[ ]	/* CallFunction */";
};
width = 607;
}
);
note = L;
unicode = 76;
},
{
glyphname = M;
layers = (
{
layerId = m01;
shapes = (
{
closed = 1;
nodes = (
(74,0,l),
(237,0,l),
(237,469,l),
(424,161,l),
(492,161,l),
(677,469,l),
(677,0,l),
(840,0,l),
(840,708,l),
(652,708,l),
(461,386,l),
(268,708,l),
(74,708,l)
);
}
);
userData = {
assembly = "NPUSHB[ ]	/* 43 values pushed */
9 6 1 3 2 0 1 76 0 2 0 1 0 2 1 128 5 4 2 0 0 38 77 3 1 1 1 39 1 78 0 0 0 12 0 12 18 18 17 18 6 8 26 
CALL[ ]	/* CallFunction */";
};
width = 914;
}
);
note = M;
unicode = 77;
},
{
glyphname = N;
layers = (
{
layerId = m01;
shapes = (
{
closed = 1;
nodes = (
(74,0,l),
(237,0,l),
(237,435,l),
(557,0,l),
(710,0,l),
(710,708,l),
(547,708,l),
(547,270,l),
(230,708,l),
(74,708,l)
);
}
);
userData = {
assembly = "NPUSHB[ ]	/* 33 values pushed */
6 1 2 1 0 1 76 4 3 2 0 0 38 77 2 1 1 1 39 1 78 0 0 0 9 0 9 18 17 18 5 8 25 
CALL[ ]	/* CallFunction */";
};
width = 784;
}
);
note = N;
unicode = 78;
},
{
glyphname = P;
layers = (
{
layerId = m01;
shapes = (
{
closed = 1;
nodes = (
(74,0,l),
(237,0,l),
(237,204,l),
(360,204,ls),
(419,204,o),
(521,236,o),
(596,301,o),
(638,397,o),
(638,462,qs),
(638,530,o),
(597,624,o),
(523,682,o),
(420,708,o),
(358,708,qs),
(74,708,l)
);
},
{
closed = 1;
nodes = (
(237,559,l),
(355,559,ls),
(416,559,o),
(478,510,o),
(478,453,qs),
(476,402,o),
(410,348,o),
(356,348,qs),
(237,348,l)
);
}
);
userData = {
assembly = "NPUSHB[ ]	/* 47 values pushed */
6 1 3 0 1 2 3 1 103 0 4 4 0 95 5 1 0 0 38 77 0 2 2 39 2 78 16 15 1 0 22 20 15 23 16 23 13 12 11 9 0 14 1 14 7 8 22 
CALL[ ]	/* CallFunction */";
};
width = 674;
}
);
note = P;
unicode = 80;
},
{
glyphname = R;
layers = (
{
layerId = m01;
shapes = (
{
closed = 1;
nodes = (
(74,0,l),
(237,0,l),
(237,246,l),
(338,246,l),
(477,0,l),
(661,0,l),
(501,267,l),
(572,289,o),
(644,403,o),
(646,481,qs),
(646,551,o),
(596,640,o),
(516,690,o),
(416,708,o),
(367,708,qs),
(74,708,l)
);
},
{
closed = 1;
nodes = (
(237,559,l),
(369,559,ls),
(394,559,o),
(437,552,o),
(468,533,o),
(486,500,o),
(485,475,qs),
(483,427,o),
(419,387,o),
(366,387,qs),
(237,387,l)
);
}
);
userData = {
assembly = "NPUSHB[ ]	/* 56 values pushed */
8 1 2 4 1 76 7 1 4 0 2 1 4 2 103 0 5 5 0 95 6 1 0 0 38 77 3 1 1 1 39 1 78 17 16 1 0 25 23 16 26 17 26 14 13 12 11 10 9 0 15 1 15 8 8 22 
CALL[ ]	/* CallFunction */";
};
width = 701;
}
);
note = R;
unicode = 82;
},
{
glyphname = U;
layers = (
{
layerId = m01;
shapes = (
{
closed = 1;
nodes = (
(576,37,o),
(651,123,o),
(686,248,o),
(686,327,qs),
(686,708,l),
(523,708,l),
(523,315,ls),
(523,282,o),
(511,219,o),
(478,171,o),
(422,141,o),
(379,141,qs),
(337,141,o),
(280,170,o),
(246,218,o),
(232,281,o),
(232,315,qs),
(232,708,l),
(69,708,l),
(69,327,ls),
(69,247,o),
(104,123,o),
(179,37,o),
(296,-8,o),
(377,-8,qs),
(459,-8,o)
);
}
);
userData = {
assembly = "NPUSHB[ ]	/* 33 values pushed */
3 1 1 1 38 77 0 2 2 0 97 4 1 0 0 47 0 78 1 0 20 19 14 12 7 6 0 25 1 25 5 8 22 
CALL[ ]	/* CallFunction */";
};
width = 755;
}
);
note = U;
unicode = 85;
},
{
glyphname = V;
layers = (
{
layerId = m01;
shapes = (
{
closed = 1;
nodes = (
(180,708,l),
(1,708,l),
(276,0,l),
(440,0,l),
(716,708,l),
(539,708,l),
(362,204,l)
);
}
);
userData = {
assembly = "NPUSHB[ ]	/* 24 values pushed */
6 1 1 0 1 76 2 1 0 0 38 77 0 1 1 39 1 78 17 17 16 3 8 25 
CALL[ ]	/* CallFunction */";
};
width = 717;
}
);
note = V;
unicode = 86;
},
{
glyphname = W;
kernLeft = W;
kernRight = W;
layers = (
{
layerId = m01;
shapes = (
{
closed = 1;
nodes = (
(604,0,l),
(819,0,l),
(995,708,l),
(812,708,l),
(712,206,l),
(603,708,l),
(395,708,l),
(284,206,l),
(184,708,l),
(0,708,l),
(176,0,l),
(389,0,l),
(497,492,l)
);
}
);
userData = {
assembly = "NPUSHB[ ]	/* 30 values pushed */
12 7 4 3 0 1 1 76 3 2 2 1 1 38 77 4 1 0 0 39 0 78 17 18 18 17 16 5 8 27 
CALL[ ]	/* CallFunction */";
};
width = 995;
}
);
note = W;
unicode = 87;
},
{
glyphname = X;
layers = (
{
layerId = m01;
shapes = (
{
closed = 1;
nodes = (
(202,708,l),
(9,708,l),
(249,355,l),
(1,0,l),
(185,0,l),
(345,234,l),
(499,0,l),
(692,0,l),
(447,354,l),
(686,708,l),
(496,708,l),
(350,473,l)
);
}
);
userData = {
assembly = "NPUSHB[ ]	/* 29 values pushed */
11 8 5 2 4 1 0 1 76 3 1 0 0 38 77 2 1 1 1 39 1 78 18 18 18 16 4 8 26 
CALL[ ]	/* CallFunction */";
};
width = 693;
}
);
note = X;
unicode = 88;
},
{
glyphname = Y;
kernLeft = Y;
kernRight = Y;
layers = (
{
layerId = m01;
shapes = (
{
closed = 1;
nodes = (
(1,708,l),
(272,263,l),
(272,0,l),
(435,0,l),
(435,264,l),
(434,264,l),
(435,264,l),
(703,708,l),
(519,708,l),
(477,634,o),
(396,488,o),
(355,414,q),
(189,708,l)
);
}
);
userData = {
assembly = "NPUSHB[ ]	/* 25 values pushed */
10 5 2 1 0 1 76 2 1 0 0 38 77 0 1 1 39 1 78 18 20 19 3 8 25 
CALL[ ]	/* CallFunction */";
};
width = 704;
}
);
note = Y;
unicode = 89;
},
{
glyphname = Z;
layers = (
{
layerId = m01;
shapes = (
{
closed = 1;
nodes = (
(31,128,l),
(31,0,l),
(597,0,l),
(597,147,l),
(241,147,l),
(604,580,l),
(604,708,l),
(39,708,l),
(39,559,l),
(394,559,l)
);
}
);
userData = {
assembly = "NPUSHB[ ]	/* 44 values pushed */
3 1 3 0 8 1 2 1 2 76 4 1 3 3 0 95 0 0 0 38 77 0 1 1 2 95 0 2 2 39 2 78 0 0 0 9 0 9 17 18 17 5 8 25 
CALL[ ]	/* CallFunction */";
};
width = 635;
}
);
note = Z;
unicode = 90;
},
{
glyphname = b;
layers = (
{
layerId = m01;
shapes = (
{
closed = 1;
nodes = (
(55,708,l),
(55,0,l),
(212,0,l),
(211,62,l),
(244,27,o),
(324,-8,o),
(379,-8,qs),
(434,-8,o),
(520,32,o),
(579,105,o),
(608,206,o),
(608,268,qs),
(608,329,o),
(578,428,o),
(519,499,o),
(434,538,o),
(381,538,qs),
(332,538,o),
(244,502,o),
(212,467,q),
(212,708,l)
);
},
{
closed = 1;
nodes = (
(408,373,o),
(436,336,o),
(450,290,o),
(450,266,qs),
(450,239,o),
(438,192,o),
(411,156,o),
(367,134,o),
(335,134,qs),
(274,136,o),
(212,212,o),
(212,267,qs),
(212,292,o),
(228,337,o),
(258,372,o),
(303,394,o),
(332,394,qs),
(364,394,o)
);
}
);
userData = {
assembly = "MPPEM[ ]	/* MeasurePixelPerEm */
PUSHB[ ]	/* 1 value pushed */
29 
LT[ ]	/* LessThan */
IF[ ]	/* If */
NPUSHB[ ]	/* 10 values pushed */
0 1 4 0 16 1 1 5 2 76 
ELSE[ ]	/* Else */
NPUSHB[ ]	/* 10 values pushed */
0 1 4 0 16 1 2 5 2 76 
EIF[ ]	/* EndIf */
MPPEM[ ]	/* MeasurePixelPerEm */
PUSHB[ ]	/* 1 value pushed */
29 
LT[ ]	/* LessThan */
IF[ ]	/* If */
NPUSHB[ ]	/* 28 values pushed */
0 3 3 38 77 6 1 4 4 0 97 0 0 0 49 77 0 5 5 1 97 2 1 1 1 47 1 78 
ELSE[ ]	/* Else */
NPUSHB[ ]	/* 32 values pushed */
0 3 3 38 77 6 1 4 4 0 97 0 0 0 49 77 0 2 2 39 77 0 5 5 1 97 0 1 1 47 1 78 
EIF[ ]	/* EndIf */
NPUSHB[ ]	/* 15 values pushed */
22 21 30 28 21 38 22 38 17 19 40 34 7 8 26 
CALL[ ]	/* CallFunction */";
};
width = 642;
}
);
note = b;
unicode = 98;
},
{
glyphname = d;
kernLeft = d;
layers = (
{
layerId = m01;
shapes = (
{
closed = 1;
nodes = (
(588,708,l),
(430,708,l),
(430,489,l),
(402,514,o),
(328,538,o),
(284,538,qs),
(224,538,o),
(133,497,o),
(69,423,o),
(34,322,o),
(34,262,qs),
(34,205,o),
(65,106,o),
(126,33,o),
(214,-8,o),
(273,-8,qs),
(329,-6,o),
(403,23,o),
(434,57,q),
(438,0,l),
(588,0,l)
);
},
{
closed = 1;
nodes = (
(235,155,o),
(206,189,o),
(192,235,o),
(192,262,qs),
(192,287,o),
(205,334,o),
(234,371,o),
(279,392,o),
(311,392,qs),
(341,392,o),
(387,372,o),
(416,336,o),
(430,290,o),
(430,264,qs),
(430,237,o),
(416,191,o),
(386,156,o),
(341,134,o),
(311,133,qs),
(280,133,o)
);
}
);
userData = {
assembly = "MPPEM[ ]	/* MeasurePixelPerEm */
PUSHB[ ]	/* 1 value pushed */
33 
LT[ ]	/* LessThan */
IF[ ]	/* If */
NPUSHB[ ]	/* 10 values pushed */
17 1 5 1 1 1 0 4 2 76 
ELSE[ ]	/* Else */
NPUSHB[ ]	/* 10 values pushed */
17 1 5 1 1 1 3 4 2 76 
EIF[ ]	/* EndIf */
MPPEM[ ]	/* MeasurePixelPerEm */
PUSHB[ ]	/* 1 value pushed */
33 
LT[ ]	/* LessThan */
IF[ ]	/* If */
NPUSHB[ ]	/* 29 values pushed */
0 2 2 38 77 0 5 5 1 97 0 1 1 49 77 7 1 4 4 0 97 6 3 2 0 0 47 0 78 
ELSE[ ]	/* Else */
NPUSHB[ ]	/* 33 values pushed */
0 2 2 38 77 0 5 5 1 97 0 1 1 49 77 6 1 3 3 39 77 7 1 4 4 0 97 0 0 0 47 0 78 
EIF[ ]	/* EndIf */
NPUSHB[ ]	/* 20 values pushed */
22 21 0 0 32 30 21 40 22 40 0 20 0 20 19 40 35 8 8 25 
CALL[ ]	/* CallFunction */";
};
width = 642;
}
);
note = d;
unicode = 100;
},
{
glyphname = h;
layers = (
{
layerId = m01;
shapes = (
{
closed = 1;
nodes = (
(55,708,l),
(55,0,l),
(212,0,l),
(212,271,ls),
(212,292,o),
(221,335,o),
(244,372,o),
(282,394,o),
(311,394,qs),
(339,394,o),
(378,372,o),
(400,336,o),
(409,295,o),
(409,277,qs),
(409,0,l),
(567,0,l),
(567,290,ls),
(567,343,o),
(544,434,o),
(497,501,o),
(420,538,o),
(366,538,qs),
(349,538,o),
(311,533,o),
(271,518,o),
(230,493,o),
(212,474,q),
(212,708,l)
);
}
);
userData = {
assembly = "NPUSHB[ ]	/* 39 values pushed */
0 1 2 0 1 76 0 2 0 1 0 2 1 128 0 4 4 38 77 0 0 0 49 77 3 1 1 1 39 1 78 17 21 37 21 36 5 8 27 
CALL[ ]	/* CallFunction */";
};
width = 618;
}
);
note = h;
unicode = 104;
},
{
glyphname = i;
layers = (
{
layerId = m01;
shapes = (
{
closed = 1;
nodes = (
(65,527,l),
(65,0,l),
(222,0,l),
(222,527,l)
);
},
{
closed = 1;
nodes = (
(46,724,o),
(46,680,qs),
(46,633,o),
(103,585,o),
(143,585,qs),
(185,585,o),
(240,634,o),
(240,680,qs),
(240,724,o),
(185,774,o),
(143,774,qs),
(104,774,o)
);
}
);
userData = {
assembly = "MPPEM[ ]	/* MeasurePixelPerEm */
PUSHB[ ]	/* 1 value pushed */
12 
LT[ ]	/* LessThan */
IF[ ]	/* If */
NPUSHB[ ]	/* 22 values pushed */
0 3 3 2 97 4 1 2 2 48 77 0 1 1 41 77 0 0 0 39 0 78 
ELSE[ ]	/* Else */
NPUSHB[ ]	/* 20 values pushed */
4 1 2 0 3 1 2 3 105 0 1 1 41 77 0 0 0 39 0 78 
EIF[ ]	/* EndIf */
NPUSHB[ ]	/* 13 values pushed */
5 4 11 9 4 15 5 15 17 16 5 8 24 
CALL[ ]	/* CallFunction */";
};
width = 287;
}
);
note = i;
unicode = 105;
},
{
glyphname = l;
layers = (
{
layerId = m01;
shapes = (
{
closed = 1;
nodes = (
(55,708,l),
(55,0,l),
(212,0,l),
(212,708,l)
);
}
);
userData = {
assembly = "NPUSHB[ ]	/* 16 values pushed */
0 1 1 38 77 0 0 0 39 0 78 17 16 2 8 24 
CALL[ ]	/* CallFunction */";
};
width = 267;
}
);
note = l;
unicode = 108;
},
{
glyphname = m;
layers = (
{
layerId = m01;
shapes = (
{
closed = 1;
nodes = (
(55,527,l),
(55,0,l),
(212,0,l),
(212,278,ls),
(212,297,o),
(216,338,o),
(232,372,o),
(267,394,o),
(293,394,qs),
(318,394,o),
(346,373,o),
(361,342,o),
(363,310,o),
(363,300,qs),
(363,0,l),
(520,0,l),
(520,254,ls),
(520,268,o),
(520,315,o),
(532,361,o),
(568,394,o),
(597,394,qs),
(621,394,o),
(650,374,o),
(665,345,o),
(669,313,o),
(669,300,qs),
(669,0,l),
(826,0,l),
(826,331,ls),
(826,377,o),
(807,452,o),
(766,507,o),
(702,537,o),
(655,537,qs),
(610,537,o),
(528,503,o),
(493,460,q),
(470,502,o),
(401,537,o),
(355,537,qs),
(318,537,o),
(242,507,o),
(210,465,q),
(198,527,l)
);
}
);
userData = {
assembly = "MPPEM[ ]	/* MeasurePixelPerEm */
PUSHB[ ]	/* 1 value pushed */
23 
LT[ ]	/* LessThan */
IF[ ]	/* If */
PUSHB[ ]	/* 6 values pushed */
6 1 3 0 1 76 
ELSE[ ]	/* Else */
PUSHB[ ]	/* 6 values pushed */
6 1 3 7 1 76 
EIF[ ]	/* EndIf */
MPPEM[ ]	/* MeasurePixelPerEm */
PUSHB[ ]	/* 1 value pushed */
23 
LT[ ]	/* LessThan */
IF[ ]	/* If */
NPUSHB[ ]	/* 21 values pushed */
5 1 3 3 0 97 7 1 2 0 0 49 77 6 4 2 2 2 39 2 78 
ELSE[ ]	/* Else */
NPUSHB[ ]	/* 25 values pushed */
0 7 7 41 77 5 1 3 3 0 97 1 1 0 0 49 77 6 4 2 2 2 39 2 78 
EIF[ ]	/* EndIf */
NPUSHB[ ]	/* 11 values pushed */
17 21 37 21 37 21 36 34 8 8 30 
CALL[ ]	/* CallFunction */";
};
width = 876;
}
);
note = m;
unicode = 109;
},
{
glyphname = n;
layers = (
{
layerId = m01;
shapes = (
{
closed = 1;
nodes = (
(55,527,l),
(55,0,l),
(212,0,l),
(212,266,ls),
(212,288,o),
(221,332,o),
(243,369,o),
(285,394,o),
(313,394,qs),
(341,394,o),
(379,375,o),
(401,341,o),
(409,299,o),
(409,277,qs),
(409,0,l),
(567,0,l),
(567,290,ls),
(567,347,o),
(545,441,o),
(516,476,qs),
(490,505,o),
(415,538,o),
(365,538,qs),
(327,537,o),
(245,507,o),
(210,469,q),
(202,527,l)
);
}
);
userData = {
assembly = "MPPEM[ ]	/* MeasurePixelPerEm */
PUSHB[ ]	/* 1 value pushed */
23 
LT[ ]	/* LessThan */
IF[ ]	/* If */
NPUSHB[ ]	/* 18 values pushed */
0 2 2 0 97 4 1 0 0 49 77 3 1 1 1 39 1 78 
ELSE[ ]	/* Else */
NPUSHB[ ]	/* 22 values pushed */
0 4 4 41 77 0 2 2 0 97 0 0 0 49 77 3 1 1 1 39 1 78 
EIF[ ]	/* EndIf */
PUSHB[ ]	/* 8 values pushed */
17 21 37 22 34 5 8 27 
CALL[ ]	/* CallFunction */";
};
width = 618;
}
);
note = n;
unicode = 110;
},
{
glyphname = p;
layers = (
{
layerId = m01;
shapes = (
{
closed = 1;
nodes = (
(55,527,l),
(55,-210,l),
(212,-210,l),
(212,52,l),
(272,-8,o),
(377,-8,qs),
(431,-8,o),
(518,33,o),
(577,106,o),
(608,208,o),
(608,269,qs),
(608,329,o),
(576,428,o),
(515,499,o),
(429,538,o),
(375,538,qs),
(328,538,o),
(243,504,o),
(211,465,q),
(202,527,l)
);
},
{
closed = 1;
nodes = (
(408,373,o),
(436,336,o),
(450,290,o),
(450,266,qs),
(450,239,o),
(438,192,o),
(411,156,o),
(367,134,o),
(335,134,qs),
(274,136,o),
(212,212,o),
(212,267,qs),
(212,292,o),
(228,337,o),
(259,373,o),
(303,394,o),
(332,394,qs),
(364,394,o)
);
}
);
userData = {
assembly = "PUSHB[ ]	/* 6 values pushed */
15 1 1 5 1 76 
MPPEM[ ]	/* MeasurePixelPerEm */
PUSHB[ ]	/* 1 value pushed */
14 
LT[ ]	/* LessThan */
IF[ ]	/* If */
NPUSHB[ ]	/* 28 values pushed */
6 1 4 4 0 97 3 1 0 0 49 77 0 5 5 1 97 0 1 1 47 77 0 2 2 43 2 78 
ELSE[ ]	/* Else */
MPPEM[ ]	/* MeasurePixelPerEm */
PUSHB[ ]	/* 1 value pushed */
22 
LT[ ]	/* LessThan */
IF[ ]	/* If */
NPUSHB[ ]	/* 34 values pushed */
6 1 4 4 0 97 3 1 0 0 49 77 0 5 5 1 97 0 1 1 47 77 0 2 2 0 97 3 1 0 0 49 2 78 
ELSE[ ]	/* Else */
NPUSHB[ ]	/* 32 values pushed */
6 1 4 4 0 97 0 0 0 49 77 0 5 5 1 97 0 1 1 47 77 0 2 2 3 95 0 3 3 41 2 78 
EIF[ ]	/* EndIf */
EIF[ ]	/* EndIf */
NPUSHB[ ]	/* 15 values pushed */
21 20 29 27 20 37 21 37 17 18 40 34 7 8 26 
CALL[ ]	/* CallFunction */";
};
width = 642;
}
);
note = p;
unicode = 112;
},
{
glyphname = q;
kernLeft = d;
layers = (
{
layerId = m01;
shapes = (
{
closed = 1;
nodes = (
(589,-210,l),
(589,527,l),
(447,527,l),
(436,475,l),
(410,508,o),
(334,538,o),
(289,538,qs),
(230,538,o),
(136,497,o),
(70,424,o),
(34,323,o),
(34,263,qs),
(34,206,o),
(65,108,o),
(125,34,o),
(219,-9,o),
(280,-9,qs),
(321,-9,o),
(402,14,o),
(431,43,q),
(431,-210,l)
);
},
{
closed = 1;
nodes = (
(236,155,o),
(207,191,o),
(192,238,o),
(192,265,qs),
(192,290,o),
(206,336,o),
(236,372,o),
(282,392,o),
(312,392,qs),
(371,392,o),
(430,318,o),
(430,264,qs),
(430,237,o),
(415,190,o),
(386,155,o),
(341,133,o),
(312,133,qs),
(282,133,o)
);
}
);
userData = {
assembly = "MPPEM[ ]	/* MeasurePixelPerEm */
PUSHB[ ]	/* 1 value pushed */
22 
LT[ ]	/* LessThan */
IF[ ]	/* If */
NPUSHB[ ]	/* 10 values pushed */
16 1 5 1 0 1 0 4 2 76 
ELSE[ ]	/* Else */
NPUSHB[ ]	/* 10 values pushed */
16 1 5 2 0 1 0 4 2 76 
EIF[ ]	/* EndIf */
MPPEM[ ]	/* MeasurePixelPerEm */
PUSHB[ ]	/* 1 value pushed */
14 
LT[ ]	/* LessThan */
IF[ ]	/* If */
NPUSHB[ ]	/* 28 values pushed */
0 5 5 1 97 2 1 1 1 49 77 6 1 4 4 0 97 0 0 0 47 77 0 3 3 43 3 78 
ELSE[ ]	/* Else */
MPPEM[ ]	/* MeasurePixelPerEm */
PUSHB[ ]	/* 1 value pushed */
22 
LT[ ]	/* LessThan */
IF[ ]	/* If */
NPUSHB[ ]	/* 34 values pushed */
0 5 5 1 97 2 1 1 1 49 77 6 1 4 4 0 97 0 0 0 47 77 0 3 3 1 97 2 1 1 1 49 3 78 
ELSE[ ]	/* Else */
NPUSHB[ ]	/* 32 values pushed */
0 5 5 1 97 0 1 1 49 77 6 1 4 4 0 97 0 0 0 47 77 0 3 3 2 95 0 2 2 41 3 78 
EIF[ ]	/* EndIf */
EIF[ ]	/* EndIf */
NPUSHB[ ]	/* 15 values pushed */
22 21 30 28 21 38 22 38 17 19 40 34 7 8 26 
CALL[ ]	/* CallFunction */";
};
width = 643;
}
);
note = q;
unicode = 113;
},
{
glyphname = u;
layers = (
{
layerId = m01;
shapes = (
{
closed = 1;
nodes = (
(210,197,o),
(210,245,qs),
(210,527,l),
(53,527,l),
(53,236,ls),
(53,173,o),
(86,80,o),
(149,20,o),
(241,-8,o),
(298,-8,qs),
(350,-8,o),
(441,17,o),
(507,75,o),
(544,169,o),
(544,236,qs),
(544,527,l),
(387,527,l),
(387,245,ls),
(387,223,o),
(380,183,o),
(361,153,o),
(326,134,o),
(299,134,qs),
(250,135,o)
);
}
);
userData = {
assembly = "NPUSHB[ ]	/* 33 values pushed */
3 1 1 1 41 77 4 1 0 0 2 97 0 2 2 47 2 78 1 0 20 19 14 12 7 6 0 23 1 23 5 8 22 
CALL[ ]	/* CallFunction */";
};
width = 597;
}
);
note = u;
unicode = 117;
},
{
glyphname = v;
layers = (
{
layerId = m01;
shapes = (
{
closed = 1;
nodes = (
(175,527,l),
(1,527,l),
(195,0,l),
(380,0,l),
(574,527,l),
(401,527,l),
(288,174,l)
);
}
);
userData = {
assembly = "NPUSHB[ ]	/* 24 values pushed */
6 1 1 0 1 76 2 1 0 0 41 77 0 1 1 39 1 78 17 17 16 3 8 25 
CALL[ ]	/* CallFunction */";
};
width = 575;
}
);
note = v;
unicode = 118;
},
{
glyphname = w;
kernLeft = w;
layers = (
{
layerId = m01;
shapes = (
{
closed = 1;
nodes = (
(437,328,l),
(534,0,l),
(707,0,l),
(872,527,l),
(705,527,l),
(619,186,l),
(522,527,l),
(359,527,l),
(262,186,l),
(175,527,l),
(1,527,l),
(166,0,l),
(341,0,l)
);
}
);
userData = {
assembly = "NPUSHB[ ]	/* 36 values pushed */
11 6 3 3 3 0 1 76 2 1 2 0 0 41 77 5 4 2 3 3 39 3 78 0 0 0 12 0 12 17 18 18 17 6 8 26 
CALL[ ]	/* CallFunction */";
};
width = 873;
}
);
note = w;
unicode = 119;
},
{
glyphname = x;
layers = (
{
layerId = m01;
shapes = (
{
closed = 1;
nodes = (
(193,527,l),
(10,527,l),
(179,268,l),
(1,0,l),
(178,0,l),
(278,164,l),
(379,0,l),
(562,0,l),
(379,266,l),
(550,527,l),
(372,527,l),
(283,370,l)
);
}
);
userData = {
assembly = "NPUSHB[ ]	/* 29 values pushed */
11 8 5 2 4 1 0 1 76 3 1 0 0 41 77 2 1 1 1 39 1 78 18 18 18 16 4 8 26 
CALL[ ]	/* CallFunction */";
};
width = 563;
}
);
note = x;
unicode = 120;
},
{
glyphname = z;
layers = (
{
layerId = m01;
shapes = (
{
closed = 1;
nodes = (
(34,527,l),
(34,387,l),
(273,387,l),
(34,115,l),
(34,0,l),
(480,0,l),
(480,140,l),
(240,140,l),
(480,412,l),
(480,527,l)
);
}
);
userData = {
assembly = "NPUSHB[ ]	/* 38 values pushed */
0 1 2 3 5 1 1 0 2 76 0 2 2 3 95 0 3 3 41 77 0 0 0 1 95 0 1 1 39 1 78 17 18 17 17 4 8 26 
CALL[ ]	/* CallFunction */";
};
width = 514;
}
);
note = z;
unicode = 122;
},
{
glyphname = period;
kernLeft = period;
kernRight = period;
layers = (
{
layerId = m01;
shapes = (
{
closed = 1;
nodes = (
(54,129,o),
(54,83,qs),
(54,35,o),
(108,-13,o),
(149,-13,qs),
(189,-13,o),
(243,35,o),
(243,83,qs),
(243,130,o),
(189,180,o),
(149,180,qs),
(109,180,o)
);
}
);
userData = {
assembly = "NPUSHB[ ]	/* 23 values pushed */
2 1 0 0 1 97 0 1 1 47 1 78 1 0 7 5 0 11 1 11 3 8 22 
CALL[ ]	/* CallFunction */";
};
width = 297;
}
);
note = period;
unicode = 46;
},
{
glyphname = comma;
kernLeft = period;
kernRight = period;
layers = (
{
layerId = m01;
shapes = (
{
closed = 1;
nodes = (
(123,-54,o),
(96,-81,o),
(67,-103,o),
(54,-110,q),
(97,-175,l),
(128,-165,o),
(188,-123,o),
(236,-64,o),
(266,9,o),
(267,48,qs),
(269,102,o),
(216,176,o),
(164,176,qs),
(124,176,o),
(64,128,o),
(64,81,qs),
(64,39,o),
(114,-6,o),
(148,-9,q),
(143,-24,o)
);
}
);
userData = {
assembly = "NPUSHB[ ]	/* 13 values pushed */
15 14 2 0 73 0 0 0 118 37 1 8 23 
CALL[ ]	/* CallFunction */";
};
width = 322;
}
);
note = comma;
unicode = 44;
},
{
glyphname = A;
kernLeft = A;
kernRight = A;
layers = (
{
layerId = m01;
shapes = (
{
closed = 1;
nodes = (
(459,263,l),
(269,263,l),
(365,530,l)
);
},
{
closed = 1;
nodes = (
(551,0,l),
(728,0,l),
(453,708,l),
(279,708,l),
(0,0,l),
(176,0,l),
(219,117,l),
(509,117,l)
);
}
);
userData = {
assembly = "NPUSHB[ ]	/* 40 values pushed */
2 1 0 2 1 76 0 0 5 1 4 1 0 4 104 0 2 2 38 77 3 1 1 1 39 1 78 3 3 3 10 3 10 17 17 19 16 6 8 26 
CALL[ ]	/* CallFunction */";
};
width = 730;
}
);
note = A;
unicode = 65;
},
{
glyphname = breve;
layers = (
{
layerId = m01;
shapes = (
{
closed = 1;
nodes = (
(101,668,o),
(207,583,o),
(295,583,qs),
(383,583,o),
(489,668,o),
(490,760,q),
(364,760,l),
(363,726,o),
(330,690,o),
(295,690,qs),
(260,690,o),
(227,726,o),
(226,760,q),
(100,760,l)
);
}
);
userData = {
assembly = "PUSHB[ ]	/* 2 values pushed */
6 100 
WCVTP[ ]	/* WriteCVTInPixels */
MPPEM[ ]	/* MeasurePixelPerEm */
PUSHB[ ]	/* 1 value pushed */
18 
LT[ ]	/* LessThan */
IF[ ]	/* If */
NPUSHB[ ]	/* 24 values pushed */
4 3 2 1 0 0 1 112 0 0 2 2 0 89 0 0 0 2 98 0 2 0 2 82 
ELSE[ ]	/* Else */
NPUSHB[ ]	/* 23 values pushed */
4 3 2 1 0 1 133 0 0 2 2 0 89 0 0 0 2 98 0 2 0 2 82 
EIF[ ]	/* EndIf */
NPUSHB[ ]	/* 12 values pushed */
0 0 0 13 0 13 34 18 34 5 8 25 
CALL[ ]	/* CallFunction */
PUSHB[ ]	/* 2 values pushed */
6 0 
WCVTP[ ]	/* WriteCVTInPixels */";
};
width = 590;
}
);
note = breve;
unicode = 728;
},
{
glyphname = circumflex;
layers = (
{
layerId = m01;
shapes = (
{
closed = 1;
nodes = (
(258,769,l),
(100,584,l),
(246,584,l),
(309,671,l),
(374,584,l),
(520,584,l),
(360,769,l)
);
}
);
userData = {
assembly = "PUSHB[ ]	/* 2 values pushed */
6 100 
WCVTP[ ]	/* WriteCVTInPixels */
NPUSHB[ ]	/* 22 values pushed */
2 1 0 2 1 76 0 2 0 2 133 1 1 0 0 118 17 18 16 3 8 25 
CALL[ ]	/* CallFunction */
PUSHB[ ]	/* 2 values pushed */
6 0 
WCVTP[ ]	/* WriteCVTInPixels */";
};
width = 620;
}
);
note = circumflex;
unicode = 710;
},
{
glyphname = uni0326;
layers = (
{
layerId = m01;
shapes = (
{
closed = 1;
nodes = (
(-318,-212,o),
(-337,-231,o),
(-360,-247,o),
(-370,-253,q),
(-337,-301,l),
(-313,-292,o),
(-266,-261,o),
(-231,-217,o),
(-210,-165,o),
(-210,-136,qs),
(-210,-100,o),
(-252,-46,o),
(-290,-46,qs),
(-322,-46,o),
(-363,-82,o),
(-363,-115,qs),
(-363,-145,o),
(-326,-178,o),
(-300,-180,q),
(-303,-190,o)
);
}
);
userData = {
assembly = "PUSHB[ ]	/* 2 values pushed */
6 100 
WCVTP[ ]	/* WriteCVTInPixels */
NPUSHB[ ]	/* 14 values pushed */
15 14 0 3 0 73 0 0 0 118 37 1 8 23 
CALL[ ]	/* CallFunction */
PUSHB[ ]	/* 2 values pushed */
6 0 
WCVTP[ ]	/* WriteCVTInPixels */";
};
width = 0;
}
);
note = uni0326;
unicode = 806;
},
{
glyphname = exclam;
layers = (
{
layerId = m01;
shapes = (
{
closed = 1;
nodes = (
(64,131,o),
(64,84,qs),
(64,37,o),
(122,-9,o),
(161,-9,qs),
(180,-9,o),
(214,3,o),
(240,26,o),
(256,61,o),
(256,84,qs),
(256,131,o),
(201,179,o),
(161,179,qs),
(121,179,o)
);
},
{
closed = 1;
nodes = (
(76,708,l),
(88,242,l),
(233,242,l),
(246,708,l)
);
}
);
userData = {
assembly = "NPUSHB[ ]	/* 37 values pushed */
0 2 2 3 95 0 3 3 38 77 4 1 0 0 1 97 0 1 1 47 1 78 1 0 17 16 15 14 9 7 0 13 1 13 5 8 22 
CALL[ ]	/* CallFunction */";
};
width = 320;
}
);
note = exclam;
unicode = 33;
},
{
glyphname = quotedbl;
layers = (
{
layerId = m01;
shapes = (
{
closed = 1;
nodes = (
(241,708,l),
(261,425,l),
(367,425,l),
(391,708,l)
);
},
{
closed = 1;
nodes = (
(46,708,l),
(65,425,l),
(171,425,l),
(194,708,l)
);
}
);
userData = {
assembly = "NPUSHB[ ]	/* 20 values pushed */
2 1 0 0 1 95 3 1 1 1 38 0 78 17 17 17 16 4 8 26 
CALL[ ]	/* CallFunction */";
};
width = 437;
}
);
note = quotedbl;
unicode = 34;
},
{
glyphname = quotesingle;
layers = (
{
layerId = m01;
shapes = (
{
closed = 1;
nodes = (
(54,708,l),
(76,425,l),
(182,425,l),
(206,708,l)
);
}
);
userData = {
assembly = "NPUSHB[ ]	/* 16 values pushed */
0 0 0 1 95 0 1 1 38 0 78 17 16 2 8 24 
CALL[ ]	/* CallFunction */";
};
width = 260;
}
);
note = quotesingle;
unicode = 39;
},
{
glyphname = numbersign;
layers = (
{
layerId = m01;
shapes = (
{
closed = 1;
nodes = (
(439,708,l),
(418,542,l),
(313,542,l),
(332,708,l),
(204,708,l),
(183,542,l),
(74,542,l),
(74,406,l),
(167,406,l),
(154,301,l),
(155,301,l),
(46,301,l),
(46,165,l),
(138,165,l),
(117,0,l),
(248,0,l),
(268,165,l),
(373,165,l),
(354,0,l),
(482,0,l),
(487,42,o),
(497,122,o),
(503,165,q),
(611,165,l),
(611,301,l),
(519,301,l),
(532,406,l),
(640,406,l),
(640,542,l),
(548,542,l),
(568,708,l)
);
},
{
closed = 1;
nodes = (
(296,406,l),
(402,406,l),
(390,301,l),
(284,301,l)
);
}
);
userData = {
assembly = "MPPEM[ ]	/* MeasurePixelPerEm */
PUSHB[ ]	/* 1 value pushed */
33 
LT[ ]	/* LessThan */
IF[ ]	/* If */
NPUSHB[ ]	/* 40 values pushed */
16 15 8 3 2 7 5 2 3 4 2 3 103 13 1 11 11 38 77 14 9 2 1 1 0 95 12 10 2 0 0 41 77 6 1 4 4 39 4 78 
ELSE[ ]	/* Else */
NPUSHB[ ]	/* 38 values pushed */
12 10 2 0 14 9 2 1 2 0 1 104 16 15 8 3 2 7 5 2 3 4 2 3 103 13 1 11 11 38 77 6 1 4 4 39 4 78 
EIF[ ]	/* EndIf */
NPUSHB[ ]	/* 30 values pushed */
31 31 31 34 31 34 33 32 30 29 28 27 26 25 24 23 22 21 17 17 17 17 19 17 17 17 16 17 8 31 
CALL[ ]	/* CallFunction */";
};
width = 686;
}
);
note = numbersign;
unicode = 35;
},
{
glyphname = percent;
layers = (
{
layerId = m01;
shapes = (
{
closed = 1;
nodes = (
(788,15,o),
(835,62,o),
(861,127,o),
(861,167,qs),
(861,251,o),
(764,348,o),
(682,348,qs),
(641,348,o),
(575,322,o),
(528,275,o),
(502,208,o),
(502,167,qs),
(502,127,o),
(528,62,o),
(575,15,o),
(641,-11,o),
(682,-11,qs),
(722,-11,o)
);
},
{
closed = 1;
nodes = (
(332,387,o),
(378,434,o),
(404,500,o),
(404,540,qs),
(404,623,o),
(307,720,o),
(225,720,qs),
(184,720,o),
(118,694,o),
(72,647,o),
(46,580,o),
(46,540,qs),
(46,500,o),
(71,434,o),
(117,387,o),
(184,361,o),
(225,361,qs),
(265,361,o)
);
},
{
closed = 1;
nodes = (
(764,708,l),
(604,708,l),
(138,0,l),
(301,0,l)
);
},
{
closed = 1;
nodes = (
(284,564,o),
(284,540,qs),
(284,515,o),
(257,477,o),
(225,477,qs),
(191,477,o),
(165,516,o),
(165,542,qs),
(165,566,o),
(193,603,o),
(225,603,qs),
(257,603,o)
);
},
{
closed = 1;
nodes = (
(741,192,o),
(741,167,qs),
(741,142,o),
(714,104,o),
(682,104,qs),
(648,104,o),
(622,142,o),
(622,168,qs),
(622,193,o),
(651,231,o),
(682,231,qs),
(714,231,o)
);
}
);
userData = {
assembly = "MPPEM[ ]	/* MeasurePixelPerEm */
PUSHB[ ]	/* 1 value pushed */
20 
LT[ ]	/* LessThan */
IF[ ]	/* If */
NPUSHB[ ]	/* 44 values pushed */
0 7 11 1 2 1 7 2 105 0 1 14 1 8 9 1 8 106 13 1 6 6 3 97 4 1 3 3 46 77 0 9 9 0 97 12 5 10 3 0 0 47 0 78 
ELSE[ ]	/* Else */
MPPEM[ ]	/* MeasurePixelPerEm */
PUSHB[ ]	/* 1 value pushed */
22 
LT[ ]	/* LessThan */
IF[ ]	/* If */
NPUSHB[ ]	/* 48 values pushed */
0 7 11 1 2 1 7 2 105 0 1 14 1 8 9 1 8 106 0 4 4 38 77 13 1 6 6 3 97 0 3 3 46 77 0 9 9 0 97 12 5 10 3 0 0 47 0 78 
ELSE[ ]	/* Else */
NPUSHB[ ]	/* 52 values pushed */
0 7 11 1 2 1 7 2 105 0 1 14 1 8 9 1 8 106 0 4 4 38 77 13 1 6 6 3 97 0 3 3 46 77 12 1 5 5 39 77 0 9 9 0 97 10 1 0 0 47 0 78 
EIF[ ]	/* EndIf */
EIF[ ]	/* EndIf */
NPUSHB[ ]	/* 43 values pushed */
53 52 41 40 36 36 19 18 1 0 59 57 52 63 53 63 47 45 40 51 41 51 36 39 36 39 38 37 29 27 18 35 19 35 11 9 0 17 1 17 15 8 22 
CALL[ ]	/* CallFunction */";
};
width = 907;
}
);
note = percent;
unicode = 37;
},
{
glyphname = asterisk;
layers = (
{
layerId = m01;
shapes = (
{
closed = 1;
nodes = (
(56,545,l),
(155,523,l),
(87,447,l),
(192,371,l),
(243,458,l),
(294,371,l),
(399,447,l),
(382,466,o),
(349,504,o),
(332,523,q),
(431,545,l),
(391,668,l),
(298,627,l),
(300,653,o),
(305,702,o),
(308,727,q),
(179,727,l),
(181,702,o),
(186,653,o),
(189,627,q),
(96,668,l)
);
}
);
userData = {
assembly = "NPUSHB[ ]	/* 15 values pushed */
20 19 18 17 16 15 14 13 10 9 8 7 12 0 73 
MPPEM[ ]	/* MeasurePixelPerEm */
PUSHB[ ]	/* 1 value pushed */
25 
LT[ ]	/* LessThan */
IF[ ]	/* If */
PUSHB[ ]	/* 6 values pushed */
0 0 0 38 0 78 
ELSE[ ]	/* Else */
PUSHB[ ]	/* 4 values pushed */
0 0 0 118 
EIF[ ]	/* EndIf */
PUSHB[ ]	/* 4 values pushed */
19 1 8 23 
CALL[ ]	/* CallFunction */";
};
width = 487;
}
);
note = asterisk;
unicode = 42;
},
{
glyphname = plus;
layers = (
{
layerId = m01;
shapes = (
{
closed = 1;
nodes = (
(543,430,l),
(370,430,l),
(370,603,l),
(233,603,l),
(233,430,l),
(61,430,l),
(61,292,l),
(233,292,l),
(233,117,l),
(370,117,l),
(370,292,l),
(543,292,l)
);
}
);
userData = {
assembly = "NPUSHB[ ]	/* 41 values pushed */
0 3 2 0 3 87 4 1 2 6 5 2 1 0 2 1 103 0 3 3 0 95 0 0 3 0 79 0 0 0 11 0 11 17 17 17 17 17 7 8 27 
CALL[ ]	/* CallFunction */";
};
width = 604;
}
);
note = plus;
unicode = 43;
},
{
glyphname = slash;
layers = (
{
layerId = m01;
shapes = (
{
closed = 1;
nodes = (
(493,781,l),
(339,781,l),
(260,543,o),
(104,73,o),
(26,-165,q),
(180,-165,l)
);
}
);
userData = {
assembly = "NPUSHB[ ]	/* 20 values pushed */
0 0 1 0 133 2 1 1 1 118 0 0 0 5 0 5 19 3 8 23 
CALL[ ]	/* CallFunction */";
};
width = 519;
}
);
note = slash;
unicode = 47;
},
{
glyphname = colon;
kernLeft = colon;
layers = (
{
layerId = m01;
shapes = (
{
closed = 1;
nodes = (
(54,475,o),
(54,430,qs),
(54,382,o),
(109,334,o),
(150,334,qs),
(192,334,o),
(246,382,o),
(246,430,qs),
(246,475,o),
(192,528,o),
(150,528,qs),
(110,528,o)
);
},
{
closed = 1;
nodes = (
(54,132,o),
(54,87,qs),
(54,39,o),
(109,-9,o),
(150,-9,qs),
(192,-9,o),
(246,39,o),
(246,87,qs),
(246,132,o),
(192,184,o),
(150,184,qs),
(110,184,o)
);
}
);
userData = {
assembly = "NPUSHB[ ]	/* 42 values pushed */
0 1 1 0 97 4 1 0 0 41 77 5 1 2 2 3 97 0 3 3 47 3 78 13 12 1 0 19 17 12 23 13 23 7 5 0 11 1 11 6 8 22 
CALL[ ]	/* CallFunction */";
};
width = 300;
}
);
note = colon;
unicode = 58;
},
{
glyphname = semicolon;
kernLeft = colon;
layers = (
{
layerId = m01;
shapes = (
{
closed = 1;
nodes = (
(123,-52,o),
(97,-79,o),
(67,-102,o),
(54,-109,q),
(98,-175,l),
(131,-164,o),
(192,-120,o),
(239,-60,o),
(267,12,o),
(267,51,qs),
(267,76,o),
(255,122,o),
(229,157,o),
(191,177,o),
(164,177,qs),
(123,177,o),
(65,130,o),
(65,82,qs),
(65,41,o),
(113,-5,o),
(148,-8,q),
(143,-22,o)
);
},
{
closed = 1;
nodes = (
(68,475,o),
(68,430,qs),
(68,382,o),
(123,334,o),
(165,334,qs),
(206,334,o),
(260,382,o),
(260,430,qs),
(260,475,o),
(206,528,o),
(165,528,qs),
(124,528,o)
);
}
);
userData = {
assembly = "NPUSHB[ ]	/* 34 values pushed */
17 16 2 0 73 0 0 2 0 134 0 2 2 1 97 3 1 1 1 41 2 78 23 22 29 27 22 33 23 33 37 4 8 23 
CALL[ ]	/* CallFunction */";
};
width = 321;
}
);
note = semicolon;
unicode = 59;
},
{
glyphname = less;
layers = (
{
layerId = m01;
shapes = (
{
closed = 1;
nodes = (
(26,398,l),
(26,318,l),
(443,71,l),
(443,232,l),
(221,363,l),
(443,491,l),
(443,648,l)
);
}
);
userData = {
assembly = "PUSHB[ ]	/* 4 values pushed */
6 3 1 50 
CALL[ ]	/* CallFunction */";
};
width = 499;
}
);
note = less;
unicode = 60;
},
{
glyphname = equal;
layers = (
{
layerId = m01;
shapes = (
{
closed = 1;
nodes = (
(520,547,l),
(56,547,l),
(56,410,l),
(520,410,l)
);
},
{
closed = 1;
nodes = (
(520,294,l),
(56,294,l),
(56,156,l),
(520,156,l)
);
}
);
userData = {
assembly = "MPPEM[ ]	/* MeasurePixelPerEm */
PUSHB[ ]	/* 1 value pushed */
25 
LT[ ]	/* LessThan */
IF[ ]	/* If */
NPUSHB[ ]	/* 20 values pushed */
0 2 5 1 3 2 3 99 4 1 1 1 0 95 0 0 0 41 1 78 
ELSE[ ]	/* Else */
NPUSHB[ ]	/* 26 values pushed */
0 0 4 1 1 2 0 1 103 0 2 3 3 2 87 0 2 2 3 95 5 1 3 2 3 79 
EIF[ ]	/* EndIf */
NPUSHB[ ]	/* 18 values pushed */
4 4 0 0 4 7 4 7 6 5 0 3 0 3 17 6 8 23 
CALL[ ]	/* CallFunction */";
};
width = 576;
}
);
note = equal;
unicode = 61;
},
{
glyphname = greater;
layers = (
{
layerId = m01;
shapes = (
{
closed = 1;
nodes = (
(472,323,l),
(472,403,l),
(56,649,l),
(56,489,l),
(277,359,l),
(56,230,l),
(56,72,l)
);
}
);
userData = {
assembly = "PUSHB[ ]	/* 4 values pushed */
6 3 1 50 
CALL[ ]	/* CallFunction */";
};
width = 498;
}
);
note = greater;
unicode = 62;
},
{
glyphname = at;
layers = (
{
layerId = m01;
shapes = (
{
closed = 1;
nodes = (
(417,346,o),
(443,378,o),
(482,397,o),
(508,397,qs),
(529,397,o),
(559,380,o),
(579,352,o),
(588,317,o),
(588,299,qs),
(588,279,o),
(579,233,o),
(556,194,o),
(518,168,o),
(489,168,qs),
(443,170,o),
(402,236,o),
(402,280,qs),
(403,303,o)
);
},
{
closed = 1;
nodes = (
(629,-143,q),
(611,-15,l),
(581,-23,o),
(526,-31,o),
(485,-31,qs),
(413,-31,o),
(303,15,o),
(229,96,o),
(191,207,o),
(191,273,qs),
(192,343,o),
(237,462,o),
(322,550,o),
(446,600,o),
(527,600,qs),
(598,600,o),
(708,560,o),
(783,485,o),
(822,379,o),
(822,312,qs),
(822,290,o),
(817,239,o),
(801,195,o),
(773,165,o),
(751,165,qs),
(735,166,o),
(716,179,o),
(705,198,o),
(701,223,o),
(701,235,qs),
(701,284,o),
(722,411,o),
(736,483,q),
(648,494,l),
(628,447,l),
(620,466,o),
(591,493,o),
(555,509,o),
(517,516,o),
(499,516,qs),
(452,516,o),
(373,480,o),
(314,415,o),
(280,325,o),
(279,270,qs),
(279,223,o),
(304,143,o),
(352,83,o),
(422,49,o),
(468,49,qs),
(487,49,o),
(530,58,o),
(570,77,o),
(606,107,o),
(619,127,q),
(629,101,o),
(660,68,o),
(697,50,o),
(736,44,o),
(753,44,qs),
(804,45,o),
(878,91,o),
(926,166,o),
(949,263,o),
(949,315,qs),
(949,413,o),
(887,566,o),
(776,671,o),
(620,726,o),
(527,726,qs),
(432,726,o),
(261,668,o),
(132,552,o),
(57,377,o),
(57,261,qs),
(57,162,o),
(119,6,o),
(231,-102,o),
(387,-161,o),
(480,-162,qs),
(557,-162,o)
);
}
);
userData = {
assembly = "MPPEM[ ]	/* MeasurePixelPerEm */
PUSHB[ ]	/* 1 value pushed */
46 
LT[ ]	/* LessThan */
IF[ ]	/* If */
NPUSHB[ ]	/* 20 values pushed */
65 64 63 3 1 6 43 1 4 0 96 1 9 4 97 1 2 9 4 76 
ELSE[ ]	/* Else */
NPUSHB[ ]	/* 20 values pushed */
65 64 63 3 1 6 43 1 5 0 96 1 9 4 97 1 2 9 4 76 
EIF[ ]	/* EndIf */
MPPEM[ ]	/* MeasurePixelPerEm */
PUSHB[ ]	/* 1 value pushed */
46 
LT[ ]	/* LessThan */
IF[ ]	/* If */
NPUSHB[ ]	/* 39 values pushed */
7 1 0 5 1 4 9 0 4 105 0 9 10 1 2 9 2 101 0 8 8 3 97 0 3 3 46 77 0 1 1 6 97 0 6 6 41 1 78 
ELSE[ ]	/* Else */
NPUSHB[ ]	/* 42 values pushed */
0 6 0 1 0 6 1 105 0 5 4 0 5 89 7 1 0 0 4 9 0 4 105 0 9 10 1 2 9 2 101 0 8 8 3 97 0 3 3 46 8 78 
EIF[ ]	/* EndIf */
NPUSHB[ ]	/* 25 values pushed */
19 18 94 92 84 82 74 72 59 57 49 47 39 37 29 27 18 98 19 98 40 34 11 8 24 
CALL[ ]	/* CallFunction */";
};
width = 1005;
}
);
note = at;
unicode = 64;
},
{
glyphname = bracketleft;
layers = (
{
layerId = m01;
shapes = (
{
closed = 1;
nodes = (
(347,-166,l),
(347,-30,l),
(227,-30,l),
(227,645,l),
(347,645,l),
(347,781,l),
(74,781,l),
(74,-166,l)
);
}
);
userData = {
assembly = "NPUSHB[ ]	/* 31 values pushed */
0 0 0 1 2 0 1 103 0 2 3 3 2 87 0 2 2 3 95 0 3 2 3 79 17 17 17 16 4 8 26 
CALL[ ]	/* CallFunction */";
};
width = 369;
}
);
note = bracketleft;
unicode = 91;
},
{
glyphname = bracketright;
layers = (
{
layerId = m01;
shapes = (
{
closed = 1;
nodes = (
(22,781,l),
(22,645,l),
(141,645,l),
(141,-30,l),
(22,-30,l),
(22,-166,l),
(294,-166,l),
(294,781,l)
);
}
);
userData = {
assembly = "NPUSHB[ ]	/* 31 values pushed */
0 3 0 2 1 3 2 103 0 1 0 0 1 87 0 1 1 0 95 0 0 1 0 79 17 17 17 16 4 8 26 
CALL[ ]	/* CallFunction */";
};
width = 368;
}
);
note = bracketright;
unicode = 93;
},
{
glyphname = backslash;
layers = (
{
layerId = m01;
shapes = (
{
closed = 1;
nodes = (
(180,781,l),
(26,781,l),
(339,-166,l),
(494,-166,l)
);
}
);
userData = {
assembly = "NPUSHB[ ]	/* 20 values pushed */
0 0 1 0 133 2 1 1 1 118 0 0 0 3 0 3 17 3 8 23 
CALL[ ]	/* CallFunction */";
};
width = 520;
}
);
note = backslash;
unicode = 92;
},
{
glyphname = asciicircum;
layers = (
{
layerId = m01;
shapes = (
{
closed = 1;
nodes = (
(332,709,l),
(222,709,l),
(46,444,l),
(193,444,l),
(279,585,l),
(363,444,l),
(514,444,l)
);
}
);
userData = {
assembly = "PUSHB[ ]	/* 2 values pushed */
6 100 
WCVTP[ ]	/* WriteCVTInPixels */
NPUSHB[ ]	/* 28 values pushed */
1 1 0 1 1 76 0 1 0 1 133 3 2 2 0 0 118 0 0 0 6 0 6 17 18 4 8 24 
CALL[ ]	/* CallFunction */
PUSHB[ ]	/* 2 values pushed */
6 0 
WCVTP[ ]	/* WriteCVTInPixels */";
};
width = 560;
}
);
note = asciicircum;
unicode = 94;
},
{
glyphname = underscore;
layers = (
{
layerId = m01;
shapes = (
{
closed = 1;
nodes = (
(448,-17,l),
(-16,-17,l),
(-16,-153,l),
(448,-153,l)
);
}
);
userData = {
assembly = "PUSHB[ ]	/* 2 values pushed */
6 100 
WCVTP[ ]	/* WriteCVTInPixels */
NPUSHB[ ]	/* 27 values pushed */
0 0 1 1 0 87 0 0 0 1 95 2 1 1 0 1 79 0 0 0 3 0 3 17 3 8 23 
CALL[ ]	/* CallFunction */
PUSHB[ ]	/* 2 values pushed */
6 0 
WCVTP[ ]	/* WriteCVTInPixels */";
};
width = 432;
}
);
note = underscore;
unicode = 95;
},
{
glyphname = braceleft;
layers = (
{
layerId = m01;
shapes = (
{
closed = 1;
nodes = (
(267,392,o),
(267,427,qs),
(267,592,ls),
(267,601,o),
(269,620,o),
(278,635,o),
(296,645,o),
(313,645,qs),
(377,645,l),
(377,781,l),
(260,781,ls),
(193,781,o),
(116,721,o),
(116,648,qs),
(116,454,ls),
(116,444,o),
(114,417,o),
(103,393,o),
(79,376,o),
(57,376,qs),
(24,376,l),
(24,240,l),
(57,240,ls),
(79,240,o),
(103,223,o),
(114,199,o),
(116,173,o),
(116,163,qs),
(116,-31,ls),
(116,-105,o),
(194,-165,o),
(260,-165,qs),
(377,-165,l),
(377,-29,l),
(313,-29,ls),
(296,-29,o),
(278,-19,o),
(269,-3,o),
(267,16,o),
(267,24,qs),
(267,189,ls),
(267,223,o),
(246,292,o),
(218,308,q),
(246,324,o)
);
}
);
userData = {
assembly = "NPUSHB[ ]	/* 47 values pushed */
4 1 0 2 1 76 0 4 0 5 3 4 5 105 0 3 0 2 0 3 2 105 0 0 1 1 0 89 0 0 0 1 95 0 1 0 1 79 33 39 33 39 33 40 6 8 28 
CALL[ ]	/* CallFunction */";
};
width = 423;
}
);
note = braceleft;
unicode = 123;
},
{
glyphname = bar;
layers = (
{
layerId = m01;
shapes = (
{
closed = 1;
nodes = (
(219,797,l),
(74,797,l),
(74,-169,l),
(219,-169,l)
);
}
);
userData = {
assembly = "NPUSHB[ ]	/* 27 values pushed */
0 0 1 1 0 87 0 0 0 1 95 2 1 1 0 1 79 0 0 0 3 0 3 17 3 8 23 
CALL[ ]	/* CallFunction */";
};
width = 293;
}
);
note = bar;
unicode = 124;
},
{
glyphname = braceright;
layers = (
{
layerId = m01;
shapes = (
{
closed = 1;
nodes = (
(173,273,o),
(161,241,o),
(156,205,o),
(156,189,qs),
(156,25,ls),
(156,16,o),
(154,-4,o),
(145,-19,o),
(126,-29,o),
(110,-29,qs),
(46,-29,l),
(46,-165,l),
(164,-165,ls),
(231,-165,o),
(307,-103,o),
(307,-31,qs),
(307,163,ls),
(307,173,o),
(309,199,o),
(320,223,o),
(344,240,o),
(366,240,qs),
(399,240,l),
(399,376,l),
(366,376,ls),
(344,376,o),
(320,392,o),
(309,416,o),
(307,443,o),
(307,454,qs),
(307,648,ls),
(307,720,o),
(232,781,o),
(164,781,qs),
(46,781,l),
(46,645,l),
(110,645,ls),
(126,645,o),
(145,635,o),
(154,620,o),
(156,601,o),
(156,592,qs),
(156,427,ls),
(156,410,o),
(161,373,o),
(172,340,o),
(191,314,o),
(206,308,q),
(192,300,o)
);
}
);
userData = {
assembly = "NPUSHB[ ]	/* 41 values pushed */
0 1 0 0 2 1 0 105 0 2 0 3 5 2 3 105 0 5 4 4 5 89 0 5 5 4 95 0 4 5 4 79 33 39 33 39 33 42 6 8 28 
CALL[ ]	/* CallFunction */";
};
width = 423;
}
);
note = braceright;
unicode = 125;
},
{
glyphname = Euro;
layers = (
{
layerId = m01;
shapes = (
{
closed = 1;
nodes = (
(669,37,o),
(715,88,q),
(632,199,l),
(600,167,o),
(525,137,o),
(478,137,qs),
(429,137,o),
(345,172,o),
(328,210,q),
(515,210,l),
(520,241,o),
(532,300,o),
(538,331,q),
(296,331,l),
(296,342,o),
(295,366,o),
(296,378,q),
(544,378,l),
(567,499,l),
(329,499,l),
(351,539,o),
(434,575,o),
(478,575,qs),
(505,575,o),
(547,566,o),
(582,550,o),
(612,529,o),
(626,516,q),
(707,625,l),
(656,676,o),
(545,715,o),
(472,715,qs),
(418,715,o),
(320,688,o),
(238,634,o),
(175,553,o),
(156,499,q),
(66,499,l),
(61,468,o),
(48,408,o),
(43,378,q),
(136,378,l),
(136,331,l),
(60,331,l),
(36,210,l),
(154,210,l),
(168,157,o),
(227,76,o),
(311,20,o),
(415,-8,o),
(475,-8,qs),
(550,-8,o)
);
}
);
userData = {
assembly = "NPUSHB[ ]	/* 91 values pushed */
22 1 6 5 23 1 4 6 48 1 11 1 49 1 0 11 4 76 7 1 4 8 1 3 2 4 3 103 9 1 2 10 1 1 11 2 1 103 0 6 6 5 97 0 5 5 46 77 0 11 11 0 97 12 1 0 0 47 0 78 1 0 46 44 42 41 38 37 34 33 32 31 29 27 20 18 14 13 10 9 8 7 6 5 0 51 1 51 13 8 22 
CALL[ ]	/* CallFunction */";
};
width = 751;
}
);
note = Euro;
unicode = 8364;
},
{
glyphname = quotedblbase;
kernLeft = period;
kernRight = period;
layers = (
{
layerId = m01;
shapes = (
{
closed = 1;
nodes = (
(120,-49,o),
(95,-74,o),
(67,-97,o),
(54,-104,q),
(95,-165,l),
(126,-155,o),
(184,-113,o),
(229,-56,o),
(256,12,o),
(256,49,qs),
(256,73,o),
(244,116,o),
(220,149,o),
(183,169,o),
(158,169,qs),
(119,169,o),
(64,124,o),
(64,79,qs),
(64,40,o),
(109,-5,o),
(143,-7,q),
(139,-21,o)
);
},
{
closed = 1;
nodes = (
(359,-49,o),
(334,-74,o),
(306,-97,o),
(293,-104,q),
(334,-165,l),
(365,-155,o),
(423,-113,o),
(468,-56,o),
(495,12,o),
(495,49,qs),
(495,73,o),
(484,116,o),
(460,149,o),
(423,169,o),
(398,169,qs),
(359,169,o),
(303,124,o),
(303,79,qs),
(303,40,o),
(348,-5,o),
(382,-7,q),
(378,-21,o)
);
}
);
userData = {
assembly = "NPUSHB[ ]	/* 27 values pushed */
39 38 17 16 4 0 73 3 1 1 1 0 97 2 1 0 0 47 0 78 36 31 36 16 4 8 26 
CALL[ ]	/* CallFunction */";
};
width = 550;
}
);
note = quotedblbase;
unicode = 8222;
},
{
glyphname = quotesinglbase;
layers = (
{
layerId = m01;
shapes = (
{
closed = 1;
nodes = (
(120,-49,o),
(95,-74,o),
(67,-97,o),
(54,-104,q),
(95,-165,l),
(125,-156,o),
(183,-114,o),
(228,-57,o),
(256,12,o),
(256,49,qs),
(256,73,o),
(244,116,o),
(220,149,o),
(183,169,o),
(158,169,qs),
(119,169,o),
(64,124,o),
(64,79,qs),
(64,40,o),
(109,-5,o),
(142,-7,q),
(139,-21,o)
);
}
);
userData = {
assembly = "NPUSHB[ ]	/* 21 values pushed */
17 16 2 0 73 0 1 1 0 97 0 0 0 47 0 78 36 16 2 8 24 
CALL[ ]	/* CallFunction */";
};
width = 311;
}
);
note = quotesinglbase;
unicode = 8218;
},
{
glyphname = quotedblright;
layers = (
{
layerId = m01;
shapes = (
{
closed = 1;
nodes = (
(120,522,o),
(95,496,o),
(67,474,o),
(54,467,q),
(64,451,o),
(85,421,o),
(95,405,q),
(126,415,o),
(184,457,o),
(229,513,o),
(256,582,o),
(256,619,qs),
(256,643,o),
(244,686,o),
(220,719,o),
(183,739,o),
(158,739,qs),
(119,739,o),
(64,694,o),
(64,649,qs),
(64,610,o),
(109,565,o),
(143,563,q),
(139,550,o)
);
},
{
closed = 1;
nodes = (
(359,522,o),
(334,496,o),
(306,474,o),
(293,467,q),
(303,451,o),
(324,421,o),
(334,405,q),
(365,415,o),
(423,457,o),
(468,513,o),
(495,582,o),
(495,619,qs),
(495,643,o),
(484,686,o),
(460,719,o),
(423,739,o),
(398,739,qs),
(359,739,o),
(303,694,o),
(303,649,qs),
(303,610,o),
(348,565,o),
(382,563,q),
(378,550,o)
);
}
);
userData = {
assembly = "PUSHB[ ]	/* 7 values pushed */
43 40 19 16 4 0 73 
MPPEM[ ]	/* MeasurePixelPerEm */
PUSHB[ ]	/* 1 value pushed */
23 
LT[ ]	/* LessThan */
IF[ ]	/* If */
NPUSHB[ ]	/* 13 values pushed */
2 1 0 0 1 97 3 1 1 1 46 0 78 
ELSE[ ]	/* Else */
NPUSHB[ ]	/* 19 values pushed */
3 1 1 0 0 1 89 3 1 1 1 0 97 2 1 0 1 0 81 
EIF[ ]	/* EndIf */
NPUSHB[ ]	/* 9 values pushed */
31 29 25 24 36 16 4 8 24 
CALL[ ]	/* CallFunction */";
};
width = 550;
}
);
note = quotedblright;
unicode = 8221;
},
{
glyphname = quoteright;
layers = (
{
layerId = m01;
shapes = (
{
closed = 1;
nodes = (
(120,522,o),
(95,496,o),
(67,474,o),
(54,467,q),
(64,451,o),
(85,421,o),
(95,405,q),
(125,414,o),
(183,456,o),
(228,513,o),
(256,582,o),
(256,619,qs),
(256,643,o),
(244,686,o),
(220,719,o),
(183,739,o),
(158,739,qs),
(119,739,o),
(64,694,o),
(64,649,qs),
(64,610,o),
(109,565,o),
(142,563,q),
(139,550,o)
);
}
);
userData = {
assembly = "PUSHB[ ]	/* 5 values pushed */
19 16 2 0 73 
MPPEM[ ]	/* MeasurePixelPerEm */
PUSHB[ ]	/* 1 value pushed */
23 
LT[ ]	/* LessThan */
IF[ ]	/* If */
NPUSHB[ ]	/* 11 values pushed */
0 0 0 1 97 0 1 1 46 0 78 
ELSE[ ]	/* Else */
NPUSHB[ ]	/* 16 values pushed */
0 1 0 0 1 89 0 1 1 0 97 0 0 1 0 81 
EIF[ ]	/* EndIf */
PUSHB[ ]	/* 5 values pushed */
36 16 2 8 24 
CALL[ ]	/* CallFunction */";
};
width = 311;
}
);
note = quoteright;
unicode = 8217;
},
{
glyphname = quotedblleft;
layers = (
{
layerId = m01;
shapes = (
{
closed = 1;
nodes = (
(430,650,o),
(455,676,o),
(483,697,o),
(496,705,q),
(486,721,o),
(465,751,o),
(455,767,q),
(424,756,o),
(366,714,o),
(321,658,o),
(294,590,o),
(294,553,qs),
(294,529,o),
(305,485,o),
(329,452,o),
(366,432,o),
(392,432,qs),
(430,431,o),
(486,478,o),
(486,523,qs),
(486,561,o),
(441,606,o),
(407,608,q),
(411,622,o)
);
},
{
closed = 1;
nodes = (
(191,650,o),
(216,676,o),
(244,697,o),
(257,705,q),
(247,721,o),
(226,751,o),
(216,767,q),
(185,756,o),
(127,714,o),
(82,658,o),
(55,590,o),
(55,553,qs),
(55,529,o),
(66,485,o),
(90,452,o),
(127,432,o),
(152,432,qs),
(191,431,o),
(247,478,o),
(247,523,qs),
(247,561,o),
(202,606,o),
(168,608,q),
(172,622,o)
);
}
);
userData = {
assembly = "NPUSHB[ ]	/* 35 values pushed */
43 40 19 16 4 0 74 2 1 0 1 1 0 89 2 1 0 0 1 97 3 1 1 0 1 81 31 29 25 24 36 16 4 8 24 
CALL[ ]	/* CallFunction */";
};
width = 550;
}
);
note = quotedblleft;
unicode = 8220;
},
{
glyphname = quoteleft;
layers = (
{
layerId = m01;
shapes = (
{
closed = 1;
nodes = (
(191,650,o),
(216,676,o),
(244,697,o),
(257,705,q),
(215,767,l),
(184,756,o),
(127,714,o),
(82,658,o),
(55,590,o),
(55,553,qs),
(55,529,o),
(66,485,o),
(90,452,o),
(127,432,o),
(152,432,qs),
(190,431,o),
(247,478,o),
(247,523,qs),
(247,561,o),
(201,606,o),
(168,608,q),
(172,622,o)
);
}
);
userData = {
assembly = "NPUSHB[ ]	/* 26 values pushed */
17 16 2 0 74 0 0 1 1 0 89 0 0 0 1 97 0 1 0 1 81 36 16 2 8 24 
CALL[ ]	/* CallFunction */";
};
width = 311;
}
);
note = quoteleft;
unicode = 8216;
},
{
glyphname = minus;
layers = (
{
layerId = m01;
shapes = (
{
closed = 1;
nodes = (
(524,430,l),
(61,430,l),
(61,292,l),
(524,292,l)
);
}
);
userData = {
assembly = "NPUSHB[ ]	/* 27 values pushed */
0 0 1 1 0 87 0 0 0 1 95 2 1 1 0 1 79 0 0 0 3 0 3 17 3 6 23 
CALL[ ]	/* CallFunction */";
};
width = 585;
}
);
note = minus;
unicode = 8722;
},
{
glyphname = hyphen;
layers = (
{
layerId = m01;
shapes = (
{
closed = 1;
nodes = (
(61,362,l),
(61,224,l),
(406,224,l),
(406,362,l)
);
}
);
userData = {
assembly = "NPUSHB[ ]	/* 21 values pushed */
0 1 0 0 1 87 0 1 1 0 95 0 0 1 0 79 17 16 2 8 24 
CALL[ ]	/* CallFunction */";
};
width = 467;
}
);
note = hyphen;
unicode = 45;
},
{
glyphname = endash;
layers = (
{
layerId = m01;
shapes = (
{
closed = 1;
nodes = (
(61,362,l),
(61,224,l),
(574,224,l),
(574,362,l)
);
}
);
userData = {
assembly = "NPUSHB[ ]	/* 21 values pushed */
0 1 0 0 1 87 0 1 1 0 95 0 0 1 0 79 17 16 2 8 24 
CALL[ ]	/* CallFunction */";
};
width = 635;
}
);
note = endash;
unicode = 8211;
},
{
glyphname = emdash;
layers = (
{
layerId = m01;
shapes = (
{
closed = 1;
nodes = (
(61,362,l),
(61,224,l),
(795,224,l),
(795,362,l)
);
}
);
userData = {
assembly = "NPUSHB[ ]	/* 21 values pushed */
0 1 0 0 1 87 0 1 1 0 95 0 0 1 0 79 17 16 2 8 24 
CALL[ ]	/* CallFunction */";
};
width = 856;
}
);
note = emdash;
unicode = 8212;
},
{
glyphname = grave;
layers = (
{
layerId = m01;
shapes = (
{
closed = 1;
nodes = (
(209,769,l),
(46,769,l),
(199,584,l),
(329,584,l)
);
}
);
userData = {
assembly = "PUSHB[ ]	/* 2 values pushed */
6 100 
WCVTP[ ]	/* WriteCVTInPixels */
NPUSHB[ ]	/* 27 values pushed */
0 0 1 1 0 87 0 0 0 1 95 2 1 1 0 1 79 0 0 0 3 0 3 17 3 8 23 
CALL[ ]	/* CallFunction */
PUSHB[ ]	/* 2 values pushed */
6 0 
WCVTP[ ]	/* WriteCVTInPixels */";
};
width = 421;
}
);
note = grave;
unicode = 96;
},
{
glyphname = acute;
layers = (
{
layerId = m01;
shapes = (
{
closed = 1;
nodes = (
(222,584,l),
(375,769,l),
(212,769,l),
(92,584,l),
(92,584,l)
);
}
);
userData = {
assembly = "PUSHB[ ]	/* 2 values pushed */
6 100 
WCVTP[ ]	/* WriteCVTInPixels */
NPUSHB[ ]	/* 21 values pushed */
0 0 1 1 0 87 0 0 0 1 95 0 1 0 1 79 17 17 2 8 24 
CALL[ ]	/* CallFunction */
PUSHB[ ]	/* 2 values pushed */
6 0 
WCVTP[ ]	/* WriteCVTInPixels */";
};
width = 421;
}
);
note = acute;
unicode = 180;
},
{
glyphname = guillemotright;
layers = (
{
layerId = m01;
shapes = (
{
closed = 1;
nodes = (
(46,79,l),
(197,79,l),
(332,273,l),
(197,468,l),
(46,468,l),
(184,273,l)
);
},
{
closed = 1;
nodes = (
(288,79,l),
(439,79,l),
(576,273,l),
(439,468,l),
(288,468,l),
(426,273,l)
);
}
);
userData = {
assembly = "NPUSHB[ ]	/* 35 values pushed */
11 8 5 2 4 1 0 1 76 2 1 0 1 1 0 87 2 1 0 0 1 95 3 1 1 0 1 79 18 18 18 16 4 8 26 
CALL[ ]	/* CallFunction */";
};
width = 602;
}
);
note = guillemotright;
unicode = 187;
},
{
glyphname = guilsinglright;
layers = (
{
layerId = m01;
shapes = (
{
closed = 1;
nodes = (
(46,79,l),
(210,79,l),
(346,274,l),
(210,468,l),
(46,468,l),
(185,274,l)
);
}
);
userData = {
assembly = "NPUSHB[ ]	/* 28 values pushed */
5 2 2 1 0 1 76 0 0 1 1 0 87 0 0 0 1 95 0 1 0 1 79 18 16 2 8 24 
CALL[ ]	/* CallFunction */";
};
width = 372;
}
);
note = guilsinglright;
unicode = 8250;
},
{
glyphname = guillemotleft;
layers = (
{
layerId = m01;
shapes = (
{
closed = 1;
nodes = (
(162,468,l),
(26,274,l),
(162,79,l),
(314,79,l),
(176,274,l),
(314,468,l)
);
},
{
closed = 1;
nodes = (
(403,468,l),
(268,274,l),
(403,79,l),
(556,79,l),
(418,274,l),
(556,468,l)
);
}
);
userData = {
assembly = "NPUSHB[ ]	/* 33 values pushed */
9 3 2 0 1 1 76 3 1 1 0 0 1 87 3 1 1 1 0 95 2 1 0 1 0 79 18 18 18 17 4 8 26 
CALL[ ]	/* CallFunction */";
};
width = 602;
}
);
note = guillemotleft;
unicode = 171;
},
{
glyphname = guilsinglleft;
layers = (
{
layerId = m01;
shapes = (
{
closed = 1;
nodes = (
(161,468,l),
(26,274,l),
(161,79,l),
(325,79,l),
(187,274,l),
(325,468,l)
);
}
);
userData = {
assembly = "NPUSHB[ ]	/* 27 values pushed */
3 1 0 1 1 76 0 1 0 0 1 87 0 1 1 0 95 0 0 1 0 79 18 17 2 8 24 
CALL[ ]	/* CallFunction */";
};
width = 371;
}
);
note = guilsinglleft;
unicode = 8249;
},
{
glyphname = uni00AD;
layers = (
{
layerId = m01;
shapes = (
{
closed = 1;
nodes = (
(61,361,l),
(61,225,l),
(406,225,l),
(406,361,l)
);
}
);
userData = {
assembly = "NPUSHB[ ]	/* 21 values pushed */
0 1 0 0 1 87 0 1 1 0 95 0 0 1 0 79 17 16 2 8 24 
CALL[ ]	/* CallFunction */";
};
width = 467;
}
);
note = uni00AD;
unicode = 173;
},
{
glyphname = ellipsis;
layers = (
{
layerId = m01;
shapes = (
{
closed = 1;
nodes = (
(44,133,o),
(44,87,qs),
(44,39,o),
(100,-9,o),
(140,-9,qs),
(181,-9,o),
(236,39,o),
(236,87,qs),
(236,133,o),
(181,184,o),
(140,184,qs),
(101,184,o)
);
},
{
closed = 1;
nodes = (
(305,133,o),
(305,87,qs),
(305,39,o),
(361,-9,o),
(401,-9,qs),
(442,-9,o),
(497,39,o),
(497,87,qs),
(497,133,o),
(442,184,o),
(401,184,qs),
(362,184,o)
);
},
{
closed = 1;
nodes = (
(564,133,o),
(564,87,qs),
(564,39,o),
(620,-9,o),
(661,-9,qs),
(701,-9,o),
(756,39,o),
(756,87,qs),
(756,133,o),
(701,184,o),
(661,184,qs),
(622,184,o)
);
}
);
userData = {
assembly = "NPUSHB[ ]	/* 45 values pushed */
8 4 7 2 6 5 0 0 1 97 5 3 2 1 1 47 1 78 25 24 13 12 1 0 31 29 24 35 25 35 19 17 12 23 13 23 7 5 0 11 1 11 9 8 22 
CALL[ ]	/* CallFunction */";
};
width = 800;
}
);
note = ellipsis;
unicode = 8230;
},
{
glyphname = uni0445;
layers = (
{
layerId = m01;
shapes = (
{
closed = 1;
nodes = (
(193,527,l),
(10,527,l),
(179,268,l),
(1,0,l),
(178,0,l),
(278,164,l),
(379,0,l),
(562,0,l),
(379,266,l),
(550,527,l),
(372,527,l),
(283,370,l)
);
}
);
userData = {
assembly = "NPUSHB[ ]	/* 29 values pushed */
11 8 5 2 4 1 0 1 76 3 1 0 0 22 77 2 1 1 1 21 1 78 18 18 18 16 4 7 26 
CALL[ ]	/* CallFunction */";
};
width = 563;
}
);
note = uni0445;
unicode = 1093;
},
{
glyphname = uni0431;
layers = (
{
layerId = m01;
shapes = (
{
closed = 1;
nodes = (
(65,148,o),
(131,53,o),
(239,-7,o),
(318,-8,qs),
(379,-8,o),
(481,29,o),
(553,100,o),
(594,201,o),
(594,265,qs),
(594,316,o),
(563,403,o),
(503,468,o),
(417,504,o),
(364,504,qs),
(340,504,o),
(291,496,o),
(242,477,o),
(199,445,o),
(181,422,q),
(181,464,o),
(205,518,o),
(246,553,o),
(301,571,o),
(360,580,o),
(420,583,o),
(446,584,qs),
(479,586,o),
(539,592,o),
(563,600,q),
(563,760,l),
(551,755,o),
(523,751,o),
(485,745,o),
(430,738,o),
(399,735,qs),
(362,732,o),
(286,721,o),
(216,703,o),
(154,670,o),
(127,644,qs),
(74,589,o),
(34,433,o),
(34,334,qs),
(35,271,o)
);
},
{
closed = 1;
nodes = (
(244,154,o),
(217,186,o),
(204,228,o),
(204,249,qs),
(204,297,o),
(271,358,o),
(324,358,qs),
(379,358,o),
(435,292,o),
(435,246,qs),
(435,225,o),
(420,182,o),
(392,152,o),
(347,133,o),
(319,133,qs),
(289,133,o)
);
}
);
userData = {
assembly = "NPUSHB[ ]	/* 11 values pushed */
24 1 4 1 1 76 14 13 2 0 74 
MPPEM[ ]	/* MeasurePixelPerEm */
PUSHB[ ]	/* 1 value pushed */
22 
LT[ ]	/* LessThan */
IF[ ]	/* If */
NPUSHB[ ]	/* 27 values pushed */
0 0 1 0 133 0 4 4 1 97 0 1 1 22 77 5 1 3 3 2 97 0 2 2 30 2 78 
ELSE[ ]	/* Else */
NPUSHB[ ]	/* 25 values pushed */
0 0 1 0 133 0 1 0 4 3 1 4 105 5 1 3 3 2 97 0 2 2 30 2 78 
EIF[ ]	/* EndIf */
NPUSHB[ ]	/* 17 values pushed */
45 44 53 51 44 59 45 59 40 38 30 28 19 16 6 7 22 
CALL[ ]	/* CallFunction */";
};
width = 628;
}
);
note = uni0431;
unicode = 1073;
},
{
glyphname = uni0432;
kernLeft = uni0432;
layers = (
{
layerId = m01;
shapes = (
{
closed = 1;
nodes = (
(55,0,l),
(324,0,ls),
(358,0,o),
(434,12,o),
(499,47,o),
(541,111,o),
(541,162,qs),
(541,204,o),
(504,267,o),
(468,282,q),
(494,297,o),
(524,354,o),
(524,385,qs),
(524,427,o),
(492,483,o),
(440,515,o),
(376,527,o),
(344,527,qs),
(55,527,l)
);
},
{
closed = 1;
nodes = (
(212,211,l),
(332,211,ls),
(357,211,o),
(384,192,o),
(384,171,qs),
(384,145,o),
(346,124,o),
(322,124,qs),
(212,124,l)
);
},
{
closed = 1;
nodes = (
(212,403,l),
(325,403,ls),
(347,403,o),
(373,381,o),
(372,363,qs),
(372,344,o),
(342,323,o),
(322,323,qs),
(212,323,l)
);
}
);
userData = {
assembly = "NPUSHB[ ]	/* 65 values pushed */
8 1 3 4 1 76 8 1 4 0 3 2 4 3 103 0 5 5 0 95 6 1 0 0 22 77 7 1 2 2 1 95 0 1 1 21 1 78 29 28 20 19 1 0 35 33 28 36 29 36 26 24 19 27 20 27 17 15 0 18 1 18 9 7 22 
CALL[ ]	/* CallFunction */";
};
width = 578;
}
);
note = uni0432;
unicode = 1074;
},
{
glyphname = uni0433;
kernLeft = uni0432;
kernRight = uni0433;
layers = (
{
layerId = m01;
shapes = (
{
closed = 1;
nodes = (
(55,0,l),
(212,0,l),
(212,387,l),
(446,387,l),
(446,527,l),
(55,527,l)
);
}
);
userData = {
assembly = "NPUSHB[ ]	/* 28 values pushed */
0 0 0 2 95 3 1 2 2 22 77 0 1 1 21 1 78 0 0 0 5 0 5 17 17 4 7 24 
CALL[ ]	/* CallFunction */";
};
width = 457;
}
);
note = uni0433;
unicode = 1075;
},
{
glyphname = uni0434;
kernRight = uni0434;
layers = (
{
layerId = m01;
shapes = (
{
closed = 1;
nodes = (
(117,467,o),
(113,345,o),
(105,284,qs),
(102,262,o),
(90,211,o),
(67,168,o),
(33,138,o),
(9,138,q),
(9,-142,l),
(164,-142,l),
(164,0,l),
(474,0,l),
(474,-142,l),
(630,-142,l),
(630,140,l),
(563,140,l),
(563,527,l),
(117,527,l)
);
},
{
closed = 1;
nodes = (
(235,168,o),
(248,229,o),
(254,294,o),
(255,358,o),
(257,387,q),
(405,387,l),
(405,140,l),
(222,140,l)
);
}
);
userData = {
assembly = "NPUSHB[ ]	/* 53 values pushed */
3 1 1 0 1 83 0 6 6 5 95 8 1 5 5 22 77 9 7 4 3 0 0 2 95 0 2 2 21 2 78 18 18 0 0 18 25 18 25 20 19 0 17 0 17 17 17 17 17 17 10 7 27 
CALL[ ]	/* CallFunction */";
};
width = 639;
}
);
note = uni0434;
unicode = 1076;
},
{
glyphname = uni0436;
layers = (
{
layerId = m01;
shapes = (
{
closed = 1;
nodes = (
(676,0,l),
(857,0,l),
(710,276,l),
(849,527,l),
(675,527,l),
(581,331,l),
(508,331,l),
(508,527,l),
(350,527,l),
(350,331,l),
(278,331,l),
(182,527,l),
(9,527,l),
(146,276,l),
(1,0,l),
(182,0,l),
(274,191,l),
(350,191,l),
(350,0,l),
(508,0,l),
(508,191,l),
(585,191,l)
);
}
);
userData = {
assembly = "NPUSHB[ ]	/* 51 values pushed */
18 7 2 1 4 1 76 6 1 4 10 9 2 1 0 4 1 103 7 5 2 3 3 22 77 8 2 2 0 0 21 0 78 0 0 0 21 0 21 18 17 17 17 17 18 17 17 17 11 7 31 
CALL[ ]	/* CallFunction */";
};
width = 859;
}
);
note = uni0436;
unicode = 1078;
},
{
glyphname = uni043A;
kernLeft = uni0432;
layers = (
{
layerId = m01;
shapes = (
{
closed = 1;
nodes = (
(397,0,l),
(581,0,l),
(422,279,l),
(579,527,l),
(398,527,l),
(286,332,l),
(212,332,l),
(212,527,l),
(55,527,l),
(55,0,l),
(212,0,l),
(212,191,l),
(292,191,l)
);
}
);
userData = {
assembly = "NPUSHB[ ]	/* 42 values pushed */
9 1 5 2 1 76 0 2 6 1 5 0 2 5 103 3 1 1 1 22 77 4 1 0 0 21 0 78 0 0 0 12 0 12 18 17 17 17 17 7 7 27 
CALL[ ]	/* CallFunction */";
};
width = 581;
}
);
note = uni043A;
unicode = 1082;
},
{
glyphname = uni0438;
kernLeft = uni0432;
layers = (
{
layerId = m01;
shapes = (
{
closed = 1;
nodes = (
(55,527,l),
(55,0,l),
(194,0,l),
(411,272,l),
(411,0,l),
(569,0,l),
(569,527,l),
(437,527,l),
(212,244,l),
(212,527,l)
);
}
);
userData = {
assembly = "NPUSHB[ ]	/* 27 values pushed */
5 0 2 1 0 1 76 3 1 0 0 22 77 2 1 1 1 21 1 78 17 18 17 17 4 7 26 
CALL[ ]	/* CallFunction */";
};
width = 623;
}
);
note = uni0438;
unicode = 1080;
},
{
glyphname = uni0439;
layers = (
{
layerId = m01;
shapes = (
{
closed = 1;
nodes = (
(514,645,o),
(522,731,q),
(390,731,l),
(381,672,o),
(321,672,qs),
(295,672,o),
(258,702,o),
(253,731,q),
(120,731,l),
(123,689,o),
(156,625,o),
(208,583,o),
(279,562,o),
(321,562,qs),
(407,562,o)
);
},
{
closed = 1;
nodes = (
(55,527,l),
(55,0,l),
(194,0,l),
(411,272,l),
(411,0,l),
(569,0,l),
(569,527,l),
(437,527,l),
(212,244,l),
(212,527,l)
);
}
);
userData = {
assembly = "PUSHB[ ]	/* 7 values pushed */
20 15 2 5 4 1 76 
MPPEM[ ]	/* MeasurePixelPerEm */
PUSHB[ ]	/* 1 value pushed */
22 
LT[ ]	/* LessThan */
IF[ ]	/* If */
NPUSHB[ ]	/* 28 values pushed */
0 2 8 1 0 4 2 0 106 3 1 1 1 20 77 7 1 4 4 22 77 6 1 5 5 21 5 78 
ELSE[ ]	/* Else */
NPUSHB[ ]	/* 28 values pushed */
3 1 1 2 1 133 0 2 8 1 0 4 2 0 106 7 1 4 4 22 77 6 1 5 5 21 5 78 
EIF[ ]	/* EndIf */
NPUSHB[ ]	/* 23 values pushed */
1 0 24 23 22 21 19 18 17 16 12 11 10 8 6 5 0 14 1 14 9 7 22 
CALL[ ]	/* CallFunction */";
};
width = 623;
}
);
note = uni0439;
unicode = 1081;
},
{
glyphname = uni043B;
layers = (
{
layerId = m01;
shapes = (
{
closed = 1;
nodes = (
(103,509,o),
(103,458,o),
(102,400,o),
(100,333,o),
(98,306,qs),
(96,272,o),
(86,210,o),
(67,165,o),
(32,137,o),
(6,137,q),
(6,0,l),
(48,0,ls),
(81,0,o),
(140,10,o),
(188,42,o),
(223,101,o),
(231,148,qs),
(242,207,o),
(245,331,o),
(246,386,q),
(377,386,l),
(377,0,l),
(534,0,l),
(534,527,l),
(103,527,l)
);
}
);
userData = {
assembly = "NPUSHB[ ]	/* 42 values pushed */
19 1 3 1 1 76 0 1 1 4 95 5 1 4 4 22 77 0 3 3 0 97 2 1 0 0 21 0 78 0 0 0 24 0 24 17 39 17 17 6 7 26 
CALL[ ]	/* CallFunction */";
};
width = 589;
}
);
note = uni043B;
unicode = 1083;
},
{
glyphname = uni043C;
kernLeft = uni0432;
layers = (
{
layerId = m01;
shapes = (
{
closed = 1;
nodes = (
(530,298,l),
(530,0,l),
(688,0,l),
(688,527,l),
(518,527,l),
(373,307,l),
(227,527,l),
(55,527,l),
(55,0,l),
(212,0,l),
(212,299,l),
(351,94,l),
(394,94,l)
);
}
);
userData = {
assembly = "NPUSHB[ ]	/* 43 values pushed */
11 6 1 3 4 1 1 76 5 1 4 1 0 1 4 0 128 2 1 1 1 22 77 3 1 0 0 21 0 78 0 0 0 12 0 12 17 18 17 18 6 7 26 
CALL[ ]	/* CallFunction */";
};
width = 742;
}
);
note = uni043C;
unicode = 1084;
},
{
glyphname = uni043D;
kernLeft = uni0432;
layers = (
{
layerId = m01;
shapes = (
{
closed = 1;
nodes = (
(55,527,l),
(55,0,l),
(212,0,l),
(212,193,l),
(392,193,l),
(392,0,l),
(549,0,l),
(549,527,l),
(392,527,l),
(392,333,l),
(212,333,l),
(212,527,l)
);
}
);
userData = {
assembly = "NPUSHB[ ]	/* 30 values pushed */
0 0 0 3 2 0 3 103 5 1 1 1 22 77 4 1 2 2 21 2 78 17 17 17 17 17 16 6 7 28 
CALL[ ]	/* CallFunction */";
};
width = 604;
}
);
note = uni043D;
unicode = 1085;
},
{
glyphname = uni043F;
kernLeft = uni0432;
layers = (
{
layerId = m01;
shapes = (
{
closed = 1;
nodes = (
(55,0,l),
(212,0,l),
(212,387,l),
(389,387,l),
(389,0,l),
(546,0,l),
(546,527,l),
(55,527,l)
);
}
);
userData = {
assembly = "NPUSHB[ ]	/* 30 values pushed */
0 1 1 3 95 4 1 3 3 22 77 2 1 0 0 21 0 78 0 0 0 7 0 7 17 17 17 5 7 25 
CALL[ ]	/* CallFunction */";
};
width = 601;
}
);
note = uni043F;
unicode = 1087;
},
{
glyphname = uni0442;
layers = (
{
layerId = m01;
shapes = (
{
closed = 1;
nodes = (
(167,0,l),
(324,0,l),
(324,387,l),
(495,387,l),
(495,527,l),
(-4,527,l),
(-4,387,l),
(167,387,l)
);
}
);
userData = {
assembly = "NPUSHB[ ]	/* 30 values pushed */
4 3 2 1 1 0 95 0 0 0 22 77 0 2 2 21 2 78 0 0 0 7 0 7 17 17 17 5 7 25 
CALL[ ]	/* CallFunction */";
};
width = 491;
}
);
note = uni0442;
unicode = 1090;
},
{
glyphname = uni0444;
kernLeft = uni0444;
layers = (
{
layerId = m01;
shapes = (
{
closed = 1;
nodes = (
(323,537,l),
(260,537,o),
(152,503,o),
(74,434,o),
(30,331,o),
(31,264,qs),
(32,197,o),
(77,97,o),
(155,30,o),
(261,-4,o),
(323,-6,q),
(323,-211,l),
(481,-211,l),
(481,-7,l),
(543,-4,o),
(649,30,o),
(726,96,o),
(771,194,o),
(773,261,qs),
(773,330,o),
(730,433,o),
(652,502,o),
(544,536,o),
(481,537,q),
(481,705,l),
(323,705,l)
);
},
{
closed = 1;
nodes = (
(261,134,o),
(192,206,o),
(192,265,qs),
(192,323,o),
(260,395,o),
(323,395,q),
(323,133,l)
);
},
{
closed = 1;
nodes = (
(544,395,o),
(612,323,o),
(612,265,qs),
(612,206,o),
(543,134,o),
(481,133,q),
(481,395,l)
);
}
);
userData = {
assembly = "MPPEM[ ]	/* MeasurePixelPerEm */
PUSHB[ ]	/* 1 value pushed */
14 
LT[ ]	/* LessThan */
IF[ ]	/* If */
NPUSHB[ ]	/* 36 values pushed */
10 1 5 5 20 77 9 1 6 6 0 97 4 1 0 0 29 77 8 1 7 7 1 97 3 1 1 1 28 77 0 2 2 24 2 78 
ELSE[ ]	/* Else */
NPUSHB[ ]	/* 36 values pushed */
9 1 6 6 0 97 4 1 0 0 29 77 8 1 7 7 1 97 3 1 1 1 28 77 0 2 2 5 95 10 1 5 5 20 2 78 
EIF[ ]	/* EndIf */
NPUSHB[ ]	/* 22 values pushed */
0 0 39 38 34 33 32 31 27 26 0 25 0 25 24 17 17 24 17 11 7 27 
CALL[ ]	/* CallFunction */";
};
width = 803;
}
);
note = uni0444;
unicode = 1092;
},
{
glyphname = uni0446;
kernLeft = uni0432;
kernRight = uni0434;
layers = (
{
layerId = m01;
shapes = (
{
closed = 1;
nodes = (
(467,-142,l),
(621,-142,l),
(621,140,l),
(550,140,l),
(550,527,l),
(393,527,l),
(393,140,l),
(212,140,l),
(212,527,l),
(55,527,l),
(55,0,l),
(467,0,l)
);
}
);
userData = {
assembly = "NPUSHB[ ]	/* 38 values pushed */
0 4 1 4 84 2 1 0 0 22 77 3 1 1 1 5 96 6 1 5 5 21 5 78 0 0 0 11 0 11 17 17 17 17 17 7 7 27 
CALL[ ]	/* CallFunction */";
};
width = 630;
}
);
note = uni0446;
unicode = 1094;
},
{
glyphname = uni0447;
kernLeft = uni0432;
layers = (
{
layerId = m01;
shapes = (
{
closed = 1;
nodes = (
(31,326,o),
(55,246,o),
(82,218,qs),
(110,189,o),
(192,165,o),
(243,163,qs),
(270,163,o),
(315,166,o),
(347,170,q),
(347,0,l),
(505,0,l),
(505,527,l),
(347,527,l),
(347,311,l),
(332,309,o),
(291,305,o),
(271,305,qs),
(244,306,o),
(212,317,o),
(195,340,o),
(189,374,o),
(189,396,qs),
(189,527,l),
(31,527,l),
(31,386,ls)
);
}
);
userData = {
assembly = "NPUSHB[ ]	/* 38 values pushed */
10 1 1 0 15 1 4 1 2 76 0 1 0 4 3 1 4 105 2 1 0 0 22 77 0 3 3 21 3 78 50 17 19 37 16 5 7 27 
CALL[ ]	/* CallFunction */";
};
width = 560;
}
);
note = uni0447;
unicode = 1095;
},
{
glyphname = uni0448;
kernLeft = uni0432;
layers = (
{
layerId = m01;
shapes = (
{
closed = 1;
nodes = (
(804,527,l),
(646,527,l),
(646,140,l),
(508,140,l),
(508,527,l),
(350,527,l),
(350,140,l),
(212,140,l),
(212,527,l),
(55,527,l),
(55,0,l),
(804,0,l)
);
}
);
userData = {
assembly = "NPUSHB[ ]	/* 34 values pushed */
4 2 2 0 0 22 77 3 1 1 1 5 96 6 1 5 5 21 5 78 0 0 0 11 0 11 17 17 17 17 17 7 7 27 
CALL[ ]	/* CallFunction */";
};
width = 859;
}
);
note = uni0448;
unicode = 1096;
},
{
glyphname = uni0449;
kernLeft = uni0432;
kernRight = uni0434;
layers = (
{
layerId = m01;
shapes = (
{
closed = 1;
nodes = (
(720,-142,l),
(876,-142,l),
(876,140,l),
(805,140,l),
(805,527,l),
(647,527,l),
(647,140,l),
(509,140,l),
(509,527,l),
(351,527,l),
(351,140,l),
(212,140,l),
(212,527,l),
(55,527,l),
(55,0,l),
(720,0,l)
);
}
);
userData = {
assembly = "NPUSHB[ ]	/* 42 values pushed */
0 6 1 6 84 4 2 2 0 0 22 77 5 3 2 1 1 7 96 8 1 7 7 21 7 78 0 0 0 15 0 15 17 17 17 17 17 17 17 9 7 29 
CALL[ ]	/* CallFunction */";
};
width = 885;
}
);
note = uni0449;
unicode = 1097;
},
{
glyphname = uni044A;
layers = (
{
layerId = m01;
shapes = (
{
closed = 1;
nodes = (
(116,0,l),
(342,0,ls),
(384,0,o),
(471,17,o),
(541,62,o),
(587,138,o),
(587,198,qs),
(587,247,o),
(553,316,o),
(496,357,o),
(418,375,o),
(373,375,qs),
(274,375,l),
(274,527,l),
(1,527,l),
(1,387,l),
(116,387,l)
);
},
{
closed = 1;
nodes = (
(274,241,l),
(363,241,ls),
(391,241,o),
(429,218,o),
(429,192,qs),
(429,162,o),
(389,136,o),
(354,136,qs),
(274,136,l)
);
}
);
userData = {
assembly = "NPUSHB[ ]	/* 51 values pushed */
0 1 0 5 4 1 5 103 6 1 3 3 0 95 0 0 0 22 77 7 1 4 4 2 95 0 2 2 21 2 78 18 17 0 0 24 22 17 25 18 25 0 16 0 16 40 33 17 8 7 25 
CALL[ ]	/* CallFunction */";
};
width = 614;
}
);
note = uni044A;
unicode = 1098;
},
{
glyphname = uni044B;
kernLeft = uni0432;
layers = (
{
layerId = m01;
shapes = (
{
closed = 1;
nodes = (
(55,0,l),
(268,0,ls),
(307,0,o),
(392,17,o),
(462,62,o),
(507,137,o),
(507,196,qs),
(507,247,o),
(473,317,o),
(415,358,o),
(337,375,o),
(294,375,qs),
(212,375,l),
(212,527,l),
(55,527,l)
);
},
{
closed = 1;
nodes = (
(212,241,l),
(283,241,ls),
(309,241,o),
(349,219,o),
(349,192,qs),
(349,163,o),
(310,136,o),
(275,136,qs),
(212,136,l)
);
},
{
closed = 1;
nodes = (
(567,527,l),
(567,0,l),
(724,0,l),
(724,527,l)
);
}
);
userData = {
assembly = "NPUSHB[ ]	/* 51 values pushed */
0 0 0 4 3 0 4 103 6 7 2 2 2 22 77 8 1 3 3 1 96 5 1 1 1 21 1 78 16 15 0 0 27 26 25 24 22 20 15 23 16 23 0 14 0 14 40 33 9 7 24 
CALL[ ]	/* CallFunction */";
};
width = 779;
}
);
note = uni044B;
unicode = 1099;
},
{
glyphname = uni044C;
kernLeft = uni0432;
layers = (
{
layerId = m01;
shapes = (
{
closed = 1;
nodes = (
(55,0,l),
(294,0,ls),
(334,0,o),
(419,17,o),
(490,62,o),
(535,137,o),
(535,196,qs),
(535,245,o),
(503,314,o),
(445,357,o),
(368,375,o),
(322,375,qs),
(212,375,l),
(212,527,l),
(55,527,l)
);
},
{
closed = 1;
nodes = (
(212,241,l),
(310,241,ls),
(337,241,o),
(377,221,o),
(377,192,qs),
(377,163,o),
(335,136,o),
(303,136,qs),
(212,136,l)
);
}
);
userData = {
assembly = "NPUSHB[ ]	/* 45 values pushed */
0 0 0 4 3 0 4 103 5 1 2 2 22 77 6 1 3 3 1 96 0 1 1 21 1 78 16 15 0 0 22 20 15 23 16 23 0 14 0 14 40 33 7 7 24 
CALL[ ]	/* CallFunction */";
};
width = 567;
}
);
note = uni044C;
unicode = 1100;
},
{
glyphname = uni044E;
kernLeft = uni0432;
layers = (
{
layerId = m01;
shapes = (
{
closed = 1;
nodes = (
(597,372,o),
(623,335,o),
(635,288,o),
(635,263,qs),
(635,237,o),
(623,191,o),
(596,156,o),
(554,134,o),
(526,134,qs),
(497,134,o),
(456,156,o),
(428,190,o),
(415,236,o),
(415,263,qs),
(415,288,o),
(428,335,o),
(456,372,o),
(497,394,o),
(526,394,qs),
(556,394,o)
);
},
{
closed = 1;
nodes = (
(55,527,l),
(55,0,l),
(212,0,l),
(212,193,l),
(273,193,l),
(289,97,o),
(419,-8,o),
(526,-8,qs),
(653,-8,o),
(792,134,o),
(792,265,qs),
(792,328,o),
(754,430,o),
(685,501,o),
(587,538,o),
(526,538,qs),
(420,538,o),
(290,427,o),
(273,334,q),
(212,334,l),
(212,527,l)
);
}
);
userData = {
assembly = "MPPEM[ ]	/* MeasurePixelPerEm */
PUSHB[ ]	/* 1 value pushed */
22 
LT[ ]	/* LessThan */
IF[ ]	/* If */
NPUSHB[ ]	/* 32 values pushed */
0 2 0 5 1 2 5 103 8 1 0 0 3 97 7 1 3 3 29 77 0 1 1 4 97 6 1 4 4 30 4 78 
ELSE[ ]	/* Else */
MPPEM[ ]	/* MeasurePixelPerEm */
PUSHB[ ]	/* 1 value pushed */
29 
LT[ ]	/* LessThan */
IF[ ]	/* If */
NPUSHB[ ]	/* 36 values pushed */
0 2 0 5 1 2 5 103 0 7 7 22 77 8 1 0 0 3 97 0 3 3 29 77 0 1 1 4 97 6 1 4 4 30 4 78 
ELSE[ ]	/* Else */
NPUSHB[ ]	/* 40 values pushed */
0 2 0 5 1 2 5 103 0 7 7 22 77 8 1 0 0 3 97 0 3 3 29 77 0 6 6 21 77 0 1 1 4 97 0 4 4 30 4 78 
EIF[ ]	/* EndIf */
EIF[ ]	/* EndIf */
NPUSHB[ ]	/* 23 values pushed */
1 0 40 39 38 37 36 35 33 31 25 23 21 20 11 9 0 19 1 19 9 7 22 
CALL[ ]	/* CallFunction */";
};
width = 822;
}
);
note = uni044E;
unicode = 1102;
},
{
glyphname = uni044F;
kernLeft = uni0432;
layers = (
{
layerId = m01;
shapes = (
{
closed = 1;
nodes = (
(231,527,o),
(152,510,o),
(89,469,o),
(52,400,o),
(52,347,qs),
(52,290,o),
(115,205,o),
(167,188,q),
(21,0,l),
(210,0,l),
(319,159,l),
(379,159,l),
(379,0,l),
(536,0,l),
(536,527,l),
(273,527,ls)
);
},
{
closed = 1;
nodes = (
(274,288,o),
(246,293,o),
(225,305,o),
(211,326,o),
(211,342,qs),
(211,368,o),
(245,394,o),
(275,394,qs),
(379,394,l),
(379,288,l),
(287,288,ls)
);
}
);
userData = {
assembly = "NPUSHB[ ]	/* 53 values pushed */
7 1 1 5 1 76 7 1 5 0 1 0 5 1 103 0 4 4 3 95 6 1 3 3 22 77 2 1 0 0 21 0 78 16 16 0 0 16 26 16 25 19 17 0 15 0 14 17 17 17 8 7 25 
CALL[ ]	/* CallFunction */";
};
width = 591;
}
);
note = uni044F;
unicode = 1103;
},
{
glyphname = u_alt;
layers = (
{
layerId = m01;
shapes = (
{
closed = 1;
nodes = (
(563,0,l),
(563,527,l),
(405,527,l),
(405,267,ls),
(405,250,o),
(399,198,o),
(386,178,qs),
(375,161,o),
(334,135,o),
(304,134,qs),
(274,133,o),
(235,155,o),
(214,189,o),
(207,232,o),
(207,254,qs),
(207,527,l),
(49,527,l),
(49,235,ls),
(49,186,o),
(67,98,o),
(113,31,o),
(192,-8,o),
(251,-8,qs),
(296,-8,o),
(383,20,o),
(414,64,q),
(419,0,l)
);
}
);
userData = {
assembly = "MPPEM[ ]	/* MeasurePixelPerEm */
PUSHB[ ]	/* 1 value pushed */
29 
LT[ ]	/* LessThan */
IF[ ]	/* If */
NPUSHB[ ]	/* 18 values pushed */
3 1 1 1 22 77 0 2 2 0 98 4 1 0 0 30 0 78 
ELSE[ ]	/* Else */
NPUSHB[ ]	/* 22 values pushed */
3 1 1 1 22 77 0 4 4 21 77 0 2 2 0 98 0 0 0 30 0 78 
EIF[ ]	/* EndIf */
PUSHB[ ]	/* 8 values pushed */
17 22 37 21 34 5 7 27 
CALL[ ]	/* CallFunction */";
};
width = 617;
}
);
note = u_alt;
},
{
glyphname = uni0410;
kernLeft = A;
kernRight = A;
layers = (
{
layerId = m01;
shapes = (
{
closed = 1;
nodes = (
(389,463,o),
(436,330,o),
(459,263,q),
(269,263,l),
(365,530,l)
);
},
{
closed = 1;
nodes = (
(551,0,l),
(728,0,l),
(453,708,l),
(279,708,l),
(0,0,l),
(176,0,l),
(219,117,l),
(509,117,l)
);
}
);
userData = {
assembly = "NPUSHB[ ]	/* 40 values pushed */
4 1 0 2 1 76 0 0 5 1 4 1 0 4 104 0 2 2 20 77 3 1 1 1 21 1 78 5 5 5 12 5 12 17 17 21 16 6 7 26 
CALL[ ]	/* CallFunction */";
};
width = 730;
}
);
note = uni0410;
unicode = 1040;
},
{
glyphname = uni0415;
layers = (
{
layerId = m01;
shapes = (
{
closed = 1;
nodes = (
(74,0,l),
(594,0,l),
(594,147,l),
(237,147,l),
(237,278,l),
(540,278,l),
(540,423,l),
(237,423,l),
(237,559,l),
(594,559,l),
(594,708,l),
(74,708,l)
);
}
);
userData = {
assembly = "NPUSHB[ ]	/* 44 values pushed */
0 1 0 2 3 1 2 103 0 0 0 5 95 6 1 5 5 20 77 0 3 3 4 95 0 4 4 21 4 78 0 0 0 11 0 11 17 17 17 17 17 7 7 27 
CALL[ ]	/* CallFunction */";
};
width = 629;
}
);
note = uni0415;
unicode = 1045;
},
{
glyphname = uni041C;
layers = (
{
layerId = m01;
shapes = (
{
closed = 1;
nodes = (
(74,0,l),
(237,0,l),
(237,470,l),
(424,161,l),
(492,161,l),
(677,470,l),
(677,0,l),
(840,0,l),
(840,708,l),
(651,708,l),
(461,386,l),
(269,708,l),
(74,708,l)
);
}
);
userData = {
assembly = "NPUSHB[ ]	/* 43 values pushed */
9 6 1 3 2 0 1 76 0 2 0 1 0 2 1 128 5 4 2 0 0 20 77 3 1 1 1 21 1 78 0 0 0 12 0 12 18 18 17 18 6 7 26 
CALL[ ]	/* CallFunction */";
};
width = 914;
}
);
note = uni041C;
unicode = 1052;
},
{
glyphname = uni041D;
layers = (
{
layerId = m01;
shapes = (
{
closed = 1;
nodes = (
(74,708,l),
(74,0,l),
(237,0,l),
(237,276,l),
(515,276,l),
(515,0,l),
(678,0,l),
(678,708,l),
(515,708,l),
(515,423,l),
(237,423,l),
(237,708,l)
);
}
);
userData = {
assembly = "NPUSHB[ ]	/* 30 values pushed */
0 0 0 3 2 0 3 103 5 1 1 1 20 77 4 1 2 2 21 2 78 17 17 17 17 17 16 6 7 28 
CALL[ ]	/* CallFunction */";
};
width = 752;
}
);
note = uni041D;
unicode = 1053;
},
{
glyphname = uni0420;
layers = (
{
layerId = m01;
shapes = (
{
closed = 1;
nodes = (
(74,0,l),
(237,0,l),
(237,204,l),
(360,204,ls),
(419,204,o),
(521,236,o),
(596,301,o),
(638,397,o),
(638,462,qs),
(638,530,o),
(597,624,o),
(523,682,o),
(420,708,o),
(358,708,qs),
(74,708,l)
);
},
{
closed = 1;
nodes = (
(237,559,l),
(355,559,ls),
(416,559,o),
(478,510,o),
(478,453,qs),
(476,402,o),
(409,348,o),
(356,348,qs),
(237,348,l)
);
}
);
userData = {
assembly = "NPUSHB[ ]	/* 47 values pushed */
6 1 3 0 1 2 3 1 103 0 4 4 0 95 5 1 0 0 20 77 0 2 2 21 2 78 16 15 1 0 22 20 15 23 16 23 13 12 11 9 0 14 1 14 7 7 22 
CALL[ ]	/* CallFunction */";
};
width = 669;
}
);
note = uni0420;
unicode = 1056;
},
{
glyphname = uni0422;
kernLeft = uni0422;
kernRight = uni0422;
layers = (
{
layerId = m01;
shapes = (
{
closed = 1;
nodes = (
(221,0,l),
(384,0,l),
(384,559,l),
(601,559,l),
(601,708,l),
(5,708,l),
(5,559,l),
(221,559,l)
);
}
);
userData = {
assembly = "NPUSHB[ ]	/* 30 values pushed */
4 3 2 1 1 0 95 0 0 0 20 77 0 2 2 21 2 78 0 0 0 7 0 7 17 17 17 5 7 25 
CALL[ ]	/* CallFunction */";
};
width = 606;
}
);
note = uni0422;
unicode = 1058;
},
{
glyphname = uni0425;
layers = (
{
layerId = m01;
shapes = (
{
closed = 1;
nodes = (
(202,708,l),
(9,708,l),
(249,355,l),
(1,0,l),
(185,0,l),
(345,234,l),
(499,0,l),
(692,0,l),
(447,354,l),
(686,708,l),
(496,708,l),
(350,473,l)
);
}
);
userData = {
assembly = "NPUSHB[ ]	/* 29 values pushed */
11 8 5 2 4 1 0 1 76 3 1 0 0 20 77 2 1 1 1 21 1 78 18 18 18 16 4 7 26 
CALL[ ]	/* CallFunction */";
};
width = 693;
}
);
note = uni0425;
unicode = 1061;
},
{
glyphname = T;
kernLeft = uni0422;
kernRight = uni0422;
layers = (
{
layerId = m01;
shapes = (
{
closed = 1;
nodes = (
(221,0,l),
(384,0,l),
(384,559,l),
(600,559,l),
(600,708,l),
(5,708,l),
(5,559,l),
(221,559,l)
);
}
);
userData = {
assembly = "NPUSHB[ ]	/* 30 values pushed */
4 3 2 1 1 0 95 0 0 0 38 77 0 2 2 39 2 78 0 0 0 7 0 7 17 17 17 5 8 25 
CALL[ ]	/* CallFunction */";
};
width = 605;
}
);
note = T;
unicode = 84;
},
{
glyphname = uni0412;
layers = (
{
layerId = m01;
shapes = (
{
closed = 1;
nodes = (
(410,0,o),
(516,19,o),
(601,67,o),
(656,151,o),
(656,217,qs),
(656,278,o),
(603,365,o),
(551,385,q),
(589,408,o),
(624,481,o),
(624,525,qs),
(624,576,o),
(588,646,o),
(528,689,o),
(449,708,o),
(406,708,qs),
(73,708,l),
(73,0,l),
(358,0,ls)
);
},
{
closed = 1;
nodes = (
(236,560,l),
(366,560,ls),
(385,560,o),
(420,556,o),
(447,543,o),
(464,518,o),
(464,498,qs),
(464,458,o),
(401,427,o),
(351,427,qs),
(236,427,l)
);
},
{
closed = 1;
nodes = (
(377,292,ls),
(400,292,o),
(442,288,o),
(474,274,o),
(493,247,o),
(493,225,qs),
(493,200,o),
(472,169,o),
(436,153,o),
(387,147,o),
(359,147,qs),
(236,147,l),
(236,292,l)
);
}
);
userData = {
assembly = "NPUSHB[ ]	/* 59 values pushed */
10 1 5 2 1 76 7 1 2 0 5 4 2 5 103 0 3 3 0 95 0 0 0 20 77 0 4 4 1 95 6 1 1 1 21 1 78 20 19 0 0 42 40 32 30 28 26 19 29 20 29 0 18 0 17 33 8 7 23 
CALL[ ]	/* CallFunction */";
};
width = 692;
}
);
note = uni0412;
unicode = 1042;
},
{
glyphname = uni041F;
layers = (
{
layerId = m01;
shapes = (
{
closed = 1;
nodes = (
(74,0,l),
(237,0,l),
(237,560,l),
(511,560,l),
(511,0,l),
(674,0,l),
(674,708,l),
(74,708,l)
);
}
);
userData = {
assembly = "NPUSHB[ ]	/* 30 values pushed */
0 1 1 3 95 4 1 3 3 20 77 2 1 0 0 21 0 78 0 0 0 7 0 7 17 17 17 5 7 25 
CALL[ ]	/* CallFunction */";
};
width = 748;
}
);
note = uni041F;
unicode = 1055;
},
{
glyphname = uni0413;
kernRight = uni0413;
layers = (
{
layerId = m01;
shapes = (
{
closed = 1;
nodes = (
(237,559,l),
(575,559,l),
(575,708,l),
(74,708,l),
(74,0,l),
(237,0,l)
);
}
);
userData = {
assembly = "NPUSHB[ ]	/* 28 values pushed */
0 1 1 0 95 0 0 0 20 77 3 1 2 2 21 2 78 0 0 0 5 0 5 17 17 4 7 24 
CALL[ ]	/* CallFunction */";
};
width = 595;
}
);
note = uni0413;
unicode = 1043;
},
{
glyphname = uni041B;
layers = (
{
layerId = m01;
shapes = (
{
closed = 1;
nodes = (
(465,0,l),
(628,0,l),
(628,708,l),
(118,708,l),
(117,655,o),
(117,558,o),
(116,457,o),
(113,348,o),
(109,283,qs),
(107,257,o),
(96,208,o),
(74,171,o),
(35,148,o),
(1,148,q),
(1,-1,l),
(30,-1,ls),
(98,-1,o),
(196,40,o),
(223,88,qs),
(240,118,o),
(258,193,o),
(267,273,o),
(269,354,o),
(269,390,qs),
(270,559,l),
(465,559,l)
);
}
);
userData = {
assembly = "NPUSHB[ ]	/* 42 values pushed */
16 1 1 4 1 76 5 1 4 4 2 95 0 2 2 20 77 0 1 1 0 97 3 1 0 0 21 0 78 0 0 0 25 0 25 17 25 17 40 6 7 26 
CALL[ ]	/* CallFunction */";
};
width = 702;
}
);
note = uni041B;
unicode = 1051;
},
{
glyphname = uni0414;
kernRight = uni0414;
layers = (
{
layerId = m01;
shapes = (
{
closed = 1;
nodes = (
(254,163,o),
(267,216,o),
(276,275,o),
(280,332,o),
(280,352,qs),
(282,392,o),
(283,485,o),
(284,559,q),
(491,559,l),
(491,147,l),
(245,147,l)
);
},
{
closed = 1;
nodes = (
(654,147,l),
(654,708,l),
(133,708,l),
(133,682,o),
(132,594,o),
(129,492,o),
(124,384,o),
(121,338,qs),
(119,307,o),
(110,242,o),
(87,188,o),
(45,150,o),
(9,147,q),
(9,-173,l),
(168,-173,l),
(168,0,l),
(580,0,l),
(580,-173,l),
(740,-173,l),
(740,147,l)
);
}
);
userData = {
assembly = "NPUSHB[ ]	/* 54 values pushed */
17 1 1 1 75 4 1 2 1 2 83 0 0 0 5 95 0 5 5 20 77 6 7 2 1 1 3 95 0 3 3 21 3 78 0 0 30 29 28 27 16 15 14 13 12 11 0 10 0 10 17 8 7 23 
CALL[ ]	/* CallFunction */";
};
width = 749;
}
);
note = uni0414;
unicode = 1044;
},
{
glyphname = uni0411;
layers = (
{
layerId = m01;
shapes = (
{
closed = 1;
nodes = (
(406,1,o),
(511,21,o),
(595,72,o),
(649,161,o),
(650,231,qs),
(650,292,o),
(612,373,o),
(544,422,o),
(450,442,o),
(394,442,qs),
(237,442,l),
(237,559,l),
(604,559,l),
(604,708,l),
(74,708,l),
(74,0,l),
(355,0,ls)
);
},
{
closed = 1;
nodes = (
(367,300,ls),
(390,300,o),
(434,296,o),
(468,281,o),
(489,253,o),
(489,228,qs),
(489,201,o),
(466,168,o),
(428,152,o),
(382,147,o),
(359,147,qs),
(237,147,l),
(237,300,l)
);
}
);
userData = {
assembly = "NPUSHB[ ]	/* 46 values pushed */
0 2 0 5 4 2 5 103 0 1 1 0 95 0 0 0 20 77 0 4 4 3 95 6 1 3 3 21 3 78 0 0 29 27 19 17 0 16 0 15 33 17 17 7 7 25 
CALL[ ]	/* CallFunction */";
};
width = 692;
}
);
note = uni0411;
unicode = 1041;
},
{
glyphname = uni0416;
layers = (
{
layerId = m01;
shapes = (
{
closed = 1;
nodes = (
(809,0,l),
(998,0,l),
(794,369,l),
(997,708,l),
(812,708,l),
(657,425,l),
(581,425,l),
(581,708,l),
(418,708,l),
(418,425,l),
(341,425,l),
(188,708,l),
(2,708,l),
(205,369,l),
(1,0,l),
(189,0,l),
(334,279,l),
(418,279,l),
(418,0,l),
(581,0,l),
(581,279,l),
(665,279,l)
);
}
);
userData = {
assembly = "NPUSHB[ ]	/* 51 values pushed */
18 7 2 1 4 1 76 6 1 4 10 9 2 1 0 4 1 103 7 5 2 3 3 20 77 8 2 2 0 0 21 0 78 0 0 0 21 0 21 18 17 17 17 17 18 17 17 17 11 7 31 
CALL[ ]	/* CallFunction */";
};
width = 999;
}
);
note = uni0416;
unicode = 1046;
},
{
glyphname = uni0417;
kernLeft = uni0417;
layers = (
{
layerId = m01;
shapes = (
{
closed = 1;
nodes = (
(36,165,o),
(90,73,o),
(174,17,o),
(284,-7,o),
(345,-7,qs),
(394,-7,o),
(497,13,o),
(583,65,o),
(638,154,o),
(638,223,qs),
(638,277,o),
(591,363,o),
(537,383,q),
(612,434,o),
(612,525,qs),
(612,582,o),
(560,656,o),
(480,699,o),
(383,716,o),
(338,716,qs),
(281,716,o),
(177,692,o),
(97,638,o),
(48,552,o),
(46,489,q),
(202,489,l),
(207,531,o),
(279,568,o),
(333,568,qs),
(352,568,o),
(394,562,o),
(428,547,o),
(450,521,o),
(451,500,qs),
(451,479,o),
(432,450,o),
(401,434,o),
(360,427,o),
(337,427,qs),
(255,427,l),
(255,294,l),
(367,294,ls),
(387,294,o),
(426,289,o),
(457,274,o),
(476,247,o),
(476,225,qs),
(476,201,o),
(453,169,o),
(417,151,o),
(372,144,o),
(349,144,qs),
(323,144,o),
(270,151,o),
(225,170,o),
(192,204,o),
(186,232,q),
(31,232,l)
);
}
);
userData = {
assembly = "NPUSHB[ ]	/* 68 values pushed */
44 1 1 2 1 76 0 4 3 2 3 4 2 128 8 1 7 1 0 1 7 0 128 0 2 0 1 7 2 1 103 0 3 3 5 97 0 5 5 27 77 0 0 0 6 97 0 6 6 28 6 78 0 0 0 57 0 57 45 36 18 40 33 40 36 9 7 29 
CALL[ ]	/* CallFunction */";
};
width = 674;
}
);
note = uni0417;
unicode = 1047;
},
{
glyphname = uni0418;
layers = (
{
layerId = m01;
shapes = (
{
closed = 1;
nodes = (
(74,708,l),
(74,0,l),
(204,0,l),
(533,421,l),
(533,0,l),
(696,0,l),
(696,708,l),
(566,708,l),
(237,281,l),
(237,708,l)
);
}
);
userData = {
assembly = "NPUSHB[ ]	/* 27 values pushed */
5 0 2 1 0 1 76 3 1 0 0 20 77 2 1 1 1 21 1 78 17 18 17 17 4 7 26 
CALL[ ]	/* CallFunction */";
};
width = 770;
}
);
note = uni0418;
unicode = 1048;
},
{
glyphname = uni0419;
layers = (
{
layerId = m01;
shapes = (
{
closed = 1;
nodes = (
(584,828,o),
(592,916,q),
(459,916,l),
(456,887,o),
(420,857,o),
(392,857,qs),
(365,857,o),
(328,887,o),
(324,916,q),
(192,916,l),
(199,828,o),
(307,745,o),
(392,745,qs),
(476,745,o)
);
},
{
closed = 1;
nodes = (
(74,708,l),
(74,0,l),
(204,0,l),
(533,421,l),
(533,0,l),
(696,0,l),
(696,708,l),
(566,708,l),
(237,281,l),
(237,708,l)
);
}
);
userData = {
assembly = "PUSHB[ ]	/* 7 values pushed */
19 14 2 5 4 1 76 
MPPEM[ ]	/* MeasurePixelPerEm */
PUSHB[ ]	/* 1 value pushed */
22 
LT[ ]	/* LessThan */
IF[ ]	/* If */
NPUSHB[ ]	/* 29 values pushed */
3 1 1 2 2 1 112 0 2 8 1 0 4 2 0 106 7 1 4 4 20 77 6 1 5 5 21 5 78 
ELSE[ ]	/* Else */
NPUSHB[ ]	/* 28 values pushed */
3 1 1 2 1 133 0 2 8 1 0 4 2 0 106 7 1 4 4 20 77 6 1 5 5 21 5 78 
EIF[ ]	/* EndIf */
NPUSHB[ ]	/* 23 values pushed */
1 0 23 22 21 20 18 17 16 15 11 10 8 6 4 3 0 13 1 13 9 7 22 
CALL[ ]	/* CallFunction */";
};
width = 770;
}
);
note = uni0419;
unicode = 1049;
},
{
glyphname = uni041A;
layers = (
{
layerId = m01;
shapes = (
{
closed = 1;
nodes = (
(501,0,l),
(691,0,l),
(460,370,l),
(690,708,l),
(503,708,l),
(324,426,l),
(237,426,l),
(237,708,l),
(74,708,l),
(74,0,l),
(237,0,l),
(237,278,l),
(333,278,l)
);
}
);
userData = {
assembly = "NPUSHB[ ]	/* 42 values pushed */
9 1 5 2 1 76 0 2 6 1 5 0 2 5 103 3 1 1 1 20 77 4 1 0 0 21 0 78 0 0 0 12 0 12 18 17 17 17 17 7 7 27 
CALL[ ]	/* CallFunction */";
};
width = 692;
}
);
note = uni041A;
unicode = 1050;
},
{
glyphname = uni0423;
layers = (
{
layerId = m01;
shapes = (
{
closed = 1;
nodes = (
(206,708,l),
(17,708,l),
(272,217,l),
(260,195,o),
(231,169,o),
(198,155,o),
(161,150,o),
(142,150,qs),
(114,150,l),
(114,0,l),
(158,0,ls),
(233,0,o),
(332,42,o),
(399,115,o),
(446,212,o),
(470,266,qs),
(518,377,o),
(612,596,o),
(660,708,q),
(482,708,l),
(357,378,l)
);
}
);
userData = {
assembly = "NPUSHB[ ]	/* 31 values pushed */
20 17 2 2 0 1 76 3 1 0 0 20 77 0 2 2 1 98 0 1 1 21 1 78 21 33 39 16 4 7 26 
CALL[ ]	/* CallFunction */";
};
width = 655;
}
);
note = uni0423;
unicode = 1059;
},
{
glyphname = uni0424;
kernLeft = uni0417;
layers = (
{
layerId = m01;
shapes = (
{
closed = 1;
nodes = (
(270,639,o),
(158,605,o),
(79,537,o),
(36,433,o),
(35,363,qs),
(35,290,o),
(83,187,o),
(168,122,o),
(288,92,o),
(360,92,q),
(360,-17,l),
(523,-17,l),
(523,92,l),
(598,92,o),
(719,122,o),
(803,188,o),
(848,292,o),
(849,367,qs),
(849,439,o),
(800,542,o),
(713,608,o),
(594,639,o),
(523,639,q),
(523,737,l),
(360,737,l),
(360,639,l),
(339,639,ls)
);
},
{
closed = 1;
nodes = (
(614,500,o),
(690,426,o),
(690,365,qs),
(690,294,o),
(608,231,o),
(523,231,q),
(523,500,l),
(542,500,ls)
);
},
{
closed = 1;
nodes = (
(269,231,o),
(193,303,o),
(193,366,qs),
(193,405,o),
(217,457,o),
(261,487,o),
(323,500,o),
(360,500,q),
(360,231,l),
(341,231,ls)
);
}
);
userData = {
assembly = "MPPEM[ ]	/* MeasurePixelPerEm */
PUSHB[ ]	/* 1 value pushed */
29 
LT[ ]	/* LessThan */
IF[ ]	/* If */
NPUSHB[ ]	/* 34 values pushed */
10 5 2 1 8 11 2 7 6 1 7 105 12 9 2 6 4 1 2 3 6 2 105 0 0 0 3 95 0 3 3 21 3 78 
ELSE[ ]	/* Else */
NPUSHB[ ]	/* 39 values pushed */
0 0 1 3 0 87 10 5 2 1 8 11 2 7 6 1 7 105 12 9 2 6 4 1 2 3 6 2 105 0 0 0 3 95 0 3 0 3 79 
EIF[ ]	/* EndIf */
NPUSHB[ ]	/* 30 values pushed */
35 35 27 27 0 0 35 44 35 43 37 36 27 34 27 33 29 28 0 26 0 25 17 17 24 17 17 13 7 27 
CALL[ ]	/* CallFunction */";
};
width = 884;
}
);
note = uni0424;
unicode = 1060;
},
{
glyphname = uni0426;
kernRight = uni0414;
layers = (
{
layerId = m01;
shapes = (
{
closed = 1;
nodes = (
(237,708,l),
(74,708,l),
(74,0,l),
(583,0,l),
(583,-174,l),
(746,-174,l),
(746,147,l),
(662,147,l),
(662,708,l),
(499,708,l),
(499,147,l),
(237,147,l)
);
}
);
userData = {
assembly = "NPUSHB[ ]	/* 38 values pushed */
0 2 1 2 84 4 1 0 0 20 77 6 5 2 1 1 3 96 0 3 3 21 3 78 0 0 0 11 0 11 17 17 17 17 17 7 7 27 
CALL[ ]	/* CallFunction */";
};
width = 752;
}
);
note = uni0426;
unicode = 1062;
},
{
glyphname = uni0427;
layers = (
{
layerId = m01;
shapes = (
{
closed = 1;
nodes = (
(51,408,o),
(86,309,o),
(126,277,qs),
(163,248,o),
(260,224,o),
(314,223,qs),
(351,222,o),
(427,227,o),
(466,233,q),
(466,0,l),
(629,0,l),
(629,708,l),
(466,708,l),
(466,385,l),
(434,379,o),
(378,374,o),
(348,374,qs),
(313,374,o),
(262,384,o),
(229,410,o),
(214,454,o),
(214,488,qs),
(214,708,l),
(51,708,l),
(51,474,ls)
);
}
);
userData = {
assembly = "NPUSHB[ ]	/* 38 values pushed */
10 1 1 0 15 1 4 1 2 76 0 1 0 4 3 1 4 105 2 1 0 0 20 77 0 3 3 21 3 78 50 17 19 37 16 5 7 27 
CALL[ ]	/* CallFunction */";
};
width = 703;
}
);
note = uni0427;
unicode = 1063;
},
{
glyphname = uni0428;
layers = (
{
layerId = m01;
shapes = (
{
closed = 1;
nodes = (
(945,708,l),
(782,708,l),
(782,147,l),
(591,147,l),
(591,708,l),
(428,708,l),
(428,147,l),
(237,147,l),
(237,708,l),
(74,708,l),
(74,0,l),
(945,0,l)
);
}
);
userData = {
assembly = "NPUSHB[ ]	/* 34 values pushed */
4 2 2 0 0 20 77 3 1 1 1 5 96 6 1 5 5 21 5 78 0 0 0 11 0 11 17 17 17 17 17 7 7 27 
CALL[ ]	/* CallFunction */";
};
width = 1019;
}
);
note = uni0428;
unicode = 1064;
},
{
glyphname = uni0429;
kernRight = uni0414;
layers = (
{
layerId = m01;
shapes = (
{
closed = 1;
nodes = (
(865,-174,l),
(1028,-174,l),
(1028,147,l),
(944,147,l),
(944,708,l),
(781,708,l),
(781,147,l),
(591,147,l),
(591,708,l),
(428,708,l),
(428,147,l),
(237,147,l),
(237,708,l),
(74,708,l),
(74,0,l),
(865,0,l)
);
}
);
userData = {
assembly = "NPUSHB[ ]	/* 42 values pushed */
0 6 1 6 84 4 2 2 0 0 20 77 5 3 2 1 1 7 96 8 1 7 7 21 7 78 0 0 0 15 0 15 17 17 17 17 17 17 17 9 7 29 
CALL[ ]	/* CallFunction */";
};
width = 1034;
}
);
note = uni0429;
unicode = 1065;
},
{
glyphname = uni042A;
layers = (
{
layerId = m01;
shapes = (
{
closed = 1;
nodes = (
(499,0,o),
(604,22,o),
(685,76,o),
(734,167,o),
(734,236,qs),
(734,300,o),
(692,386,o),
(620,438,o),
(526,459,o),
(474,459,qs),
(322,459,l),
(322,708,l),
(1,708,l),
(1,559,l),
(159,559,l),
(159,0,l),
(444,0,ls)
);
},
{
closed = 1;
nodes = (
(463,315,ls),
(511,315,o),
(575,282,o),
(575,237,qs),
(575,208,o),
(552,172,o),
(515,153,o),
(465,147,o),
(438,147,qs),
(322,147,l),
(322,315,l)
);
}
);
userData = {
assembly = "NPUSHB[ ]	/* 46 values pushed */
0 2 0 5 4 2 5 103 0 0 0 1 95 0 1 1 20 77 0 4 4 3 95 6 1 3 3 21 3 78 0 0 27 25 19 17 0 16 0 15 33 17 17 7 7 25 
CALL[ ]	/* CallFunction */";
};
width = 771;
}
);
note = uni042A;
unicode = 1066;
},
{
glyphname = uni042B;
layers = (
{
layerId = m01;
shapes = (
{
closed = 1;
nodes = (
(373,0,o),
(480,22,o),
(562,76,o),
(611,167,o),
(613,236,qs),
(613,299,o),
(571,384,o),
(499,436,o),
(404,459,o),
(351,459,qs),
(237,459,l),
(237,708,l),
(74,708,l),
(74,0,l),
(315,0,ls)
);
},
{
closed = 1;
nodes = (
(330,315,ls),
(354,315,o),
(398,309,o),
(433,293,o),
(453,262,o),
(453,237,qs),
(453,209,o),
(431,174,o),
(394,154,o),
(345,147,o),
(318,147,qs),
(237,147,l),
(237,315,l)
);
},
{
closed = 1;
nodes = (
(862,0,l),
(862,708,l),
(699,708,l),
(699,0,l)
);
}
);
userData = {
assembly = "NPUSHB[ ]	/* 46 values pushed */
0 1 0 4 3 1 4 103 5 1 0 0 20 77 0 3 3 2 96 6 7 2 2 2 21 2 78 0 0 31 30 29 28 27 25 17 15 0 14 0 13 33 17 8 7 24 
CALL[ ]	/* CallFunction */";
};
width = 936;
}
);
note = uni042B;
unicode = 1067;
},
{
glyphname = uni042C;
layers = (
{
layerId = m01;
shapes = (
{
closed = 1;
nodes = (
(404,0,o),
(512,22,o),
(596,76,o),
(647,167,o),
(647,236,qs),
(647,298,o),
(609,383,o),
(540,436,o),
(444,459,o),
(386,459,qs),
(236,459,l),
(236,708,l),
(73,708,l),
(73,0,l),
(346,0,ls)
);
},
{
closed = 1;
nodes = (
(371,315,ls),
(395,315,o),
(437,308,o),
(468,291,o),
(487,261,o),
(487,237,qs),
(487,208,o),
(466,173,o),
(428,154,o),
(380,147,o),
(353,147,qs),
(236,147,l),
(236,315,l)
);
}
);
userData = {
assembly = "NPUSHB[ ]	/* 40 values pushed */
0 1 0 4 3 1 4 103 0 0 0 20 77 0 3 3 2 96 5 1 2 2 21 2 78 0 0 27 25 17 15 0 14 0 13 33 17 6 7 24 
CALL[ ]	/* CallFunction */";
};
width = 684;
}
);
note = uni042C;
unicode = 1068;
},
{
glyphname = uni042D;
kernLeft = uni0417;
layers = (
{
layerId = m01;
shapes = (
{
closed = 1;
nodes = (
(257,283,l),
(519,283,l),
(515,220,o),
(431,145,o),
(357,143,qs),
(335,143,o),
(284,152,o),
(237,175,o),
(200,214,o),
(192,244,q),
(35,244,l),
(42,178,o),
(101,83,o),
(189,22,o),
(297,-7,o),
(353,-7,qs),
(435,-7,o),
(561,46,o),
(646,142,o),
(690,275,o),
(690,355,qs),
(690,432,o),
(650,565,o),
(567,662,o),
(442,717,o),
(358,717,qs),
(299,717,o),
(190,685,o),
(103,621,o),
(46,527,o),
(39,464,q),
(197,464,l),
(209,512,o),
(291,568,o),
(357,568,qs),
(397,568,o),
(456,545,o),
(495,505,o),
(516,453,o),
(518,425,q),
(257,425,l)
);
}
);
userData = {
assembly = "NPUSHB[ ]	/* 62 values pushed */
0 1 0 7 0 1 7 128 0 4 6 5 6 4 5 128 8 1 7 0 6 4 7 6 103 0 0 0 2 97 0 2 2 27 77 0 5 5 3 97 0 3 3 28 3 78 0 0 0 40 0 40 18 36 20 40 36 18 36 9 7 29 
CALL[ ]	/* CallFunction */";
};
width = 725;
}
);
note = uni042D;
unicode = 1069;
},
{
glyphname = uni042E;
layers = (
{
layerId = m01;
shapes = (
{
closed = 1;
nodes = (
(491,468,o),
(533,529,o),
(601,567,o),
(650,567,qs),
(699,567,o),
(768,530,o),
(810,470,o),
(829,394,o),
(829,355,qs),
(829,316,o),
(809,239,o),
(766,179,o),
(698,142,o),
(650,142,qs),
(602,142,o),
(534,179,o),
(492,239,o),
(473,316,o),
(473,356,qs),
(473,393,o)
);
},
{
closed = 1;
nodes = (
(74,708,l),
(74,0,l),
(237,0,l),
(237,277,l),
(319,277,l),
(327,214,o),
(379,109,o),
(463,34,o),
(579,-7,o),
(650,-7,qs),
(732,-8,o),
(861,46,o),
(950,142,o),
(996,277,o),
(996,357,qs),
(996,438,o),
(949,571,o),
(860,665,o),
(731,716,o),
(649,716,qs),
(580,716,o),
(464,673,o),
(378,595,o),
(324,487,o),
(317,422,q),
(237,422,l),
(237,708,l)
);
}
);
userData = {
assembly = "MPPEM[ ]	/* MeasurePixelPerEm */
PUSHB[ ]	/* 1 value pushed */
29 
LT[ ]	/* LessThan */
IF[ ]	/* If */
NPUSHB[ ]	/* 31 values pushed */
0 2 0 5 0 2 5 103 0 1 1 3 97 7 1 3 3 27 77 0 0 0 4 97 6 1 4 4 30 4 78 
ELSE[ ]	/* Else */
NPUSHB[ ]	/* 39 values pushed */
0 2 0 5 0 2 5 103 0 7 7 20 77 0 1 1 3 97 0 3 3 27 77 0 6 6 21 77 0 0 0 4 97 0 4 4 30 4 78 
EIF[ ]	/* EndIf */
NPUSHB[ ]	/* 11 values pushed */
17 17 20 40 36 20 40 36 8 7 30 
CALL[ ]	/* CallFunction */";
};
width = 1031;
}
);
note = uni042E;
unicode = 1070;
},
{
glyphname = uni042F;
layers = (
{
layerId = m01;
shapes = (
{
closed = 1;
nodes = (
(304,708,o),
(198,686,o),
(118,632,o),
(70,540,o),
(70,470,qs),
(70,387,o),
(151,277,o),
(234,254,q),
(42,0,l),
(235,0,l),
(397,232,l),
(481,232,l),
(481,0,l),
(644,0,l),
(644,708,l),
(363,708,ls)
);
},
{
closed = 1;
nodes = (
(342,375,o),
(294,383,o),
(255,404,o),
(230,439,o),
(230,466,qs),
(230,491,o),
(246,525,o),
(276,547,o),
(315,558,o),
(338,559,qs),
(481,559,l),
(481,375,l),
(367,375,ls)
);
}
);
userData = {
assembly = "NPUSHB[ ]	/* 53 values pushed */
7 1 1 5 1 76 7 1 5 0 1 0 5 1 103 0 4 4 3 95 6 1 3 3 20 77 2 1 0 0 21 0 78 16 16 0 0 16 28 16 27 19 17 0 15 0 14 17 17 17 8 7 25 
CALL[ ]	/* CallFunction */";
};
width = 718;
}
);
note = uni042F;
unicode = 1071;
},
{
glyphname = uni0440;
kernLeft = uni0432;
layers = (
{
layerId = m01;
shapes = (
{
closed = 1;
nodes = (
(55,527,l),
(55,-210,l),
(212,-210,l),
(212,52,l),
(272,-8,o),
(377,-8,qs),
(431,-8,o),
(518,33,o),
(577,106,o),
(608,208,o),
(608,269,qs),
(608,329,o),
(576,428,o),
(515,499,o),
(429,537,o),
(375,537,qs),
(329,537,o),
(243,503,o),
(211,464,q),
(202,527,l)
);
},
{
closed = 1;
nodes = (
(408,373,o),
(436,336,o),
(450,290,o),
(450,266,qs),
(450,239,o),
(438,192,o),
(411,156,o),
(367,134,o),
(335,134,qs),
(274,136,o),
(212,212,o),
(212,267,qs),
(212,292,o),
(228,337,o),
(259,373,o),
(303,394,o),
(332,394,qs),
(364,394,o)
);
}
);
userData = {
assembly = "PUSHB[ ]	/* 6 values pushed */
15 1 1 5 1 76 
MPPEM[ ]	/* MeasurePixelPerEm */
PUSHB[ ]	/* 1 value pushed */
14 
LT[ ]	/* LessThan */
IF[ ]	/* If */
NPUSHB[ ]	/* 28 values pushed */
6 1 4 4 0 97 3 1 0 0 29 77 0 5 5 1 97 0 1 1 30 77 0 2 2 24 2 78 
ELSE[ ]	/* Else */
MPPEM[ ]	/* MeasurePixelPerEm */
PUSHB[ ]	/* 1 value pushed */
23 
LT[ ]	/* LessThan */
IF[ ]	/* If */
NPUSHB[ ]	/* 34 values pushed */
6 1 4 4 0 97 3 1 0 0 29 77 0 5 5 1 97 0 1 1 30 77 0 2 2 0 97 3 1 0 0 29 2 78 
ELSE[ ]	/* Else */
NPUSHB[ ]	/* 32 values pushed */
6 1 4 4 0 97 0 0 0 29 77 0 5 5 1 97 0 1 1 30 77 0 2 2 3 95 0 3 3 22 2 78 
EIF[ ]	/* EndIf */
EIF[ ]	/* EndIf */
NPUSHB[ ]	/* 15 values pushed */
21 20 29 27 20 37 21 37 17 18 40 34 7 7 26 
CALL[ ]	/* CallFunction */";
};
width = 638;
}
);
note = uni0440;
unicode = 1088;
},
{
glyphname = O;
kernLeft = O;
kernRight = D;
layers = (
{
layerId = m01;
shapes = (
{
closed = 1;
nodes = (
(179,665,o),
(86,569,o),
(35,436,o),
(35,355,qs),
(35,275,o),
(84,142,o),
(176,46,o),
(307,-7,o),
(390,-7,qs),
(472,-8,o),
(604,46,o),
(697,144,o),
(747,278,o),
(747,358,qs),
(747,439,o),
(697,571,o),
(604,666,o),
(473,717,o),
(392,717,qs),
(311,717,o)
);
},
{
closed = 1;
nodes = (
(225,472,o),
(271,531,o),
(343,567,o),
(392,567,qs),
(442,567,o),
(513,529,o),
(559,469,o),
(580,393,o),
(580,354,qs),
(580,315,o),
(558,239,o),
(512,179,o),
(442,143,o),
(394,143,qs),
(344,144,o),
(272,180,o),
(225,239,o),
(202,315,o),
(202,356,qs),
(202,396,o)
);
}
);
userData = {
assembly = "NPUSHB[ ]	/* 37 values pushed */
0 3 3 0 97 4 1 0 0 46 77 0 2 2 1 97 0 1 1 47 1 78 1 0 36 34 26 24 11 9 0 19 1 19 5 8 22 
CALL[ ]	/* CallFunction */";
};
width = 782;
}
);
note = O;
unicode = 79;
},
{
glyphname = be_alt;
layers = (
{
layerId = m01;
shapes = (
{
closed = 1;
nodes = (
(239,704,o),
(199,684,qs),
(150,658,o),
(86,589,o),
(47,503,o),
(31,397,o),
(31,334,qs),
(31,272,o),
(60,149,o),
(124,53,o),
(232,-7,o),
(312,-8,qs),
(374,-8,o),
(475,29,o),
(546,100,o),
(586,201,o),
(586,265,qs),
(586,320,o),
(551,409,o),
(492,471,o),
(409,503,o),
(361,503,qs),
(310,503,o),
(223,473,o),
(187,435,q),
(190,471,o),
(222,520,o),
(274,553,o),
(339,576,o),
(411,597,o),
(486,618,o),
(520,634,qs),
(565,655,o),
(585,695,q),
(502,808,l),
(488,794,o),
(416,762,o),
(370,746,qs),
(325,731,o)
);
},
{
closed = 1;
nodes = (
(242,155,o),
(215,187,o),
(201,229,o),
(201,250,qs),
(201,299,o),
(267,357,o),
(318,357,qs),
(373,357,o),
(427,292,o),
(427,246,qs),
(427,226,o),
(413,186,o),
(386,154,o),
(342,134,o),
(314,134,qs),
(285,134,o)
);
}
);
userData = {
assembly = "NPUSHB[ ]	/* 11 values pushed */
13 1 3 0 1 76 4 3 2 0 74 
MPPEM[ ]	/* MeasurePixelPerEm */
PUSHB[ ]	/* 1 value pushed */
22 
LT[ ]	/* LessThan */
IF[ ]	/* If */
NPUSHB[ ]	/* 22 values pushed */
0 3 3 0 97 0 0 0 22 77 4 1 2 2 1 97 0 1 1 30 1 78 
ELSE[ ]	/* Else */
NPUSHB[ ]	/* 20 values pushed */
0 0 0 3 2 0 3 105 4 1 2 2 1 97 0 1 1 30 1 78 
EIF[ ]	/* EndIf */
NPUSHB[ ]	/* 13 values pushed */
40 39 48 46 39 54 40 54 40 47 5 7 24 
CALL[ ]	/* CallFunction */";
};
width = 616;
}
);
note = be_alt;
},
{
glyphname = a;
kernLeft = a;
layers = (
{
layerId = m01;
shapes = (
{
closed = 1;
nodes = (
(358,155,o),
(325,127,o),
(284,114,o),
(262,114,qs),
(231,114,o),
(194,142,o),
(194,168,qs),
(194,195,o),
(241,223,o),
(284,223,qs),
(376,223,l),
(376,196,o)
);
},
{
closed = 1;
nodes = (
(527,284,ls),
(527,335,o),
(506,429,o),
(451,498,o),
(358,538,o),
(288,538,qs),
(244,538,o),
(163,519,o),
(96,476,o),
(52,407,o),
(46,359,q),
(206,359,l),
(211,383,o),
(261,405,o),
(290,404,qs),
(332,404,o),
(375,358,o),
(375,321,q),
(281,321,ls),
(233,321,o),
(146,308,o),
(114,291,qs),
(78,272,o),
(36,203,o),
(36,158,qs),
(36,116,o),
(65,54,o),
(115,11,o),
(176,-8,o),
(211,-8,qs),
(254,-8,o),
(313,10,o),
(362,43,o),
(380,68,q),
(381,0,l),
(527,0,l)
);
}
);
userData = {
assembly = "MPPEM[ ]	/* MeasurePixelPerEm */
PUSHB[ ]	/* 1 value pushed */
29 
LT[ ]	/* LessThan */
IF[ ]	/* If */
PUSHB[ ]	/* 6 values pushed */
13 1 2 1 1 76 
ELSE[ ]	/* Else */
PUSHB[ ]	/* 6 values pushed */
13 1 7 1 1 76 
EIF[ ]	/* EndIf */
MPPEM[ ]	/* MeasurePixelPerEm */
PUSHB[ ]	/* 1 value pushed */
29 
LT[ ]	/* LessThan */
IF[ ]	/* If */
NPUSHB[ ]	/* 39 values pushed */
0 5 4 3 4 5 3 128 0 3 0 0 1 3 0 103 0 4 4 6 97 0 6 6 49 77 0 1 1 2 97 8 7 2 2 2 47 2 78 
ELSE[ ]	/* Else */
NPUSHB[ ]	/* 43 values pushed */
0 5 4 3 4 5 3 128 0 3 0 0 1 3 0 103 0 4 4 6 97 0 6 6 49 77 8 1 7 7 39 77 0 1 1 2 97 0 2 2 47 2 78 
EIF[ ]	/* EndIf */
NPUSHB[ ]	/* 16 values pushed */
12 12 12 47 12 47 36 18 34 41 40 36 32 9 8 29 
CALL[ ]	/* CallFunction */";
};
width = 580;
}
);
note = a;
unicode = 97;
},
{
glyphname = c;
kernLeft = d;
layers = (
{
layerId = m01;
shapes = (
{
closed = 1;
nodes = (
(229,155,o),
(203,190,o),
(192,235,o),
(192,262,qs),
(192,286,o),
(202,333,o),
(226,370,o),
(268,393,o),
(298,393,qs),
(333,393,o),
(377,360,o),
(383,333,q),
(542,333,l),
(537,384,o),
(498,461,o),
(435,512,o),
(351,538,o),
(303,538,qs),
(240,538,o),
(141,500,o),
(72,429,o),
(34,327,o),
(34,264,qs),
(34,134,o),
(171,-8,o),
(299,-8,qs),
(345,-8,o),
(431,16,o),
(498,66,o),
(540,142,o),
(545,195,q),
(383,195,l),
(378,169,o),
(334,134,o),
(298,134,qs),
(269,134,o)
);
}
);
userData = {
assembly = "NPUSHB[ ]	/* 56 values pushed */
0 4 5 1 5 4 1 128 0 1 0 5 1 0 126 0 5 5 3 97 0 3 3 49 77 6 1 0 0 2 97 0 2 2 47 2 78 1 0 27 25 23 22 18 16 10 8 4 3 0 35 1 35 7 8 22 
CALL[ ]	/* CallFunction */";
};
width = 574;
}
);
note = c;
unicode = 99;
},
{
glyphname = e;
kernLeft = d;
layers = (
{
layerId = m01;
shapes = (
{
closed = 1;
nodes = (
(196,178,o),
(192,216,q),
(542,216,l),
(545,233,o),
(548,262,o),
(548,278,qs),
(548,334,o),
(515,430,o),
(451,500,o),
(357,538,o),
(296,538,qs),
(235,538,o),
(138,497,o),
(71,424,o),
(34,324,o),
(34,266,qs),
(34,135,o),
(173,-8,o),
(298,-8,qs),
(341,-8,o),
(420,11,o),
(486,53,o),
(532,117,o),
(543,163,q),
(383,163,l),
(373,144,o),
(331,123,o),
(300,123,qs),
(247,124,o)
);
},
{
closed = 1;
nodes = (
(197,356,o),
(247,407,o),
(298,407,qs),
(344,407,o),
(397,359,o),
(397,322,q),
(194,322,l)
);
}
);
userData = {
assembly = "NPUSHB[ ]	/* 64 values pushed */
0 1 4 0 4 1 0 128 8 1 6 0 4 1 6 4 103 0 5 5 3 97 0 3 3 49 77 7 1 0 0 2 97 0 2 2 47 2 78 29 29 1 0 29 35 29 35 33 31 26 25 18 16 10 8 4 3 0 28 1 28 9 8 22 
CALL[ ]	/* CallFunction */";
};
width = 582;
}
);
note = e;
unicode = 101;
},
{
glyphname = f;
layers = (
{
layerId = m01;
shapes = (
{
closed = 1;
nodes = (
(256,565,ls),
(256,616,o),
(308,616,qs),
(381,616,l),
(381,756,l),
(286,756,ls),
(190,756,o),
(98,674,o),
(98,582,qs),
(98,527,l),
(19,527,l),
(19,386,l),
(98,386,l),
(98,0,l),
(256,0,l),
(256,386,l),
(381,386,l),
(381,527,l),
(256,527,l)
);
}
);
userData = {
assembly = "NPUSHB[ ]	/* 42 values pushed */
0 4 0 5 3 4 5 103 2 1 0 0 3 95 7 6 2 3 3 41 77 0 1 1 39 1 78 0 0 0 18 0 18 33 35 17 17 17 17 8 8 28 
CALL[ ]	/* CallFunction */";
};
width = 390;
}
);
note = f;
unicode = 102;
},
{
glyphname = g;
kernLeft = d;
layers = (
{
layerId = m01;
shapes = (
{
closed = 1;
nodes = (
(430,11,o),
(421,-44,o),
(396,-88,o),
(350,-115,o),
(315,-115,qs),
(275,-115,o),
(225,-83,o),
(220,-61,q),
(56,-61,l),
(64,-113,o),
(111,-189,o),
(181,-237,o),
(268,-261,o),
(315,-261,qs),
(346,-261,o),
(413,-250,o),
(476,-222,o),
(526,-180,o),
(545,-150,qs),
(562,-122,o),
(581,-62,o),
(588,2,o),
(590,69,o),
(590,102,qs),
(590,527,l),
(450,527,l),
(435,475,l),
(378,538,o),
(286,538,qs),
(221,538,o),
(129,493,o),
(65,416,o),
(34,318,o),
(34,261,qs),
(34,207,o),
(63,109,o),
(121,34,o),
(211,-8,o),
(277,-8,qs),
(327,-8,o),
(403,21,o),
(430,55,q),
(430,38,ls)
);
},
{
closed = 1;
nodes = (
(235,154,o),
(207,188,o),
(193,233,o),
(193,259,qs),
(193,284,o),
(206,332,o),
(234,371,o),
(280,394,o),
(312,394,qs),
(371,394,o),
(432,319,o),
(432,266,qs),
(432,238,o),
(418,191,o),
(388,155,o),
(342,133,o),
(311,133,qs),
(281,133,o)
);
}
);
userData = {
assembly = "MPPEM[ ]	/* MeasurePixelPerEm */
PUSHB[ ]	/* 1 value pushed */
22 
LT[ ]	/* LessThan */
IF[ ]	/* If */
NPUSHB[ ]	/* 10 values pushed */
15 1 7 1 0 1 0 6 2 76 
ELSE[ ]	/* Else */
NPUSHB[ ]	/* 10 values pushed */
15 1 7 2 0 1 0 6 2 76 
EIF[ ]	/* EndIf */
MPPEM[ ]	/* MeasurePixelPerEm */
PUSHB[ ]	/* 1 value pushed */
14 
LT[ ]	/* LessThan */
IF[ ]	/* If */
NPUSHB[ ]	/* 41 values pushed */
0 4 0 5 0 4 5 128 0 7 7 1 97 2 1 1 1 49 77 8 1 6 6 0 97 0 0 0 47 77 0 5 5 3 97 0 3 3 51 3 78 
ELSE[ ]	/* Else */
MPPEM[ ]	/* MeasurePixelPerEm */
PUSHB[ ]	/* 1 value pushed */
22 
LT[ ]	/* LessThan */
IF[ ]	/* If */
NPUSHB[ ]	/* 38 values pushed */
0 4 0 5 0 4 5 128 0 5 0 3 5 3 101 0 7 7 1 97 2 1 1 1 49 77 8 1 6 6 0 97 0 0 0 47 0 78 
ELSE[ ]	/* Else */
NPUSHB[ ]	/* 42 values pushed */
0 4 0 5 0 4 5 128 0 5 0 3 5 3 101 0 2 2 41 77 0 7 7 1 97 0 1 1 49 77 8 1 6 6 0 97 0 0 0 47 0 78 
EIF[ ]	/* EndIf */
EIF[ ]	/* EndIf */
NPUSHB[ ]	/* 17 values pushed */
44 43 52 50 43 60 44 60 34 20 42 18 40 34 9 8 28 
CALL[ ]	/* CallFunction */";
};
width = 644;
}
);
note = g;
unicode = 103;
},
{
glyphname = j;
layers = (
{
layerId = m01;
shapes = (
{
closed = 1;
nodes = (
(63,-39,o),
(58,-62,o),
(43,-79,o),
(19,-90,o),
(1,-90,qs),
(-44,-90,l),
(-44,-231,l),
(41,-231,ls),
(136,-231,o),
(220,-142,o),
(220,-51,qs),
(220,527,l),
(63,527,l),
(63,-28,ls)
);
},
{
closed = 1;
nodes = (
(45,725,o),
(45,680,qs),
(45,633,o),
(102,584,o),
(143,584,qs),
(184,584,o),
(240,632,o),
(240,680,qs),
(240,725,o),
(184,775,o),
(143,775,qs),
(103,775,o)
);
}
);
userData = {
assembly = "MPPEM[ ]	/* MeasurePixelPerEm */
PUSHB[ ]	/* 1 value pushed */
12 
LT[ ]	/* LessThan */
IF[ ]	/* If */
NPUSHB[ ]	/* 27 values pushed */
0 4 4 3 97 5 1 3 3 48 77 0 0 0 41 77 0 2 2 1 96 0 1 1 43 1 78 
ELSE[ ]	/* Else */
MPPEM[ ]	/* MeasurePixelPerEm */
PUSHB[ ]	/* 1 value pushed */
14 
LT[ ]	/* LessThan */
IF[ ]	/* If */
NPUSHB[ ]	/* 25 values pushed */
5 1 3 0 4 0 3 4 105 0 0 0 41 77 0 2 2 1 96 0 1 1 43 1 78 
ELSE[ ]	/* Else */
NPUSHB[ ]	/* 22 values pushed */
5 1 3 0 4 0 3 4 105 0 2 0 1 2 1 100 0 0 0 41 0 78 
EIF[ ]	/* EndIf */
EIF[ ]	/* EndIf */
NPUSHB[ ]	/* 14 values pushed */
15 14 21 19 14 25 15 25 33 35 16 6 8 25 
CALL[ ]	/* CallFunction */";
};
width = 287;
}
);
note = j;
unicode = 106;
},
{
glyphname = o;
kernLeft = d;
layers = (
{
layerId = m01;
shapes = (
{
closed = 1;
nodes = (
(377,371,o),
(404,334,o),
(416,289,o),
(416,265,qs),
(416,238,o),
(404,192,o),
(377,158,o),
(334,136,o),
(304,136,qs),
(274,136,o),
(231,157,o),
(203,192,o),
(190,238,o),
(190,265,qs),
(190,289,o),
(203,334,o),
(231,371,o),
(274,392,o),
(304,392,qs),
(334,392,o)
);
},
{
closed = 1;
nodes = (
(464,28,o),
(534,98,o),
(574,200,o),
(574,266,qs),
(574,329,o),
(535,430,o),
(466,501,o),
(368,538,o),
(308,538,qs),
(248,538,o),
(148,501,o),
(76,430,o),
(34,329,o),
(34,266,qs),
(34,200,o),
(74,98,o),
(144,28,o),
(243,-8,o),
(303,-8,qs),
(364,-8,o)
);
}
);
userData = {
assembly = "NPUSHB[ ]	/* 42 values pushed */
4 1 0 0 3 97 0 3 3 49 77 0 1 1 2 97 5 1 2 2 47 2 78 21 20 1 0 31 29 20 39 21 39 11 9 0 19 1 19 6 8 22 
CALL[ ]	/* CallFunction */";
};
width = 608;
}
);
note = o;
unicode = 111;
},
{
glyphname = r;
kernLeft = r;
kernRight = r;
layers = (
{
layerId = m01;
shapes = (
{
closed = 1;
nodes = (
(55,527,l),
(55,0,l),
(212,0,l),
(212,238,ls),
(212,284,o),
(235,347,o),
(265,366,qs),
(278,374,o),
(313,381,o),
(350,384,o),
(386,383,o),
(400,383,q),
(400,534,l),
(393,536,o),
(368,537,o),
(355,537,qs),
(312,537,o),
(237,510,o),
(206,469,q),
(196,527,l)
);
}
);
userData = {
assembly = "MPPEM[ ]	/* MeasurePixelPerEm */
PUSHB[ ]	/* 1 value pushed */
27 
LT[ ]	/* LessThan */
IF[ ]	/* If */
PUSHB[ ]	/* 6 values pushed */
6 1 1 0 1 76 
ELSE[ ]	/* Else */
PUSHB[ ]	/* 6 values pushed */
6 1 3 0 1 76 
EIF[ ]	/* EndIf */
MPPEM[ ]	/* MeasurePixelPerEm */
PUSHB[ ]	/* 1 value pushed */
27 
LT[ ]	/* LessThan */
IF[ ]	/* If */
NPUSHB[ ]	/* 17 values pushed */
0 1 1 0 97 3 1 0 0 49 77 0 2 2 39 2 78 
ELSE[ ]	/* Else */
NPUSHB[ ]	/* 21 values pushed */
0 3 3 41 77 0 1 1 0 97 0 0 0 49 77 0 2 2 39 2 78 
EIF[ ]	/* EndIf */
PUSHB[ ]	/* 7 values pushed */
17 23 34 50 4 8 26 
CALL[ ]	/* CallFunction */";
};
width = 404;
}
);
note = r;
unicode = 114;
},
{
glyphname = t;
kernLeft = t;
layers = (
{
layerId = m01;
shapes = (
{
closed = 1;
nodes = (
(365,527,l),
(251,527,l),
(251,664,l),
(94,664,l),
(94,527,l),
(16,527,l),
(16,386,l),
(94,386,l),
(94,176,ls),
(94,77,o),
(195,-2,o),
(301,0,qs),
(358,0,l),
(358,140,l),
(308,140,ls),
(275,140,o),
(251,173,o),
(251,199,qs),
(251,386,l),
(365,386,l)
);
}
);
userData = {
assembly = "NPUSHB[ ]	/* 44 values pushed */
0 4 3 4 133 7 6 2 2 2 3 95 5 1 3 3 41 77 0 0 0 1 98 0 1 1 39 1 78 0 0 0 19 0 19 17 17 17 19 33 35 8 8 28 
CALL[ ]	/* CallFunction */";
};
width = 381;
}
);
note = t;
unicode = 116;
},
{
glyphname = y_alt;
layers = (
{
layerId = m01;
shapes = (
{
closed = 1;
nodes = (
(225,-84,o),
(220,-62,q),
(55,-62,l),
(63,-114,o),
(109,-190,o),
(176,-238,o),
(261,-262,o),
(308,-262,qs),
(381,-262,o),
(491,-214,o),
(526,-164,qs),
(545,-136,o),
(567,-75,o),
(577,-6,o),
(579,67,o),
(579,105,qs),
(579,527,l),
(421,527,l),
(421,299,ls),
(421,267,o),
(418,200,o),
(400,175,qs),
(389,159,o),
(348,134,o),
(319,134,qs),
(287,134,o),
(247,157,o),
(226,193,o),
(219,238,o),
(219,261,qs),
(219,527,l),
(62,527,l),
(62,234,ls),
(62,180,o),
(84,90,o),
(134,26,o),
(213,-8,o),
(269,-8,qs),
(313,-8,o),
(394,15,o),
(422,47,q),
(422,15,o),
(414,-43,o),
(390,-88,o),
(346,-115,o),
(311,-115,qs),
(273,-115,o)
);
}
);
userData = {
assembly = "PUSHB[ ]	/* 6 values pushed */
5 1 1 3 1 76 
MPPEM[ ]	/* MeasurePixelPerEm */
PUSHB[ ]	/* 1 value pushed */
14 
LT[ ]	/* LessThan */
IF[ ]	/* If */
NPUSHB[ ]	/* 36 values pushed */
0 6 1 0 1 6 0 128 4 1 2 2 22 77 0 3 3 1 98 0 1 1 30 77 7 1 0 0 5 97 0 5 5 31 5 78 
ELSE[ ]	/* Else */
NPUSHB[ ]	/* 33 values pushed */
0 6 1 0 1 6 0 128 7 1 0 0 5 0 5 101 4 1 2 2 22 77 0 3 3 1 98 0 1 1 30 1 78 
EIF[ ]	/* EndIf */
NPUSHB[ ]	/* 21 values pushed */
1 0 44 43 39 37 29 28 22 20 15 14 9 7 0 46 1 46 8 7 22 
CALL[ ]	/* CallFunction */";
};
width = 633;
}
);
note = y_alt;
},
{
glyphname = y2_alt;
layers = (
{
layerId = m01;
shapes = (
{
closed = 1;
nodes = (
(187,527,l),
(1,527,l),
(231,-37,l),
(211,-76,o),
(149,-110,o),
(99,-110,qs),
(81,-110,l),
(81,-264,l),
(119,-264,ls),
(192,-264,o),
(293,-222,o),
(366,-141,o),
(418,-23,o),
(442,55,qs),
(588,527,l),
(416,527,l),
(316,153,l)
);
}
);
userData = {
assembly = "PUSHB[ ]	/* 7 values pushed */
16 13 2 2 0 1 76 
MPPEM[ ]	/* MeasurePixelPerEm */
PUSHB[ ]	/* 1 value pushed */
14 
LT[ ]	/* LessThan */
IF[ ]	/* If */
NPUSHB[ ]	/* 17 values pushed */
3 1 0 0 22 77 0 2 2 1 98 0 1 1 31 1 78 
ELSE[ ]	/* Else */
NPUSHB[ ]	/* 14 values pushed */
0 2 0 1 2 1 102 3 1 0 0 22 0 78 
EIF[ ]	/* EndIf */
PUSHB[ ]	/* 7 values pushed */
19 33 37 16 4 7 26 
CALL[ ]	/* CallFunction */";
};
width = 589;
}
);
note = y2_alt;
},
{
glyphname = uni0443;
layers = (
{
layerId = m01;
shapes = (
{
closed = 1;
nodes = (
(194,527,l),
(8,527,l),
(231,-37,l),
(211,-76,o),
(149,-110,o),
(99,-110,qs),
(81,-110,l),
(81,-264,l),
(119,-264,ls),
(192,-264,o),
(293,-222,o),
(366,-141,o),
(418,-23,o),
(442,55,qs),
(588,527,l),
(414,527,l),
(316,154,l)
);
}
);
userData = {
assembly = "PUSHB[ ]	/* 7 values pushed */
16 13 2 2 0 1 76 
MPPEM[ ]	/* MeasurePixelPerEm */
PUSHB[ ]	/* 1 value pushed */
14 
LT[ ]	/* LessThan */
IF[ ]	/* If */
NPUSHB[ ]	/* 17 values pushed */
3 1 0 0 22 77 0 2 2 1 98 0 1 1 31 1 78 
ELSE[ ]	/* Else */
NPUSHB[ ]	/* 14 values pushed */
0 2 0 1 2 1 102 3 1 0 0 22 0 78 
EIF[ ]	/* EndIf */
PUSHB[ ]	/* 7 values pushed */
19 33 37 16 4 7 26 
CALL[ ]	/* CallFunction */";
};
width = 589;
}
);
note = uni0443;
unicode = 1091;
},
{
glyphname = uni0451;
kernLeft = uni0444;
layers = (
{
layerId = m01;
shapes = (
{
closed = 1;
nodes = (
(83,703,o),
(83,661,qs),
(83,617,o),
(135,571,o),
(174,571,qs),
(212,571,o),
(266,617,o),
(266,661,qs),
(266,703,o),
(212,749,o),
(174,749,qs),
(136,749,o)
);
},
{
closed = 1;
nodes = (
(334,703,o),
(334,661,qs),
(334,617,o),
(387,571,o),
(425,571,qs),
(464,571,o),
(516,617,o),
(516,661,qs),
(516,703,o),
(464,749,o),
(425,749,qs),
(387,749,o)
);
},
{
closed = 1;
nodes = (
(196,178,o),
(192,216,q),
(542,216,l),
(545,233,o),
(548,262,o),
(548,278,qs),
(548,334,o),
(515,430,o),
(451,500,o),
(357,538,o),
(296,538,qs),
(235,538,o),
(138,497,o),
(71,424,o),
(34,324,o),
(34,266,qs),
(34,135,o),
(173,-8,o),
(298,-8,qs),
(341,-8,o),
(420,11,o),
(486,53,o),
(532,117,o),
(543,163,q),
(383,163,l),
(373,144,o),
(331,123,o),
(300,123,qs),
(247,124,o)
);
},
{
closed = 1;
nodes = (
(197,356,o),
(247,407,o),
(298,407,qs),
(344,407,o),
(397,359,o),
(397,322,q),
(194,322,l)
);
}
);
userData = {
assembly = "NPUSHB[ ]	/* 92 values pushed */
0 5 8 4 8 5 4 128 12 2 11 3 0 3 1 1 7 0 1 105 14 1 10 0 8 5 10 8 103 0 9 9 7 97 0 7 7 29 77 13 1 4 4 6 97 0 6 6 30 6 78 53 53 25 24 13 12 1 0 53 59 53 59 57 55 50 49 42 40 34 32 28 27 24 52 25 52 19 17 12 23 13 23 7 5 0 11 1 11 15 7 22 
CALL[ ]	/* CallFunction */";
};
width = 582;
}
);
note = uni0451;
unicode = 1105;
},
{
glyphname = uni0437;
kernLeft = uni0444;
layers = (
{
layerId = m01;
shapes = (
{
closed = 1;
nodes = (
(501,346,o),
(501,377,qs),
(501,424,o),
(462,487,o),
(399,523,o),
(321,538,o),
(284,538,qs),
(241,538,o),
(159,522,o),
(90,482,o),
(41,410,o),
(34,355,q),
(183,355,l),
(185,370,o),
(204,390,o),
(230,402,o),
(262,408,o),
(277,408,qs),
(291,408,o),
(318,404,o),
(340,395,o),
(354,378,o),
(354,366,qs),
(354,344,o),
(322,322,o),
(284,322,qs),
(218,322,l),
(218,209,l),
(304,209,ls),
(366,209,o),
(366,169,qs),
(366,156,o),
(349,138,o),
(325,127,o),
(295,123,o),
(280,123,qs),
(263,123,o),
(229,128,o),
(200,141,o),
(181,163,o),
(178,179,q),
(24,179,l),
(28,126,o),
(76,55,o),
(146,11,o),
(231,-8,o),
(273,-8,qs),
(315,-8,o),
(401,7,o),
(471,46,o),
(515,115,o),
(517,168,qs),
(517,204,o),
(485,269,o),
(452,285,q),
(473,299,o)
);
}
);
userData = {
assembly = "NPUSHB[ ]	/* 56 values pushed */
0 6 5 4 5 6 4 128 0 1 3 2 3 1 2 128 0 4 0 3 1 4 3 103 0 5 5 7 97 0 7 7 29 77 0 2 2 0 97 0 0 0 30 0 78 36 20 38 33 37 36 20 39 8 7 30 
CALL[ ]	/* CallFunction */";
};
width = 547;
}
);
note = uni0437;
unicode = 1079;
},
{
glyphname = uni044D;
kernLeft = uni0444;
layers = (
{
layerId = m01;
shapes = (
{
closed = 1;
nodes = (
(199,144,o),
(186,162,q),
(26,162,l),
(36,115,o),
(87,51,o),
(155,9,o),
(234,-9,o),
(274,-9,qs),
(404,-9,o),
(534,137,o),
(534,264,qs),
(534,392,o),
(403,536,o),
(279,536,qs),
(234,536,o),
(152,514,o),
(84,469,o),
(35,401,o),
(26,356,q),
(187,356,l),
(195,375,o),
(248,400,o),
(280,400,qs),
(325,400,o),
(374,357,o),
(378,326,q),
(202,326,l),
(202,201,l),
(379,201,l),
(379,173,o),
(328,125,o),
(280,125,qs),
(249,125,o)
);
}
);
userData = {
assembly = "MPPEM[ ]	/* MeasurePixelPerEm */
PUSHB[ ]	/* 1 value pushed */
12 
LT[ ]	/* LessThan */
IF[ ]	/* If */
NPUSHB[ ]	/* 46 values pushed */
0 4 3 2 3 4 2 128 0 7 1 0 1 7 0 128 0 2 0 1 7 2 1 103 0 3 3 5 97 0 5 5 29 77 8 1 0 0 6 97 0 6 6 28 6 78 
ELSE[ ]	/* Else */
NPUSHB[ ]	/* 46 values pushed */
0 4 3 2 3 4 2 128 0 7 1 0 1 7 0 128 0 2 0 1 7 2 1 103 0 3 3 5 97 0 5 5 29 77 8 1 0 0 6 97 0 6 6 30 6 78 
EIF[ ]	/* EndIf */
NPUSHB[ ]	/* 23 values pushed */
1 0 30 29 25 23 19 17 13 12 10 8 6 5 4 3 0 32 1 32 9 7 22 
CALL[ ]	/* CallFunction */";
};
width = 565;
}
);
note = uni044D;
unicode = 1101;
},
{
glyphname = C;
kernLeft = O;
kernRight = D;
layers = (
{
layerId = m01;
shapes = (
{
closed = 1;
nodes = (
(223,473,o),
(266,532,o),
(334,567,o),
(383,567,qs),
(445,567,o),
(519,511,o),
(531,461,q),
(686,461,l),
(680,527,o),
(628,623,o),
(547,686,o),
(442,717,o),
(382,717,qs),
(301,717,o),
(172,664,o),
(83,568,o),
(35,435,o),
(35,355,qs),
(35,273,o),
(81,140,o),
(170,45,o),
(298,-7,o),
(381,-7,qs),
(439,-7,o),
(547,25,o),
(631,89,o),
(685,184,o),
(690,247,q),
(533,247,l),
(522,197,o),
(445,143,o),
(383,143,qs),
(335,143,o),
(266,180,o),
(223,240,o),
(203,316,o),
(203,356,qs),
(203,397,o)
);
}
);
userData = {
assembly = "NPUSHB[ ]	/* 45 values pushed */
0 4 5 1 5 4 1 128 0 1 0 5 1 0 126 0 5 5 3 97 0 3 3 46 77 0 0 0 2 97 0 2 2 47 2 78 34 20 40 36 18 36 6 8 28 
CALL[ ]	/* CallFunction */";
};
width = 719;
}
);
note = C;
unicode = 67;
},
{
glyphname = S;
kernLeft = O;
kernRight = D;
layers = (
{
layerId = m01;
shapes = (
{
closed = 1;
nodes = (
(598,549,o),
(555,632,o),
(487,688,o),
(398,717,o),
(345,717,qs),
(294,717,o),
(198,698,o),
(117,649,o),
(65,565,o),
(65,501,qs),
(65,437,o),
(116,359,o),
(205,311,o),
(323,281,o),
(391,266,qs),
(419,259,o),
(456,232,o),
(456,206,qs),
(456,188,o),
(437,163,o),
(409,148,o),
(373,142,o),
(357,142,qs),
(331,142,o),
(282,151,o),
(243,171,o),
(215,204,o),
(209,229,q),
(44,229,l),
(49,164,o),
(103,74,o),
(187,17,o),
(291,-8,o),
(346,-8,qs),
(401,-8,o),
(501,18,o),
(576,72,o),
(620,157,o),
(620,216,qs),
(618,282,o),
(569,356,o),
(490,398,o),
(390,420,o),
(338,434,qs),
(312,441,o),
(271,453,o),
(242,469,o),
(227,491,o),
(227,508,qs),
(227,524,o),
(244,548,o),
(272,563,o),
(307,570,o),
(325,570,qs),
(376,570,o),
(439,530,o),
(445,492,q),
(604,492,l)
);
}
);
userData = {
assembly = "NPUSHB[ ]	/* 55 values pushed */
6 1 5 0 2 0 5 2 128 0 2 3 0 2 3 126 0 0 0 4 97 0 4 4 46 77 0 3 3 1 97 0 1 1 47 1 78 0 0 0 57 0 57 53 51 35 33 29 28 24 22 34 7 8 23 
CALL[ ]	/* CallFunction */";
};
width = 665;
}
);
note = S;
unicode = 83;
},
{
glyphname = uni0421;
kernLeft = uni0417;
layers = (
{
layerId = m01;
shapes = (
{
closed = 1;
nodes = (
(222,472,o),
(265,531,o),
(333,567,o),
(382,567,qs),
(444,567,o),
(519,511,o),
(531,461,q),
(686,461,l),
(680,527,o),
(628,623,o),
(546,686,o),
(441,717,o),
(381,717,qs),
(300,717,o),
(172,664,o),
(82,568,o),
(35,435,o),
(35,355,qs),
(35,273,o),
(81,140,o),
(169,45,o),
(297,-7,o),
(380,-7,qs),
(438,-7,o),
(546,25,o),
(631,89,o),
(685,184,o),
(690,247,q),
(533,247,l),
(522,197,o),
(444,143,o),
(382,143,qs),
(334,143,o),
(266,180,o),
(223,240,o),
(203,316,o),
(203,356,qs),
(203,396,o)
);
}
);
userData = {
assembly = "NPUSHB[ ]	/* 45 values pushed */
0 4 5 1 5 4 1 128 0 1 0 5 1 0 126 0 5 5 3 97 0 3 3 27 77 0 0 0 2 97 0 2 2 28 2 78 34 20 40 36 18 36 6 7 28 
CALL[ ]	/* CallFunction */";
};
width = 725;
}
);
note = uni0421;
unicode = 1057;
},
{
glyphname = G;
kernLeft = O;
kernRight = D;
layers = (
{
layerId = m01;
shapes = (
{
closed = 1;
nodes = (
(223,470,o),
(266,530,o),
(336,567,o),
(386,567,qs),
(444,567,o),
(522,516,o),
(532,467,q),
(692,467,l),
(685,530,o),
(631,624,o),
(548,686,o),
(443,717,o),
(385,717,qs),
(302,717,o),
(172,666,o),
(82,571,o),
(35,437,o),
(35,354,qs),
(35,273,o),
(82,140,o),
(172,45,o),
(302,-7,o),
(385,-7,qs),
(463,-7,o),
(589,47,o),
(630,96,qs),
(655,126,o),
(685,194,o),
(700,267,o),
(705,345,o),
(705,385,q),
(366,385,l),
(366,250,l),
(539,250,l),
(535,222,o),
(508,181,o),
(467,155,o),
(416,143,o),
(389,143,qs),
(339,143,o),
(268,178,o),
(223,237,o),
(203,314,o),
(203,355,qs),
(203,394,o)
);
}
);
userData = {
assembly = "NPUSHB[ ]	/* 47 values pushed */
0 5 6 2 6 5 2 128 0 2 0 1 0 2 1 103 0 6 6 4 97 0 4 4 46 77 0 0 0 3 97 0 3 3 47 3 78 34 20 40 39 17 20 36 7 8 29 
CALL[ ]	/* CallFunction */";
};
width = 740;
}
);
note = G;
unicode = 71;
},
{
glyphname = uni041E;
kernLeft = uni0417;
layers = (
{
layerId = m01;
shapes = (
{
closed = 1;
nodes = (
(179,665,o),
(86,569,o),
(35,436,o),
(35,355,qs),
(35,275,o),
(84,142,o),
(176,46,o),
(307,-7,o),
(390,-7,qs),
(472,-8,o),
(604,46,o),
(697,144,o),
(747,278,o),
(747,358,qs),
(747,439,o),
(697,571,o),
(604,666,o),
(473,717,o),
(392,717,qs),
(311,717,o)
);
},
{
closed = 1;
nodes = (
(225,472,o),
(271,531,o),
(343,567,o),
(392,567,qs),
(442,567,o),
(513,529,o),
(559,469,o),
(580,393,o),
(580,354,qs),
(580,315,o),
(558,239,o),
(512,179,o),
(442,143,o),
(394,143,qs),
(344,144,o),
(272,180,o),
(225,239,o),
(202,315,o),
(202,356,qs),
(202,396,o)
);
}
);
userData = {
assembly = "NPUSHB[ ]	/* 37 values pushed */
0 3 3 0 97 4 1 0 0 27 77 0 2 2 1 97 0 1 1 30 1 78 1 0 36 34 26 24 11 9 0 19 1 19 5 7 22 
CALL[ ]	/* CallFunction */";
};
width = 782;
}
);
note = uni041E;
unicode = 1054;
},
{
glyphname = Q;
kernLeft = O;
kernRight = D;
layers = (
{
layerId = m01;
shapes = (
{
closed = 1;
nodes = (
(224,471,o),
(271,530,o),
(342,567,o),
(392,567,qs),
(441,567,o),
(513,531,o),
(559,471,o),
(581,395,o),
(581,355,qs),
(581,315,o),
(558,239,o),
(512,179,o),
(441,143,o),
(393,143,qs),
(343,143,o),
(270,179,o),
(224,239,o),
(202,315,o),
(202,356,qs),
(202,395,o)
);
},
{
closed = 1;
nodes = (
(721,14,o),
(675,73,o),
(652,102,q),
(698,150,o),
(748,277,o),
(748,358,qs),
(748,439,o),
(698,572,o),
(605,666,o),
(474,717,o),
(393,717,qs),
(311,717,o),
(179,664,o),
(86,569,o),
(35,435,o),
(35,354,qs),
(35,274,o),
(84,141,o),
(176,46,o),
(308,-7,o),
(391,-7,qs),
(423,-7,o),
(490,4,o),
(519,15,q),
(545,-17,o),
(594,-79,o),
(619,-111,q),
(744,-15,l)
);
}
);
userData = {
assembly = "NPUSHB[ ]	/* 39 values pushed */
44 23 2 2 0 1 76 47 1 2 73 0 1 1 3 97 0 3 3 46 77 0 0 0 2 97 0 2 2 47 2 78 40 41 40 36 4 8 26 
CALL[ ]	/* CallFunction */";
};
width = 783;
}
);
note = Q;
unicode = 81;
},
{
glyphname = J;
layers = (
{
layerId = m01;
shapes = (
{
closed = 1;
nodes = (
(370,708,l),
(370,240,ls),
(370,200,o),
(330,141,o),
(284,141,qs),
(257,141,o),
(221,161,o),
(200,193,o),
(192,233,o),
(192,253,q),
(29,253,l),
(29,244,ls),
(29,126,o),
(164,-7,o),
(289,-7,qs),
(414,-7,o),
(533,127,o),
(533,254,qs),
(533,708,l)
);
}
);
userData = {
assembly = "MPPEM[ ]	/* MeasurePixelPerEm */
PUSHB[ ]	/* 1 value pushed */
10 
LT[ ]	/* LessThan */
IF[ ]	/* If */
NPUSHB[ ]	/* 23 values pushed */
0 1 3 2 2 1 114 0 3 3 38 77 0 2 2 0 98 0 0 0 47 0 78 
ELSE[ ]	/* Else */
MPPEM[ ]	/* MeasurePixelPerEm */
PUSHB[ ]	/* 1 value pushed */
11 
LT[ ]	/* LessThan */
IF[ ]	/* If */
NPUSHB[ ]	/* 24 values pushed */
0 1 3 2 3 1 2 128 0 3 3 38 77 0 2 2 0 98 0 0 0 47 0 78 
ELSE[ ]	/* Else */
MPPEM[ ]	/* MeasurePixelPerEm */
PUSHB[ ]	/* 1 value pushed */
12 
LT[ ]	/* LessThan */
IF[ ]	/* If */
NPUSHB[ ]	/* 23 values pushed */
0 1 3 2 2 1 114 0 3 3 38 77 0 2 2 0 98 0 0 0 47 0 78 
ELSE[ ]	/* Else */
NPUSHB[ ]	/* 24 values pushed */
0 1 3 2 3 1 2 128 0 3 3 38 77 0 2 2 0 98 0 0 0 47 0 78 
EIF[ ]	/* EndIf */
EIF[ ]	/* EndIf */
EIF[ ]	/* EndIf */
PUSHB[ ]	/* 7 values pushed */
19 36 19 34 4 8 26 
CALL[ ]	/* CallFunction */";
};
width = 602;
}
);
note = J;
unicode = 74;
},
{
glyphname = K_alt;
kernRight = K_alt;
layers = (
{
layerId = m01;
shapes = (
{
closed = 1;
nodes = (
(74,708,l),
(74,0,l),
(237,0,l),
(237,235,l),
(296,293,l),
(499,0,l),
(693,0,l),
(414,400,l),
(704,708,l),
(500,708,l),
(237,421,l),
(237,708,l)
);
}
);
userData = {
assembly = "NPUSHB[ ]	/* 29 values pushed */
7 6 3 0 4 1 0 1 76 3 1 0 0 20 77 2 1 1 1 21 1 78 17 19 18 17 4 7 26 
CALL[ ]	/* CallFunction */";
};
width = 705;
}
);
note = K_alt;
},
{
glyphname = K;
kernRight = K_alt;
layers = (
{
layerId = m01;
shapes = (
{
closed = 1;
nodes = (
(500,0,l),
(690,0,l),
(459,370,l),
(689,708,l),
(502,708,l),
(323,426,l),
(237,426,l),
(237,708,l),
(74,708,l),
(74,0,l),
(237,0,l),
(237,278,l),
(332,278,l)
);
}
);
userData = {
assembly = "NPUSHB[ ]	/* 42 values pushed */
9 1 5 2 1 76 0 2 6 1 5 0 2 5 103 3 1 1 1 38 77 4 1 0 0 39 0 78 0 0 0 12 0 12 18 17 17 17 17 7 8 27 
CALL[ ]	/* CallFunction */";
};
width = 691;
}
);
note = K;
unicode = 75;
},
{
glyphname = k_alt;
layers = (
{
layerId = m01;
shapes = (
{
closed = 1;
nodes = (
(212,708,l),
(55,708,l),
(55,0,l),
(212,0,l),
(212,159,l),
(261,207,l),
(401,0,l),
(580,0,l),
(371,308,l),
(582,527,l),
(385,527,l),
(212,336,l)
);
}
);
userData = {
assembly = "NPUSHB[ ]	/* 33 values pushed */
11 6 5 2 4 1 0 1 76 0 3 3 20 77 0 0 0 22 77 2 1 1 1 21 1 78 17 19 18 16 4 7 26 
CALL[ ]	/* CallFunction */";
};
width = 583;
}
);
note = k_alt;
},
{
glyphname = k;
layers = (
{
layerId = m01;
shapes = (
{
closed = 1;
nodes = (
(393,0,l),
(578,0,l),
(405,276,l),
(565,527,l),
(385,527,l),
(273,332,l),
(212,332,l),
(212,708,l),
(55,708,l),
(55,0,l),
(212,0,l),
(212,192,l),
(277,192,l)
);
}
);
userData = {
assembly = "NPUSHB[ ]	/* 46 values pushed */
9 1 5 2 1 76 0 2 6 1 5 0 2 5 103 0 1 1 38 77 0 3 3 41 77 4 1 0 0 39 0 78 0 0 0 12 0 12 18 17 17 17 17 7 8 27 
CALL[ ]	/* CallFunction */";
};
width = 580;
}
);
note = k;
unicode = 107;
},
{
glyphname = i_alt;
layers = (
{
layerId = m01;
shapes = (
{
closed = 1;
nodes = (
(77,386,l),
(77,0,l),
(234,0,l),
(234,527,l),
(-1,527,l),
(-1,386,l)
);
},
{
closed = 1;
nodes = (
(57,727,o),
(57,682,qs),
(57,636,o),
(112,587,o),
(154,587,qs),
(195,587,o),
(250,635,o),
(250,682,qs),
(250,727,o),
(195,777,o),
(154,777,qs),
(114,777,o)
);
}
);
userData = {
assembly = "NPUSHB[ ]	/* 39 values pushed */
5 1 3 0 4 0 3 4 105 0 2 2 0 95 0 0 0 22 77 0 1 1 21 1 78 7 6 13 11 6 17 7 17 17 17 16 6 7 25 
CALL[ ]	/* CallFunction */";
};
width = 297;
}
);
note = i_alt;
},
{
glyphname = j_alt;
layers = (
{
layerId = m01;
shapes = (
{
closed = 1;
nodes = (
(56,727,o),
(56,682,qs),
(56,636,o),
(112,587,o),
(155,587,qs),
(195,587,o),
(251,635,o),
(251,682,qs),
(251,727,o),
(195,778,o),
(155,778,qs),
(114,778,o)
);
},
{
closed = 1;
nodes = (
(75,386,l),
(75,-18,ls),
(75,-31,o),
(70,-57,o),
(55,-77,o),
(27,-89,o),
(5,-89,qs),
(-31,-89,l),
(-31,-231,l),
(54,-231,ls),
(148,-231,o),
(234,-140,o),
(232,-49,qs),
(232,527,l),
(-9,527,l),
(-9,386,l)
);
}
);
userData = {
assembly = "MPPEM[ ]	/* MeasurePixelPerEm */
PUSHB[ ]	/* 1 value pushed */
14 
LT[ ]	/* LessThan */
IF[ ]	/* If */
NPUSHB[ ]	/* 30 values pushed */
6 1 0 0 1 2 0 1 105 0 5 5 2 95 0 2 2 22 77 0 4 4 3 95 0 3 3 24 3 78 
ELSE[ ]	/* Else */
NPUSHB[ ]	/* 27 values pushed */
6 1 0 0 1 2 0 1 105 0 4 0 3 4 3 99 0 5 5 2 95 0 2 2 22 5 78 
EIF[ ]	/* EndIf */
NPUSHB[ ]	/* 19 values pushed */
1 0 27 26 21 19 18 16 13 12 7 5 0 11 1 11 7 7 22 
CALL[ ]	/* CallFunction */";
};
width = 298;
}
);
note = j_alt;
},
{
glyphname = s_alt;
kernLeft = d;
layers = (
{
layerId = m01;
shapes = (
{
closed = 1;
nodes = (
(359,385,o),
(361,354,q),
(513,354,l),
(510,403,o),
(470,474,o),
(405,518,o),
(323,538,o),
(279,538,qs),
(241,538,o),
(161,522,o),
(93,484,o),
(48,420,o),
(48,372,qs),
(48,321,o),
(96,261,o),
(168,227,o),
(251,212,o),
(323,199,o),
(371,181,o),
(371,161,qs),
(371,121,o),
(295,121,qs),
(277,121,o),
(240,127,o),
(211,142,o),
(191,166,o),
(189,183,q),
(30,183,l),
(33,131,o),
(81,58,o),
(154,11,o),
(244,-11,o),
(292,-11,qs),
(325,-11,o),
(406,4,o),
(477,43,o),
(525,110,o),
(525,163,qs),
(525,221,o),
(473,282,o),
(391,311,o),
(294,324,o),
(249,336,qs),
(228,342,o),
(201,359,o),
(201,373,qs),
(201,395,o),
(244,410,o),
(274,409,qs),
(309,408,o)
);
}
);
userData = {
assembly = "MPPEM[ ]	/* MeasurePixelPerEm */
PUSHB[ ]	/* 1 value pushed */
10 
LT[ ]	/* LessThan */
IF[ ]	/* If */
NPUSHB[ ]	/* 37 values pushed */
0 5 0 2 0 5 2 128 0 2 3 0 2 3 126 6 1 0 0 4 97 0 4 4 29 77 0 3 3 1 97 0 1 1 28 1 78 
ELSE[ ]	/* Else */
NPUSHB[ ]	/* 37 values pushed */
0 5 0 2 0 5 2 128 0 2 3 0 2 3 126 6 1 0 0 4 97 0 4 4 29 77 0 3 3 1 97 0 1 1 30 1 78 
EIF[ ]	/* EndIf */
NPUSHB[ ]	/* 19 values pushed */
1 0 47 46 42 40 28 26 22 21 17 15 0 49 1 49 7 7 22 
CALL[ ]	/* CallFunction */";
};
width = 557;
}
);
note = s_alt;
},
{
glyphname = s;
kernLeft = d;
layers = (
{
layerId = m01;
shapes = (
{
closed = 1;
nodes = (
(323,388,o),
(325,363,q),
(478,363,l),
(474,410,o),
(436,477,o),
(378,519,o),
(301,538,o),
(259,538,qs),
(218,538,o),
(139,520,o),
(78,481,o),
(40,416,o),
(40,370,qs),
(40,328,o),
(77,272,o),
(131,240,o),
(205,217,o),
(244,209,qs),
(260,206,o),
(292,199,o),
(319,191,o),
(337,176,o),
(337,159,qs),
(335,140,o),
(303,121,o),
(276,121,qs),
(243,121,o),
(194,146,o),
(188,173,q),
(26,173,l),
(32,121,o),
(79,53,o),
(147,10,o),
(231,-8,o),
(274,-8,qs),
(313,-8,o),
(391,9,o),
(452,51,o),
(491,117,o),
(492,166,qs),
(491,221,o),
(439,282,o),
(363,312,o),
(273,327,o),
(233,338,qs),
(210,344,o),
(193,361,o),
(193,375,qs),
(195,394,o),
(229,409,o),
(253,409,qs),
(281,409,o)
);
}
);
userData = {
assembly = "NPUSHB[ ]	/* 66 values pushed */
3 1 5 0 28 1 3 2 2 76 0 5 0 2 0 5 2 128 0 2 3 0 2 3 126 6 1 0 0 4 97 0 4 4 49 77 0 3 3 1 97 0 1 1 47 1 78 1 0 49 48 44 42 26 24 22 21 17 15 0 51 1 51 7 8 22 
CALL[ ]	/* CallFunction */";
};
width = 518;
}
);
note = s;
unicode = 115;
},
{
glyphname = c_alt;
kernLeft = d;
layers = (
{
layerId = m01;
shapes = (
{
closed = 1;
nodes = (
(223,153,o),
(197,188,o),
(186,236,o),
(186,265,qs),
(186,289,o),
(197,335,o),
(223,372,o),
(263,394,o),
(292,394,qs),
(327,394,o),
(372,363,o),
(379,336,q),
(541,336,l),
(535,388,o),
(493,463,o),
(429,513,o),
(345,537,o),
(298,537,qs),
(235,537,o),
(135,498,o),
(67,426,o),
(30,326,o),
(30,265,qs),
(30,135,o),
(164,-8,o),
(293,-8,qs),
(335,-8,o),
(416,12,o),
(481,55,o),
(528,121,o),
(537,169,q),
(373,169,l),
(364,152,o),
(321,132,o),
(294,132,qs),
(265,132,o)
);
}
);
userData = {
assembly = "NPUSHB[ ]	/* 56 values pushed */
0 4 5 1 5 4 1 128 0 1 0 5 1 0 126 0 5 5 3 97 0 3 3 29 77 6 1 0 0 2 97 0 2 2 30 2 78 1 0 27 25 23 22 18 16 10 8 4 3 0 35 1 35 7 7 22 
CALL[ ]	/* CallFunction */";
};
width = 572;
}
);
note = c_alt;
},
{
glyphname = copyright;
layers = (
{
layerId = m01;
shapes = (
{
closed = 1;
nodes = (
(705,-32,o),
(813,73,o),
(872,225,o),
(872,321,qs),
(872,412,o),
(812,562,o),
(703,670,o),
(552,729,o),
(461,729,qs),
(368,729,o),
(215,672,o),
(106,566,o),
(46,415,o),
(46,321,qs),
(46,225,o),
(105,74,o),
(213,-31,o),
(366,-87,o),
(461,-87,qs),
(553,-87,o)
);
},
{
closed = 1;
nodes = (
(282,68,o),
(206,146,o),
(166,254,o),
(166,320,qs),
(166,384,o),
(207,492,o),
(285,570,o),
(396,614,o),
(465,614,qs),
(535,614,o),
(644,570,o),
(719,492,o),
(758,384,o),
(758,320,qs),
(758,254,o),
(719,145,o),
(645,68,o),
(535,26,o),
(465,26,qs),
(394,26,o)
);
},
{
closed = 1;
nodes = (
(413,241,o),
(395,268,o),
(388,303,o),
(388,322,qs),
(388,340,o),
(395,375,o),
(413,402,o),
(444,418,o),
(468,418,qs),
(494,418,o),
(530,393,o),
(532,373,q),
(658,373,l),
(647,456,o),
(547,530,o),
(472,530,qs),
(426,530,o),
(350,502,o),
(295,449,o),
(264,372,o),
(264,322,qs),
(264,219,o),
(371,111,o),
(467,111,qs),
(504,111,o),
(569,128,o),
(620,165,o),
(653,225,o),
(659,267,q),
(533,267,l),
(530,249,o),
(496,224,o),
(469,224,qs),
(444,224,o)
);
}
);
userData = {
assembly = "PUSHB[ ]	/* 2 values pushed */
6 100 
WCVTP[ ]	/* WriteCVTInPixels */
MPPEM[ ]	/* MeasurePixelPerEm */
PUSHB[ ]	/* 1 value pushed */
27 
LT[ ]	/* LessThan */
IF[ ]	/* If */
NPUSHB[ ]	/* 58 values pushed */
0 8 9 5 9 8 114 0 5 4 9 5 4 126 0 1 0 3 7 1 3 105 0 7 0 9 8 7 9 105 12 1 4 0 6 2 4 6 105 11 1 2 0 0 2 89 11 1 2 2 0 98 10 1 0 2 0 82 
ELSE[ ]	/* Else */
NPUSHB[ ]	/* 59 values pushed */
0 8 9 5 9 8 5 128 0 5 4 9 5 4 126 0 1 0 3 7 1 3 105 0 7 0 9 8 7 9 105 12 1 4 0 6 2 4 6 105 11 1 2 0 0 2 89 11 1 2 2 0 98 10 1 0 2 0 82 
EIF[ ]	/* EndIf */
NPUSHB[ ]	/* 35 values pushed */
41 40 21 20 1 0 65 63 61 60 58 56 50 48 44 43 40 73 41 73 31 29 20 39 21 39 11 9 0 19 1 19 13 8 22 
CALL[ ]	/* CallFunction */
PUSHB[ ]	/* 2 values pushed */
6 0 
WCVTP[ ]	/* WriteCVTInPixels */";
};
width = 918;
}
);
note = copyright;
unicode = 169;
},
{
glyphname = ampersand;
layers = (
{
layerId = m01;
shapes = (
{
closed = 1;
nodes = (
(579,154,l),
(607,198,o),
(635,293,o),
(640,344,q),
(505,344,l),
(504,325,o),
(493,274,o),
(482,252,q),
(390,352,l),
(415,368,o),
(462,405,o),
(498,452,o),
(520,507,o),
(520,541,qs),
(520,582,o),
(488,645,o),
(436,689,o),
(366,712,o),
(329,714,qs),
(284,714,o),
(204,690,o),
(143,642,o),
(108,569,o),
(108,520,qs),
(108,478,o),
(142,408,o),
(169,379,q),
(121,350,o),
(54,258,o),
(54,190,qs),
(54,138,o),
(92,62,o),
(156,12,o),
(239,-12,o),
(284,-12,qs),
(339,-12,o),
(440,16,o),
(479,48,q),
(526,0,l),
(720,0,l)
);
},
{
closed = 1;
nodes = (
(374,136,o),
(327,121,o),
(303,121,qs),
(283,121,o),
(245,129,o),
(216,147,o),
(198,176,o),
(198,197,qs),
(198,220,o),
(226,265,o),
(260,287,q),
(390,147,l)
);
},
{
closed = 1;
nodes = (
(247,503,o),
(247,526,qs),
(247,552,o),
(283,587,o),
(316,587,qs),
(346,587,o),
(377,552,o),
(377,530,qs),
(377,518,o),
(362,492,o),
(339,469,o),
(311,448,o),
(297,441,q),
(276,461,o)
);
}
);
userData = {
assembly = "MPPEM[ ]	/* MeasurePixelPerEm */
PUSHB[ ]	/* 1 value pushed */
20 
LT[ ]	/* LessThan */
IF[ ]	/* If */
NPUSHB[ ]	/* 17 values pushed */
30 12 2 2 5 51 38 31 3 4 2 1 1 0 4 3 76 
ELSE[ ]	/* Else */
NPUSHB[ ]	/* 17 values pushed */
30 12 2 2 5 51 38 31 3 4 2 1 1 3 4 3 76 
EIF[ ]	/* EndIf */
MPPEM[ ]	/* MeasurePixelPerEm */
PUSHB[ ]	/* 1 value pushed */
20 
LT[ ]	/* LessThan */
IF[ ]	/* If */
NPUSHB[ ]	/* 35 values pushed */
0 5 5 1 97 0 1 1 46 77 0 2 2 0 97 6 3 2 0 0 47 77 0 4 4 0 97 6 3 2 0 0 47 0 78 
ELSE[ ]	/* Else */
NPUSHB[ ]	/* 32 values pushed */
0 5 5 1 97 0 1 1 46 77 0 2 2 3 95 6 1 3 3 39 77 0 4 4 0 97 0 0 0 47 0 78 
EIF[ ]	/* EndIf */
NPUSHB[ ]	/* 16 values pushed */
0 0 61 59 49 47 0 39 0 39 29 46 35 7 8 25 
CALL[ ]	/* CallFunction */";
};
width = 731;
}
);
note = ampersand;
unicode = 38;
},
{
glyphname = dollar;
layers = (
{
layerId = m01;
shapes = (
{
closed = 1;
nodes = (
(611,533,o),
(581,611,o),
(527,668,o),
(454,704,o),
(410,709,q),
(410,852,l),
(266,852,l),
(266,710,l),
(227,705,o),
(155,674,o),
(101,623,o),
(68,550,o),
(68,502,qs),
(68,452,o),
(100,381,o),
(162,330,o),
(249,297,o),
(305,285,qs),
(329,280,o),
(360,273,o),
(381,268,o),
(394,265,o),
(399,264,qs),
(425,257,o),
(466,233,o),
(466,206,qs),
(466,187,o),
(446,162,o),
(415,148,o),
(374,142,o),
(353,142,qs),
(328,142,o),
(279,152,o),
(239,175,o),
(211,211,o),
(207,237,q),
(46,237,l),
(50,137,o),
(167,21,o),
(262,1,q),
(262,-140,l),
(407,-140,l),
(407,-3,l),
(451,2,o),
(531,31,o),
(591,84,o),
(627,162,o),
(627,216,qs),
(627,267,o),
(598,334,o),
(547,376,o),
(477,401,o),
(437,411,qs),
(409,418,o),
(345,430,o),
(298,444,qs),
(267,453,o),
(229,483,o),
(229,508,qs),
(229,528,o),
(248,553,o),
(279,567,o),
(317,572,o),
(336,571,qs),
(384,569,o),
(452,530,o),
(457,486,q),
(613,486,l)
);
}
);
userData = {
assembly = "NPUSHB[ ]	/* 70 values pushed */
62 59 2 0 4 27 24 2 1 3 2 76 6 1 5 0 2 0 5 2 128 0 2 3 0 2 3 126 0 4 0 0 5 4 0 105 0 3 1 1 3 89 0 3 3 1 95 0 1 3 1 79 0 0 0 67 0 67 61 60 37 35 31 30 26 25 34 7 8 23 
CALL[ ]	/* CallFunction */";
};
width = 674;
}
);
note = dollar;
unicode = 36;
},
{
glyphname = parenleft;
layers = (
{
layerId = m01;
shapes = (
{
closed = 1;
nodes = (
(133,-80,o),
(217,-189,q),
(409,-189,l),
(359,-137,o),
(286,-16,o),
(238,112,o),
(214,244,o),
(213,308,qs),
(214,372,o),
(238,504,o),
(286,633,o),
(359,753,o),
(409,806,q),
(217,806,l),
(133,696,o),
(52,442,o),
(52,308,qs),
(52,174,o)
);
}
);
userData = {
assembly = "MPPEM[ ]	/* MeasurePixelPerEm */
PUSHB[ ]	/* 1 value pushed */
14 
LT[ ]	/* LessThan */
IF[ ]	/* If */
NPUSHB[ ]	/* 11 values pushed */
0 0 0 1 95 0 1 1 43 1 78 
ELSE[ ]	/* Else */
NPUSHB[ ]	/* 16 values pushed */
0 0 1 1 0 87 0 0 0 1 95 0 1 0 1 79 
EIF[ ]	/* EndIf */
PUSHB[ ]	/* 5 values pushed */
26 19 2 8 24 
CALL[ ]	/* CallFunction */";
};
width = 366;
}
);
note = parenleft;
unicode = 40;
},
{
glyphname = parenright;
layers = (
{
layerId = m01;
shapes = (
{
closed = 1;
nodes = (
(232,696,o),
(149,806,q),
(-43,806,l),
(6,753,o),
(80,633,o),
(128,504,o),
(152,372,o),
(153,308,qs),
(152,244,o),
(128,112,o),
(80,-16,o),
(6,-137,o),
(-43,-189,q),
(149,-189,l),
(232,-80,o),
(314,174,o),
(314,308,qs),
(314,442,o)
);
}
);
userData = {
assembly = "MPPEM[ ]	/* MeasurePixelPerEm */
PUSHB[ ]	/* 1 value pushed */
14 
LT[ ]	/* LessThan */
IF[ ]	/* If */
NPUSHB[ ]	/* 11 values pushed */
0 1 1 0 95 0 0 0 43 0 78 
ELSE[ ]	/* Else */
NPUSHB[ ]	/* 16 values pushed */
0 1 0 0 1 87 0 1 1 0 95 0 0 1 0 79 
EIF[ ]	/* EndIf */
PUSHB[ ]	/* 5 values pushed */
26 19 2 8 24 
CALL[ ]	/* CallFunction */";
};
width = 366;
}
);
note = parenright;
unicode = 41;
},
{
glyphname = cent;
layers = (
{
layerId = m01;
shapes = (
{
closed = 1;
nodes = (
(240,154,o),
(215,190,o),
(204,237,o),
(204,264,qs),
(204,289,o),
(215,337,o),
(240,376,o),
(282,398,o),
(312,398,qs),
(347,398,o),
(393,362,o),
(398,335,q),
(559,335,l),
(550,422,o),
(455,522,o),
(382,534,q),
(382,682,l),
(236,682,l),
(236,532,l),
(192,523,o),
(122,477,o),
(73,407,o),
(46,317,o),
(46,264,qs),
(46,155,o),
(140,16,o),
(236,-4,q),
(236,-145,l),
(383,-145,l),
(383,-5,l),
(456,9,o),
(553,108,o),
(563,193,q),
(398,193,l),
(393,168,o),
(348,132,o),
(313,132,qs),
(283,132,o)
);
}
);
userData = {
assembly = "NPUSHB[ ]	/* 72 values pushed */
21 18 2 5 3 10 7 2 2 0 2 76 0 4 5 1 5 4 1 128 0 1 0 5 1 0 126 0 3 0 5 4 3 5 105 6 1 0 2 2 0 89 6 1 0 0 2 95 0 2 0 2 79 1 0 29 27 25 24 20 19 9 8 4 3 0 37 1 37 7 8 22 
CALL[ ]	/* CallFunction */";
};
width = 609;
}
);
note = cent;
unicode = 162;
},
{
glyphname = section;
layers = (
{
layerId = m01;
shapes = (
{
closed = 1;
nodes = (
(357,576,o),
(360,550,q),
(515,550,l),
(512,595,o),
(474,658,o),
(413,698,o),
(334,716,o),
(290,716,qs),
(253,716,o),
(174,701,o),
(108,665,o),
(66,605,o),
(66,560,qs),
(66,528,o),
(94,472,o),
(117,457,q),
(91,440,o),
(60,386,o),
(60,355,qs),
(60,309,o),
(103,251,o),
(176,214,o),
(273,192,o),
(327,182,qs),
(345,178,o),
(365,162,o),
(365,147,qs),
(365,127,o),
(322,108,o),
(293,109,qs),
(261,110,o),
(209,140,o),
(203,172,q),
(46,172,l),
(48,121,o),
(90,50,o),
(158,6,o),
(247,-13,o),
(296,-13,qs),
(335,-13,o),
(416,5,o),
(481,44,o),
(522,106,o),
(523,150,qs),
(524,179,o),
(503,235,o),
(480,255,q),
(502,275,o),
(526,330,o),
(526,359,qs),
(526,404,o),
(488,458,o),
(427,490,o),
(348,506,o),
(308,513,qs),
(298,515,o),
(270,520,o),
(243,530,o),
(224,547,o),
(224,560,qs),
(224,572,o),
(237,587,o),
(259,596,o),
(279,597,o),
(288,597,qs),
(316,596,o)
);
},
{
closed = 1;
nodes = (
(295,397,o),
(325,389,qs),
(343,384,o),
(377,365,o),
(377,344,qs),
(377,332,o),
(365,309,o),
(354,301,q),
(330,306,o),
(280,314,o),
(238,327,o),
(212,349,o),
(212,367,qs),
(212,379,o),
(223,402,o),
(235,409,q),
(251,405,o)
);
}
);
userData = {
assembly = "NPUSHB[ ]	/* 64 values pushed */
74 49 18 3 2 5 1 76 0 5 0 2 0 5 2 128 0 2 3 0 2 3 126 6 1 0 0 4 97 0 4 4 46 77 0 3 3 1 97 0 1 1 47 1 78 2 0 63 62 58 56 36 34 32 31 27 25 0 65 2 65 7 8 22 
CALL[ ]	/* CallFunction */";
};
width = 573;
}
);
note = section;
unicode = 167;
},
{
glyphname = uni04C1;
layers = (
{
layerId = m01;
shapes = (
{
closed = 1;
nodes = (
(693,840,o),
(701,926,q),
(568,926,l),
(565,897,o),
(529,867,o),
(501,867,qs),
(474,867,o),
(437,897,o),
(433,926,q),
(301,926,l),
(308,840,o),
(416,759,o),
(501,759,qs),
(586,759,o)
);
},
{
closed = 1;
nodes = (
(807,0,l),
(998,0,l),
(781,369,l),
(997,708,l),
(810,708,l),
(644,425,l),
(581,425,l),
(581,708,l),
(418,708,l),
(418,425,l),
(354,425,l),
(189,708,l),
(2,708,l),
(218,369,l),
(1,0,l),
(191,0,l),
(349,279,l),
(418,279,l),
(418,0,l),
(581,0,l),
(581,279,l),
(650,279,l)
);
}
);
userData = {
assembly = "PUSHB[ ]	/* 7 values pushed */
32 21 2 5 8 1 76 
MPPEM[ ]	/* MeasurePixelPerEm */
PUSHB[ ]	/* 1 value pushed */
22 
LT[ ]	/* LessThan */
IF[ ]	/* If */
NPUSHB[ ]	/* 42 values pushed */
3 1 1 2 2 1 112 0 2 14 1 0 7 2 0 106 10 1 8 15 13 2 5 4 8 5 103 11 9 2 7 7 20 77 12 6 2 4 4 21 4 78 
ELSE[ ]	/* Else */
NPUSHB[ ]	/* 41 values pushed */
3 1 1 2 1 133 0 2 14 1 0 7 2 0 106 10 1 8 15 13 2 5 4 8 5 103 11 9 2 7 7 20 77 12 6 2 4 4 21 4 78 
EIF[ ]	/* EndIf */
NPUSHB[ ]	/* 39 values pushed */
14 14 1 0 14 35 14 35 34 33 31 30 29 28 27 26 25 24 23 22 20 19 18 17 16 15 11 10 8 6 4 3 0 13 1 13 16 7 22 
CALL[ ]	/* CallFunction */";
};
width = 999;
}
);
note = uni04C1;
unicode = 1217;
},
{
glyphname = uni04C2;
layers = (
{
layerId = m01;
shapes = (
{
closed = 1;
nodes = (
(620,647,o),
(628,736,q),
(494,736,l),
(491,707,o),
(455,676,o),
(426,676,qs),
(399,676,o),
(362,707,o),
(358,736,q),
(224,736,l),
(231,647,o),
(340,567,o),
(426,567,qs),
(512,567,o)
);
},
{
closed = 1;
nodes = (
(668,0,l),
(851,0,l),
(694,276,l),
(843,527,l),
(668,527,l),
(566,331,l),
(505,331,l),
(505,527,l),
(347,527,l),
(347,331,l),
(288,331,l),
(184,527,l),
(9,527,l),
(158,276,l),
(1,0,l),
(184,0,l),
(284,191,l),
(347,191,l),
(347,0,l),
(505,0,l),
(505,191,l),
(569,191,l)
);
}
);
userData = {
assembly = "PUSHB[ ]	/* 7 values pushed */
32 21 2 5 8 1 76 
MPPEM[ ]	/* MeasurePixelPerEm */
PUSHB[ ]	/* 1 value pushed */
22 
LT[ ]	/* LessThan */
IF[ ]	/* If */
NPUSHB[ ]	/* 42 values pushed */
3 1 1 2 2 1 112 0 2 14 1 0 7 2 0 106 10 1 8 15 13 2 5 4 8 5 103 11 9 2 7 7 22 77 12 6 2 4 4 21 4 78 
ELSE[ ]	/* Else */
NPUSHB[ ]	/* 41 values pushed */
3 1 1 2 1 133 0 2 14 1 0 7 2 0 106 10 1 8 15 13 2 5 4 8 5 103 11 9 2 7 7 22 77 12 6 2 4 4 21 4 78 
EIF[ ]	/* EndIf */
NPUSHB[ ]	/* 39 values pushed */
14 14 1 0 14 35 14 35 34 33 31 30 29 28 27 26 25 24 23 22 20 19 18 17 16 15 11 10 8 6 4 3 0 13 1 13 16 7 22 
CALL[ ]	/* CallFunction */";
};
width = 852;
}
);
note = uni04C2;
unicode = 1218;
},
{
glyphname = w_alt;
kernLeft = w;
layers = (
{
layerId = m01;
shapes = (
{
closed = 1;
nodes = (
(416,255,l),
(495,0,l),
(665,0,l),
(829,527,l),
(663,527,l),
(573,186,l),
(495,423,l),
(342,423,l),
(264,186,l),
(175,527,l),
(1,527,l),
(165,0,l),
(338,0,l)
);
}
);
userData = {
assembly = "NPUSHB[ ]	/* 43 values pushed */
11 6 3 3 3 1 1 76 0 1 0 3 0 1 3 128 2 1 0 0 22 77 5 4 2 3 3 21 3 78 0 0 0 12 0 12 17 18 18 17 6 7 26 
CALL[ ]	/* CallFunction */";
};
width = 830;
}
);
note = w_alt;
},
{
glyphname = W_alt;
kernLeft = W;
kernRight = W;
layers = (
{
layerId = m01;
shapes = (
{
closed = 1;
nodes = (
(570,0,l),
(775,0,l),
(951,708,l),
(768,708,l),
(668,206,l),
(568,558,l),
(384,558,l),
(284,206,l),
(184,708,l),
(0,708,l),
(176,0,l),
(379,0,l),
(475,342,l)
);
}
);
userData = {
assembly = "NPUSHB[ ]	/* 37 values pushed */
12 7 4 3 0 2 1 76 0 2 1 0 1 2 0 128 3 1 1 1 20 77 4 1 0 0 21 0 78 17 18 18 17 16 5 7 27 
CALL[ ]	/* CallFunction */";
};
width = 951;
}
);
note = W_alt;
},
{
glyphname = zero;
layers = (
{
layerId = m01;
shapes = (
{
closed = 1;
nodes = (
(244,176,o),
(215,234,o),
(204,312,o),
(204,355,qs),
(204,398,o),
(216,475,o),
(245,533,o),
(294,567,o),
(331,567,qs),
(367,567,o),
(414,533,o),
(443,474,o),
(454,397,o),
(454,355,qs),
(454,311,o),
(442,234,o),
(414,175,o),
(365,141,o),
(329,141,qs),
(292,141,o)
);
},
{
closed = 1;
nodes = (
(152,667,o),
(80,574,o),
(44,439,o),
(44,355,qs),
(44,270,o),
(79,136,o),
(149,43,o),
(257,-7,o),
(329,-7,qs),
(401,-7,o),
(508,43,o),
(579,136,o),
(614,270,o),
(614,355,qs),
(614,439,o),
(578,573,o),
(507,667,o),
(401,717,o),
(331,717,qs),
(260,717,o)
);
}
);
userData = {
assembly = "NPUSHB[ ]	/* 42 values pushed */
0 1 1 2 97 5 1 2 2 46 77 4 1 0 0 3 97 0 3 3 47 3 78 21 20 1 0 31 29 20 39 21 39 11 9 0 19 1 19 6 8 22 
CALL[ ]	/* CallFunction */";
};
width = 657;
}
);
note = zero;
unicode = 48;
},
{
glyphname = one;
layers = (
{
layerId = m01;
shapes = (
{
closed = 1;
nodes = (
(194,708,l),
(166,661,o),
(72,624,o),
(12,624,q),
(12,504,l),
(151,504,l),
(151,0,l),
(314,0,l),
(314,708,l)
);
}
);
userData = {
assembly = "NPUSHB[ ]	/* 26 values pushed */
0 2 0 1 0 2 1 103 0 3 3 38 77 0 0 0 39 0 78 18 17 17 16 4 8 26 
CALL[ ]	/* CallFunction */";
};
width = 408;
}
);
note = one;
unicode = 49;
},
{
glyphname = two;
layers = (
{
layerId = m01;
shapes = (
{
closed = 1;
nodes = (
(512,0,l),
(512,147,l),
(257,147,l),
(299,180,o),
(391,253,o),
(469,335,o),
(520,437,o),
(520,496,qs),
(520,551,o),
(481,633,o),
(415,688,o),
(326,716,o),
(277,716,qs),
(224,716,o),
(131,688,o),
(61,632,o),
(19,547,o),
(17,491,q),
(168,491,l),
(173,522,o),
(218,566,o),
(269,566,qs),
(314,566,o),
(357,519,o),
(357,485,qs),
(357,454,o),
(326,399,o),
(281,353,o),
(213,293,qs),
(165,251,o),
(70,172,o),
(22,133,q),
(22,0,l)
);
}
);
userData = {
assembly = "NPUSHB[ ]	/* 43 values pushed */
0 1 4 3 1 76 0 1 0 3 0 1 3 128 0 0 0 2 97 0 2 2 46 77 0 3 3 4 95 0 4 4 39 4 78 17 25 36 18 41 5 8 27 
CALL[ ]	/* CallFunction */";
};
width = 557;
}
);
note = two;
unicode = 50;
},
{
glyphname = three;
layers = (
{
layerId = m01;
shapes = (
{
closed = 1;
nodes = (
(204,531,o),
(257,569,o),
(298,569,qs),
(334,569,o),
(381,534,o),
(382,503,qs),
(382,494,o),
(377,467,o),
(358,443,o),
(322,426,o),
(293,426,qs),
(238,426,l),
(238,292,l),
(320,292,ls),
(368,292,o),
(406,250,o),
(406,222,qs),
(406,200,o),
(389,169,o),
(361,150,o),
(324,142,o),
(304,142,qs),
(260,142,o),
(190,179,o),
(180,223,q),
(20,223,l),
(27,112,o),
(187,-7,o),
(302,-7,qs),
(348,-7,o),
(441,13,o),
(523,65,o),
(574,151,o),
(575,216,qs),
(576,273,o),
(523,364,o),
(470,384,q),
(506,405,o),
(549,481,o),
(549,524,qs),
(549,577,o),
(507,650,o),
(438,696,o),
(349,717,o),
(303,717,qs),
(251,717,o),
(160,691,o),
(90,637,o),
(45,554,o),
(40,497,q),
(198,497,l)
);
}
);
userData = {
assembly = "NPUSHB[ ]	/* 68 values pushed */
13 1 4 5 1 76 8 1 7 6 5 6 7 5 128 0 2 4 3 4 2 3 128 0 5 0 4 2 5 4 103 0 6 6 0 97 0 0 0 46 77 0 3 3 1 97 0 1 1 47 1 78 0 0 0 50 0 50 38 33 38 34 18 46 36 9 8 29 
CALL[ ]	/* CallFunction */";
};
width = 620;
}
);
note = three;
unicode = 51;
},
{
glyphname = four;
layers = (
{
layerId = m01;
shapes = (
{
closed = 1;
nodes = (
(346,708,l),
(29,247,l),
(29,127,l),
(374,127,l),
(374,0,l),
(537,0,l),
(537,127,l),
(613,127,l),
(613,272,l),
(537,272,l),
(537,708,l)
);
},
{
closed = 1;
nodes = (
(374,272,l),
(213,272,l),
(374,519,l)
);
}
);
userData = {
assembly = "NPUSHB[ ]	/* 40 values pushed */
13 1 0 4 8 1 1 0 2 76 5 1 0 3 1 1 2 0 1 104 0 4 4 38 77 0 2 2 39 2 78 17 18 17 17 17 16 6 8 28 
CALL[ ]	/* CallFunction */";
};
width = 637;
}
);
note = four;
unicode = 52;
},
{
glyphname = seven;
layers = (
{
layerId = m01;
shapes = (
{
closed = 1;
nodes = (
(506,589,l),
(506,708,l),
(-1,708,l),
(-1,559,l),
(320,559,l),
(60,0,l),
(242,0,l)
);
}
);
userData = {
assembly = "NPUSHB[ ]	/* 34 values pushed */
5 1 0 1 1 76 0 0 0 1 95 0 1 1 38 77 3 1 2 2 39 2 78 0 0 0 6 0 6 17 17 4 8 24 
CALL[ ]	/* CallFunction */";
};
width = 516;
}
);
note = seven;
unicode = 55;
},
{
glyphname = eight;
layers = (
{
layerId = m01;
shapes = (
{
closed = 1;
nodes = (
(535,358,o),
(482,381,q),
(516,402,o),
(558,477,o),
(558,519,qs),
(558,573,o),
(517,648,o),
(450,696,o),
(362,717,o),
(316,717,qs),
(269,717,o),
(181,696,o),
(112,649,o),
(70,574,o),
(70,519,qs),
(70,477,o),
(110,404,o),
(145,381,q),
(91,357,o),
(44,268,o),
(44,208,qs),
(45,149,o),
(92,67,o),
(168,16,o),
(264,-8,o),
(315,-8,qs),
(364,-8,o),
(460,16,o),
(536,67,o),
(583,148,o),
(584,206,qs),
(584,269,o)
);
},
{
closed = 1;
nodes = (
(400,538,o),
(400,503,qs),
(400,468,o),
(356,425,o),
(314,425,qs),
(274,425,o),
(227,467,o),
(227,502,qs),
(227,538,o),
(273,578,o),
(314,578,qs),
(352,578,o)
);
},
{
closed = 1;
nodes = (
(404,166,o),
(375,145,o),
(336,134,o),
(314,134,qs),
(292,134,o),
(252,145,o),
(222,166,o),
(205,199,o),
(205,221,qs),
(205,263,o),
(267,306,o),
(313,306,qs),
(359,306,o),
(421,264,o),
(421,221,qs),
(421,199,o)
);
}
);
userData = {
assembly = "NPUSHB[ ]	/* 54 values pushed */
29 13 2 4 3 1 76 0 3 0 4 5 3 4 105 6 1 2 2 1 97 0 1 1 46 77 0 5 5 0 97 0 0 0 47 0 78 33 32 56 54 48 46 39 37 32 43 33 43 46 36 7 8 24 
CALL[ ]	/* CallFunction */";
};
width = 628;
}
);
note = eight;
unicode = 56;
},
{
glyphname = nine;
layers = (
{
layerId = m01;
shapes = (
{
closed = 1;
nodes = (
(401,516,o),
(401,473,qs),
(401,456,o),
(389,423,o),
(364,397,o),
(327,381,o),
(303,381,qs),
(254,381,o),
(201,435,o),
(201,477,qs),
(201,519,o),
(256,570,o),
(304,570,qs),
(347,570,o)
);
},
{
closed = 1;
nodes = (
(49,146,o),
(93,68,o),
(161,17,o),
(249,-7,o),
(298,-7,qs),
(375,-7,o),
(482,52,o),
(550,151,o),
(580,280,o),
(580,349,qs),
(580,415,o),
(554,546,o),
(491,650,o),
(385,715,o),
(305,715,qs),
(251,715,o),
(155,683,o),
(83,621,o),
(41,529,o),
(41,469,qs),
(41,417,o),
(74,334,o),
(134,275,o),
(219,244,o),
(271,244,qs),
(289,244,o),
(331,250,o),
(373,265,o),
(413,290,o),
(430,309,q),
(429,276,o),
(412,215,o),
(380,167,o),
(331,139,o),
(299,139,qs),
(264,139,o),
(206,169,o),
(198,199,q),
(43,199,l)
);
}
);
userData = {
assembly = "NPUSHB[ ]	/* 70 values pushed */
22 1 3 1 1 76 8 1 6 3 2 3 6 2 128 0 1 0 3 6 1 3 105 7 1 0 0 4 97 0 4 4 46 77 0 2 2 5 97 0 5 5 47 5 78 14 14 1 0 14 52 14 52 48 46 38 36 28 26 18 16 7 5 0 13 1 13 9 8 22 
CALL[ ]	/* CallFunction */";
};
width = 623;
}
);
note = nine;
unicode = 57;
},
{
glyphname = uni0430;
kernLeft = a;
layers = (
{
layerId = m01;
shapes = (
{
closed = 1;
nodes = (
(358,155,o),
(325,127,o),
(284,114,o),
(262,114,qs),
(231,114,o),
(194,142,o),
(194,168,qs),
(194,195,o),
(241,223,o),
(284,223,qs),
(376,223,l),
(376,196,o)
);
},
{
closed = 1;
nodes = (
(527,284,ls),
(527,335,o),
(506,429,o),
(451,498,o),
(359,538,o),
(288,538,qs),
(244,538,o),
(163,519,o),
(96,476,o),
(52,407,o),
(46,359,q),
(206,359,l),
(211,383,o),
(261,405,o),
(290,404,qs),
(332,404,o),
(375,358,o),
(375,321,q),
(281,321,ls),
(233,321,o),
(146,308,o),
(112,290,qs),
(78,272,o),
(36,203,o),
(36,158,qs),
(36,116,o),
(65,54,o),
(115,11,o),
(176,-8,o),
(211,-8,qs),
(254,-8,o),
(313,10,o),
(362,43,o),
(380,68,q),
(381,0,l),
(527,0,l)
);
}
);
userData = {
assembly = "MPPEM[ ]	/* MeasurePixelPerEm */
PUSHB[ ]	/* 1 value pushed */
29 
LT[ ]	/* LessThan */
IF[ ]	/* If */
PUSHB[ ]	/* 6 values pushed */
13 1 2 1 1 76 
ELSE[ ]	/* Else */
PUSHB[ ]	/* 6 values pushed */
13 1 7 1 1 76 
EIF[ ]	/* EndIf */
MPPEM[ ]	/* MeasurePixelPerEm */
PUSHB[ ]	/* 1 value pushed */
29 
LT[ ]	/* LessThan */
IF[ ]	/* If */
NPUSHB[ ]	/* 39 values pushed */
0 5 4 3 4 5 3 128 0 3 0 0 1 3 0 103 0 4 4 6 97 0 6 6 29 77 0 1 1 2 97 8 7 2 2 2 30 2 78 
ELSE[ ]	/* Else */
NPUSHB[ ]	/* 43 values pushed */
0 5 4 3 4 5 3 128 0 3 0 0 1 3 0 103 0 4 4 6 97 0 6 6 29 77 8 1 7 7 21 77 0 1 1 2 97 0 2 2 30 2 78 
EIF[ ]	/* EndIf */
NPUSHB[ ]	/* 16 values pushed */
12 12 12 47 12 47 36 18 34 41 40 36 32 9 7 29 
CALL[ ]	/* CallFunction */";
};
width = 580;
}
);
note = uni0430;
unicode = 1072;
},
{
glyphname = uni0435;
kernLeft = uni0444;
layers = (
{
layerId = m01;
shapes = (
{
closed = 1;
nodes = (
(196,178,o),
(192,216,q),
(542,216,l),
(545,233,o),
(548,262,o),
(548,278,qs),
(548,334,o),
(515,430,o),
(451,500,o),
(357,538,o),
(296,538,qs),
(235,538,o),
(138,497,o),
(71,424,o),
(34,324,o),
(34,266,qs),
(34,135,o),
(173,-8,o),
(298,-8,qs),
(341,-8,o),
(420,11,o),
(486,53,o),
(532,117,o),
(543,163,q),
(383,163,l),
(373,144,o),
(331,123,o),
(300,123,qs),
(247,124,o)
);
},
{
closed = 1;
nodes = (
(197,356,o),
(247,407,o),
(298,407,qs),
(344,407,o),
(397,359,o),
(397,322,q),
(194,322,l)
);
}
);
userData = {
assembly = "NPUSHB[ ]	/* 64 values pushed */
0 1 4 0 4 1 0 128 8 1 6 0 4 1 6 4 103 0 5 5 3 97 0 3 3 29 77 7 1 0 0 2 97 0 2 2 30 2 78 29 29 1 0 29 35 29 35 33 31 26 25 18 16 10 8 4 3 0 28 1 28 9 7 22 
CALL[ ]	/* CallFunction */";
};
width = 582;
}
);
note = uni0435;
unicode = 1077;
},
{
glyphname = uni043E;
kernLeft = uni0444;
layers = (
{
layerId = m01;
shapes = (
{
closed = 1;
nodes = (
(377,371,o),
(404,334,o),
(416,289,o),
(416,265,qs),
(416,238,o),
(404,192,o),
(377,158,o),
(334,136,o),
(304,136,qs),
(274,136,o),
(231,157,o),
(203,192,o),
(190,238,o),
(190,265,qs),
(190,289,o),
(203,334,o),
(231,371,o),
(274,392,o),
(304,392,qs),
(334,392,o)
);
},
{
closed = 1;
nodes = (
(464,28,o),
(534,98,o),
(574,200,o),
(574,266,qs),
(574,329,o),
(535,430,o),
(466,501,o),
(368,538,o),
(308,538,qs),
(248,538,o),
(148,501,o),
(76,430,o),
(34,329,o),
(34,266,qs),
(34,200,o),
(74,98,o),
(144,28,o),
(243,-8,o),
(303,-8,qs),
(364,-8,o)
);
}
);
userData = {
assembly = "NPUSHB[ ]	/* 42 values pushed */
4 1 0 0 3 97 0 3 3 29 77 0 1 1 2 97 5 1 2 2 30 2 78 21 20 1 0 31 29 20 39 21 39 11 9 0 19 1 19 6 7 22 
CALL[ ]	/* CallFunction */";
};
width = 608;
}
);
note = uni043E;
unicode = 1086;
},
{
glyphname = uni0441;
kernLeft = uni0444;
layers = (
{
layerId = m01;
shapes = (
{
closed = 1;
nodes = (
(229,156,o),
(203,190,o),
(192,236,o),
(192,263,qs),
(192,287,o),
(202,334,o),
(227,371,o),
(268,393,o),
(298,393,qs),
(333,393,o),
(377,360,o),
(383,333,q),
(542,333,l),
(537,384,o),
(498,461,o),
(435,512,o),
(351,538,o),
(303,538,qs),
(240,538,o),
(141,500,o),
(72,429,o),
(34,327,o),
(34,264,qs),
(34,134,o),
(171,-8,o),
(299,-8,qs),
(345,-8,o),
(431,16,o),
(498,66,o),
(540,142,o),
(545,195,q),
(383,195,l),
(378,169,o),
(334,134,o),
(298,134,qs),
(269,134,o)
);
}
);
userData = {
assembly = "NPUSHB[ ]	/* 56 values pushed */
0 4 5 1 5 4 1 128 0 1 0 5 1 0 126 0 5 5 3 97 0 3 3 29 77 6 1 0 0 2 97 0 2 2 30 2 78 1 0 27 25 23 22 18 16 10 8 4 3 0 35 1 35 7 7 22 
CALL[ ]	/* CallFunction */";
};
width = 574;
}
);
note = uni0441;
unicode = 1089;
},
{
glyphname = uni0218;
layers = (
{
layerId = m01;
shapes = (
{
closed = 1;
nodes = (
(298,-212,o),
(279,-231,o),
(256,-247,o),
(246,-253,q),
(279,-301,l),
(303,-292,o),
(350,-261,o),
(385,-217,o),
(406,-165,o),
(406,-136,qs),
(406,-100,o),
(365,-47,o),
(325,-46,qs),
(293,-46,o),
(253,-82,o),
(253,-115,qs),
(253,-145,o),
(290,-178,o),
(316,-180,q),
(313,-190,o)
);
},
{
closed = 1;
nodes = (
(589,549,o),
(546,632,o),
(478,688,o),
(389,715,o),
(337,717,qs),
(289,717,o),
(189,698,o),
(108,649,o),
(56,565,o),
(56,501,qs),
(56,437,o),
(107,360,o),
(196,311,o),
(314,282,o),
(382,266,qs),
(410,259,o),
(447,232,o),
(447,206,qs),
(447,188,o),
(428,163,o),
(400,148,o),
(364,142,o),
(348,142,qs),
(322,142,o),
(273,151,o),
(234,171,o),
(206,204,o),
(200,229,q),
(35,229,l),
(40,164,o),
(94,74,o),
(178,18,o),
(282,-7,o),
(338,-7,qs),
(392,-7,o),
(491,18,o),
(566,72,o),
(611,156,o),
(611,216,qs),
(609,282,o),
(560,356,o),
(481,398,o),
(381,420,o),
(329,434,qs),
(303,441,o),
(262,453,o),
(233,469,o),
(218,491,o),
(218,508,qs),
(218,524,o),
(235,548,o),
(263,563,o),
(298,570,o),
(316,570,qs),
(367,570,o),
(430,530,o),
(436,492,q),
(595,492,l)
);
}
);
userData = {
assembly = "NPUSHB[ ]	/* 67 values pushed */
15 14 0 3 0 73 7 1 6 1 3 1 6 3 128 0 3 4 1 3 4 126 0 0 2 0 134 0 1 1 5 97 0 5 5 46 77 0 4 4 2 97 0 2 2 47 2 78 20 20 20 77 20 77 73 71 55 53 49 48 44 42 47 37 8 8 24 
CALL[ ]	/* CallFunction */";
};
width = 647;
}
);
note = uni0218;
unicode = 536;
},
{
glyphname = uni0219;
kernLeft = d;
layers = (
{
layerId = m01;
shapes = (
{
closed = 1;
nodes = (
(326,389,o),
(329,363,q),
(482,363,l),
(478,410,o),
(440,477,o),
(382,519,o),
(305,538,o),
(263,538,qs),
(222,538,o),
(143,520,o),
(82,481,o),
(44,416,o),
(44,370,qs),
(44,328,o),
(79,274,o),
(135,238,o),
(209,216,o),
(248,209,qs),
(264,205,o),
(296,199,o),
(323,190,o),
(341,173,o),
(341,158,qs),
(341,137,o),
(301,121,o),
(280,121,qs),
(247,121,o),
(198,146,o),
(192,173,q),
(30,173,l),
(36,121,o),
(84,53,o),
(154,11,o),
(238,-6,o),
(281,-6,qs),
(319,-6,o),
(396,11,o),
(457,52,o),
(495,117,o),
(496,166,qs),
(495,203,o),
(471,254,o),
(431,287,o),
(380,307,o),
(322,320,o),
(264,330,o),
(237,337,qs),
(214,343,o),
(196,361,o),
(197,375,qs),
(198,394,o),
(236,409,o),
(257,409,qs),
(285,409,o)
);
},
{
closed = 1;
nodes = (
(250,-214,o),
(231,-233,o),
(208,-249,o),
(198,-256,q),
(231,-304,l),
(256,-295,o),
(303,-264,o),
(338,-219,o),
(360,-167,o),
(360,-137,qs),
(360,-101,o),
(319,-46,o),
(281,-46,qs),
(248,-46,o),
(205,-83,o),
(205,-116,qs),
(205,-146,o),
(242,-180,o),
(269,-182,q),
(266,-192,o)
);
}
);
userData = {
assembly = "NPUSHB[ ]	/* 75 values pushed */
3 1 5 0 1 76 69 68 54 3 6 73 0 5 0 2 0 5 2 128 0 2 3 0 2 3 126 0 6 1 6 134 7 1 0 0 4 97 0 4 4 49 77 0 3 3 1 97 0 1 1 47 1 78 1 0 61 59 51 50 46 44 28 26 24 23 19 17 0 53 1 53 8 8 22 
CALL[ ]	/* CallFunction */";
};
width = 527;
}
);
note = uni0219;
unicode = 537;
},
{
glyphname = uni021A;
kernLeft = uni0422;
kernRight = uni0422;
layers = (
{
layerId = m01;
shapes = (
{
closed = 1;
nodes = (
(220,0,l),
(383,0,l),
(383,559,l),
(598,559,l),
(598,708,l),
(5,708,l),
(5,559,l),
(220,559,l)
);
},
{
closed = 1;
nodes = (
(272,-212,o),
(253,-231,o),
(230,-247,o),
(220,-253,q),
(253,-301,l),
(277,-292,o),
(324,-261,o),
(359,-217,o),
(380,-165,o),
(380,-136,qs),
(380,-100,o),
(340,-46,o),
(302,-46,qs),
(271,-45,o),
(227,-82,o),
(227,-115,qs),
(227,-145,o),
(264,-178,o),
(290,-180,q),
(287,-190,o)
);
}
);
userData = {
assembly = "NPUSHB[ ]	/* 43 values pushed */
23 22 8 3 4 73 0 4 2 4 134 5 3 2 1 1 0 95 0 0 0 38 77 0 2 2 39 2 78 0 0 15 13 0 7 0 7 17 17 17 6 8 25 
CALL[ ]	/* CallFunction */";
};
width = 603;
}
);
note = uni021A;
unicode = 538;
},
{
glyphname = uni021B;
kernLeft = t;
layers = (
{
layerId = m01;
shapes = (
{
closed = 1;
nodes = (
(363,527,l),
(251,527,l),
(251,664,l),
(94,664,l),
(94,527,l),
(16,527,l),
(16,386,l),
(94,386,l),
(94,176,ls),
(94,125,o),
(118,59,o),
(168,17,o),
(241,0,o),
(291,0,qs),
(358,0,l),
(358,140,l),
(308,140,ls),
(276,140,o),
(251,173,o),
(251,199,qs),
(251,386,l),
(363,386,l)
);
},
{
closed = 1;
nodes = (
(194,-214,o),
(175,-233,o),
(152,-249,o),
(141,-256,q),
(175,-304,l),
(199,-295,o),
(246,-264,o),
(282,-219,o),
(303,-167,o),
(303,-137,qs),
(303,-101,o),
(263,-46,o),
(224,-46,qs),
(193,-45,o),
(148,-83,o),
(148,-116,qs),
(148,-146,o),
(186,-180,o),
(212,-182,q),
(209,-192,o)
);
}
);
userData = {
assembly = "NPUSHB[ ]	/* 57 values pushed */
37 36 22 3 7 73 0 4 3 4 133 0 7 1 7 134 8 6 2 2 2 3 95 5 1 3 3 41 77 0 0 0 1 98 0 1 1 39 1 78 0 0 29 27 0 21 0 21 17 17 17 21 33 35 9 8 28 
CALL[ ]	/* CallFunction */";
};
width = 389;
}
);
note = uni021B;
unicode = 539;
},
{
glyphname = question;
layers = (
{
layerId = m01;
shapes = (
{
closed = 1;
nodes = (
(163,133,o),
(163,86,qs),
(163,38,o),
(218,-9,o),
(260,-9,qs),
(301,-9,o),
(356,38,o),
(356,86,qs),
(356,133,o),
(301,181,o),
(260,181,qs),
(218,181,o)
);
},
{
closed = 1;
nodes = (
(329,273,o),
(371,326,o),
(398,353,qs),
(427,381,o),
(465,426,o),
(487,466,o),
(497,504,o),
(498,525,qs),
(498,578,o),
(459,651,o),
(395,697,o),
(312,717,o),
(268,717,qs),
(150,717,o),
(24,603,o),
(24,499,q),
(177,499,l),
(179,537,o),
(225,570,o),
(265,570,qs),
(300,570,o),
(338,539,o),
(338,510,qs),
(338,490,o),
(315,457,o),
(281,425,o),
(240,392,o),
(206,353,o),
(182,306,o),
(181,276,qs),
(181,266,o),
(182,245,o),
(184,233,q),
(330,233,l)
);
}
);
userData = {
assembly = "MPPEM[ ]	/* MeasurePixelPerEm */
PUSHB[ ]	/* 1 value pushed */
18 
LT[ ]	/* LessThan */
IF[ ]	/* If */
NPUSHB[ ]	/* 37 values pushed */
0 3 2 5 2 3 114 7 1 5 0 2 5 0 126 0 2 2 4 97 0 4 4 46 77 6 1 0 0 1 97 0 1 1 47 1 78 
ELSE[ ]	/* Else */
NPUSHB[ ]	/* 38 values pushed */
0 3 2 5 2 3 5 128 7 1 5 0 2 5 0 126 0 2 2 4 97 0 4 4 46 77 6 1 0 0 1 97 0 1 1 47 1 78 
EIF[ ]	/* EndIf */
NPUSHB[ ]	/* 23 values pushed */
12 12 1 0 12 45 12 45 33 31 29 28 26 24 7 5 0 11 1 11 8 8 22 
CALL[ ]	/* CallFunction */";
};
width = 540;
}
);
note = question;
unicode = 63;
},
{
glyphname = uni2116;
layers = (
{
layerId = m01;
shapes = (
{
closed = 1;
nodes = (
(46,0,l),
(206,0,l),
(206,416,l),
(470,0,l),
(622,0,l),
(622,708,l),
(462,708,l),
(462,290,l),
(200,708,l),
(46,708,l)
);
},
{
closed = 1;
nodes = (
(1031,214,l),
(1031,334,l),
(708,334,l),
(708,214,l)
);
},
{
closed = 1;
nodes = (
(975,391,o),
(1023,437,o),
(1049,502,o),
(1049,542,qs),
(1049,581,o),
(1024,645,o),
(978,692,o),
(912,717,o),
(870,717,qs),
(829,717,o),
(763,692,o),
(717,646,o),
(691,582,o),
(691,542,qs),
(691,502,o),
(717,437,o),
(764,391,o),
(830,366,o),
(870,366,qs),
(909,366,o)
);
},
{
closed = 1;
nodes = (
(907,590,o),
(921,572,o),
(927,551,o),
(927,542,qs),
(927,521,o),
(901,483,o),
(870,483,qs),
(838,483,o),
(812,521,o),
(812,542,qs),
(812,551,o),
(818,572,o),
(832,590,o),
(854,601,o),
(870,601,qs),
(885,601,o)
);
}
);
userData = {
assembly = "NPUSHB[ ]	/* 92 values pushed */
6 1 6 9 1 1 5 4 2 76 10 3 2 0 7 8 7 0 8 128 2 1 1 5 1 134 0 7 12 1 8 9 7 8 105 0 9 11 1 6 4 9 6 105 0 4 5 5 4 87 0 4 4 5 95 0 5 4 5 79 35 34 15 14 0 0 43 41 34 49 35 49 25 23 14 33 15 33 13 12 11 10 0 9 0 9 18 17 18 13 6 25 
CALL[ ]	/* CallFunction */";
};
width = 1095;
}
);
note = uni2116;
unicode = 8470;
},
{
glyphname = uni0401;
layers = (
{
layerId = m01;
shapes = (
{
closed = 1;
nodes = (
(74,0,l),
(594,0,l),
(594,147,l),
(237,147,l),
(237,278,l),
(540,278,l),
(540,423,l),
(237,423,l),
(237,559,l),
(594,559,l),
(594,708,l),
(74,708,l)
);
},
{
closed = 1;
nodes = (
(125,895,o),
(125,854,qs),
(125,812,o),
(177,766,o),
(215,766,qs),
(253,766,o),
(305,812,o),
(305,854,qs),
(305,896,o),
(253,941,o),
(215,941,qs),
(177,941,o)
);
},
{
closed = 1;
nodes = (
(373,895,o),
(373,854,qs),
(373,812,o),
(425,766,o),
(463,766,qs),
(501,766,o),
(553,812,o),
(553,854,qs),
(553,896,o),
(501,941,o),
(463,941,qs),
(425,941,o)
);
}
);
userData = {
assembly = "NPUSHB[ ]	/* 72 values pushed */
12 8 11 3 6 9 1 7 5 6 7 105 0 1 0 2 3 1 2 103 0 0 0 5 95 10 1 5 5 20 77 0 3 3 4 95 0 4 4 21 4 78 25 24 13 12 0 0 31 29 24 35 25 35 19 17 12 23 13 23 0 11 0 11 17 17 17 17 17 13 7 27 
CALL[ ]	/* CallFunction */";
};
width = 629;
}
);
note = uni0401;
unicode = 1025;
},
{
glyphname = asciitilde;
layers = (
{
layerId = m01;
shapes = (
{
closed = 1;
nodes = (
(218,249,o),
(217,282,o),
(223,312,o),
(239,334,o),
(255,334,qs),
(271,334,o),
(307,302,o),
(353,264,o),
(413,232,o),
(454,232,qs),
(508,232,o),
(573,278,o),
(608,349,o),
(618,434,o),
(616,474,q),
(472,474,l),
(473,464,o),
(474,433,o),
(468,404,o),
(453,383,o),
(438,383,qs),
(421,383,o),
(386,414,o),
(343,450,o),
(285,481,o),
(245,481,qs),
(190,481,o),
(122,436,o),
(84,366,o),
(73,280,o),
(75,238,q),
(220,238,l)
);
}
);
userData = {
assembly = "PUSHB[ ]	/* 2 values pushed */
6 100 
WCVTP[ ]	/* WriteCVTInPixels */
MPPEM[ ]	/* MeasurePixelPerEm */
PUSHB[ ]	/* 1 value pushed */
33 
LT[ ]	/* LessThan */
IF[ ]	/* If */
NPUSHB[ ]	/* 27 values pushed */
0 1 4 3 1 89 2 1 0 0 4 3 0 4 105 0 1 1 3 98 6 5 2 3 1 3 82 
ELSE[ ]	/* Else */
MPPEM[ ]	/* MeasurePixelPerEm */
PUSHB[ ]	/* 1 value pushed */
38 
LT[ ]	/* LessThan */
IF[ ]	/* If */
NPUSHB[ ]	/* 34 values pushed */
0 2 0 1 0 2 1 128 0 1 4 3 1 89 0 0 0 4 3 0 4 105 0 1 1 3 98 6 5 2 3 1 3 82 
ELSE[ ]	/* Else */
NPUSHB[ ]	/* 41 values pushed */
0 2 0 1 0 2 1 128 6 1 5 4 3 4 5 3 128 0 1 4 3 1 89 0 0 0 4 5 0 4 105 0 1 1 3 98 0 3 1 3 82 
EIF[ ]	/* EndIf */
EIF[ ]	/* EndIf */
NPUSHB[ ]	/* 14 values pushed */
0 0 0 31 0 31 35 36 20 35 36 7 8 27 
CALL[ ]	/* CallFunction */
PUSHB[ ]	/* 2 values pushed */
6 0 
WCVTP[ ]	/* WriteCVTInPixels */";
};
width = 691;
}
);
note = asciitilde;
unicode = 126;
},
{
glyphname = trademark;
layers = (
{
layerId = m01;
shapes = (
{
closed = 1;
nodes = (
(251,384,l),
(251,599,l),
(345,599,l),
(345,708,l),
(46,708,l),
(46,599,l),
(139,599,l),
(139,384,l)
);
},
{
closed = 1;
nodes = (
(590,464,o),
(625,521,o),
(643,547,q),
(643,384,l),
(743,384,l),
(743,708,l),
(638,708,l),
(562,586,l),
(542,616,o),
(504,677,o),
(485,708,q),
(379,708,l),
(379,384,l),
(480,384,l),
(480,547,l),
(498,521,o),
(534,464,o),
(551,438,q),
(573,438,l)
);
}
);
userData = {
assembly = "NPUSHB[ ]	/* 61 values pushed */
23 18 11 3 8 0 1 76 9 1 8 0 3 0 8 3 128 7 4 2 3 3 132 6 5 2 1 0 0 1 87 6 5 2 1 1 0 95 2 1 0 1 0 79 8 8 8 26 8 26 17 20 17 21 17 17 17 16 10 6 30 
CALL[ ]	/* CallFunction */";
};
width = 789;
}
);
note = trademark;
unicode = 8482;
},
{
glyphname = registered;
layers = (
{
layerId = m01;
shapes = (
{
closed = 1;
nodes = (
(125,707,o),
(70,656,o),
(39,582,o),
(39,534,qs),
(39,486,o),
(69,413,o),
(124,364,o),
(199,338,o),
(244,338,qs),
(288,338,o),
(363,364,o),
(417,414,o),
(447,487,o),
(447,534,qs),
(447,581,o),
(417,656,o),
(363,707,o),
(289,734,o),
(244,734,qs),
(200,734,o)
);
},
{
closed = 1;
nodes = (
(383,602,o),
(383,534,qs),
(383,467,o),
(305,399,o),
(243,399,qs),
(181,399,o),
(103,467,o),
(103,534,qs),
(103,602,o),
(181,674,o),
(243,674,qs),
(306,674,o)
);
},
{
closed = 1;
nodes = (
(331,531,o),
(329,574,qs),
(329,609,o),
(284,641,o),
(249,641,qs),
(167,641,l),
(167,441,l),
(222,441,l),
(222,506,l),
(237,506,l),
(278,441,l),
(341,441,l),
(293,514,l)
);
},
{
closed = 1;
nodes = (
(261,593,o),
(276,586,o),
(276,573,qs),
(276,561,o),
(261,552,o),
(250,552,qs),
(222,552,l),
(222,593,l),
(249,593,ls)
);
}
);
userData = {
assembly = "PUSHB[ ]	/* 2 values pushed */
6 100 
WCVTP[ ]	/* WriteCVTInPixels */
PUSHB[ ]	/* 6 values pushed */
44 1 5 8 1 76 
MPPEM[ ]	/* MeasurePixelPerEm */
PUSHB[ ]	/* 1 value pushed */
14 
LT[ ]	/* LessThan */
IF[ ]	/* If */
NPUSHB[ ]	/* 61 values pushed */
0 7 2 9 0 7 114 12 1 9 8 2 9 112 0 8 5 2 8 5 126 0 5 4 9 5 112 6 1 4 3 2 4 3 126 10 1 0 11 1 2 7 0 2 105 0 3 1 1 3 89 0 3 3 1 98 0 1 3 1 82 
ELSE[ ]	/* Else */
MPPEM[ ]	/* MeasurePixelPerEm */
PUSHB[ ]	/* 1 value pushed */
16 
LT[ ]	/* LessThan */
IF[ ]	/* If */
NPUSHB[ ]	/* 63 values pushed */
0 7 2 9 2 7 9 128 12 1 9 8 2 9 112 0 8 5 2 8 5 126 0 5 4 2 5 4 126 6 1 4 3 2 4 3 126 10 1 0 11 1 2 7 0 2 105 0 3 1 1 3 89 0 3 3 1 98 0 1 3 1 82 
ELSE[ ]	/* Else */
NPUSHB[ ]	/* 64 values pushed */
0 7 2 9 2 7 9 128 12 1 9 8 2 9 8 126 0 8 5 2 8 5 126 0 5 4 2 5 4 126 6 1 4 3 2 4 3 126 10 1 0 11 1 2 7 0 2 105 0 3 1 1 3 89 0 3 3 1 98 0 1 3 1 82 
EIF[ ]	/* EndIf */
EIF[ ]	/* EndIf */
NPUSHB[ ]	/* 35 values pushed */
45 45 21 20 1 0 45 53 45 52 48 46 40 38 37 36 35 34 33 32 27 25 20 31 21 31 11 9 0 19 1 19 13 8 22 
CALL[ ]	/* CallFunction */
PUSHB[ ]	/* 2 values pushed */
6 0 
WCVTP[ ]	/* WriteCVTInPixels */";
};
width = 486;
}
);
note = registered;
unicode = 174;
},
{
glyphname = degree;
layers = (
{
layerId = m01;
shapes = (
{
closed = 1;
nodes = (
(117,732,o),
(72,690,o),
(46,629,o),
(46,590,qs),
(46,551,o),
(72,491,o),
(117,450,o),
(177,430,o),
(212,430,qs),
(247,430,o),
(308,450,o),
(353,491,o),
(378,551,o),
(378,590,qs),
(378,629,o),
(353,690,o),
(308,733,o),
(247,755,o),
(212,755,qs),
(177,755,o)
);
},
{
closed = 1;
nodes = (
(273,619,o),
(273,591,qs),
(273,563,o),
(239,532,o),
(213,532,qs),
(187,532,o),
(154,563,o),
(154,591,qs),
(154,619,o),
(187,651,o),
(213,651,qs),
(239,651,o)
);
}
);
userData = {
assembly = "PUSHB[ ]	/* 2 values pushed */
6 100 
WCVTP[ ]	/* WriteCVTInPixels */
NPUSHB[ ]	/* 45 values pushed */
4 1 0 5 1 2 3 0 2 105 0 3 1 1 3 89 0 3 3 1 97 0 1 3 1 81 21 20 1 0 27 25 20 31 21 31 11 9 0 19 1 19 6 8 22 
CALL[ ]	/* CallFunction */
PUSHB[ ]	/* 2 values pushed */
6 0 
WCVTP[ ]	/* WriteCVTInPixels */";
};
width = 424;
}
);
note = degree;
unicode = 176;
},
{
glyphname = bullet;
layers = (
{
layerId = m01;
shapes = (
{
closed = 1;
nodes = (
(46,432,o),
(46,363,qs),
(46,294,o),
(129,218,o),
(193,218,qs),
(256,218,o),
(338,294,o),
(338,363,qs),
(338,396,o),
(316,450,o),
(278,488,o),
(224,509,o),
(193,509,qs),
(129,509,o)
);
}
);
userData = {
assembly = "MPPEM[ ]	/* MeasurePixelPerEm */
PUSHB[ ]	/* 1 value pushed */
27 
LT[ ]	/* LessThan */
IF[ ]	/* If */
NPUSHB[ ]	/* 12 values pushed */
0 1 1 0 97 2 1 0 0 41 1 78 
ELSE[ ]	/* Else */
NPUSHB[ ]	/* 18 values pushed */
2 1 0 1 1 0 89 2 1 0 0 1 97 0 1 0 1 81 
EIF[ ]	/* EndIf */
NPUSHB[ ]	/* 11 values pushed */
1 0 9 7 0 13 1 13 3 8 22 
CALL[ ]	/* CallFunction */";
};
width = 384;
}
);
note = bullet;
unicode = 8226;
},
{
glyphname = uni27F5;
layers = (
{
layerId = m01;
shapes = (
{
closed = 1;
nodes = (
(46,274,l),
(419,-57,l),
(506,51,l),
(323,204,l),
(1360,204,l),
(1360,342,l),
(323,342,l),
(506,494,l),
(418,604,l)
);
}
);
userData = {
assembly = "NPUSHB[ ]	/* 36 values pushed */
7 1 1 0 1 76 8 1 0 74 6 5 2 1 73 0 0 1 1 0 87 0 0 0 1 95 0 1 0 1 79 17 17 2 6 24 
CALL[ ]	/* CallFunction */";
};
width = 1406;
}
);
note = uni27F5;
unicode = 10229;
},
{
glyphname = uni27F6;
layers = (
{
layerId = m01;
shapes = (
{
closed = 1;
nodes = (
(1082,342,l),
(46,342,l),
(46,204,l),
(1082,204,l),
(900,51,l),
(987,-57,l),
(1360,274,l),
(987,604,l),
(900,494,l)
);
}
);
userData = {
assembly = "NPUSHB[ ]	/* 36 values pushed */
1 1 0 1 1 76 8 1 1 74 3 2 2 0 73 0 1 0 0 1 87 0 1 1 0 95 0 0 1 0 79 17 20 2 6 24 
CALL[ ]	/* CallFunction */";
};
width = 1406;
}
);
note = uni27F6;
unicode = 10230;
},
{
glyphname = arrowup;
layers = (
{
layerId = m01;
shapes = (
{
closed = 1;
nodes = (
(315,414,l),
(315,0,l),
(451,0,l),
(451,414,l),
(610,228,l),
(719,320,l),
(382,680,l),
(46,320,l),
(155,228,l)
);
}
);
userData = {
assembly = "NPUSHB[ ]	/* 17 values pushed */
8 7 4 3 2 1 6 0 74 0 0 0 118 21 1 6 23 
CALL[ ]	/* CallFunction */";
};
width = 765;
}
);
note = arrowup;
unicode = 8593;
},
{
glyphname = arrowdown;
layers = (
{
layerId = m01;
shapes = (
{
closed = 1;
nodes = (
(382,-3,l),
(719,356,l),
(610,449,l),
(451,263,l),
(451,677,l),
(315,677,l),
(315,263,l),
(155,449,l),
(46,356,l)
);
}
);
userData = {
assembly = "NPUSHB[ ]	/* 17 values pushed */
8 7 6 5 4 1 6 0 73 0 0 0 118 18 1 6 23 
CALL[ ]	/* CallFunction */";
};
width = 765;
}
);
note = arrowdown;
unicode = 8595;
},
{
glyphname = uni21BA;
layers = (
{
layerId = m01;
shapes = (
{
closed = 1;
nodes = (
(921,723,l),
(516,758,l),
(514,658,o),
(510,460,o),
(508,360,q),
(633,360,l),
(633,405,o),
(632,494,o),
(632,539,q),
(659,510,o),
(692,453,o),
(709,401,o),
(714,355,o),
(714,339,qs),
(714,291,o),
(679,204,o),
(613,136,o),
(517,96,o),
(456,96,qs),
(392,96,o),
(295,140,o),
(229,212,o),
(196,304,o),
(196,353,qs),
(196,414,o),
(250,534,o),
(310,578,q),
(214,686,l),
(129,626,o),
(47,454,o),
(47,354,qs),
(48,266,o),
(107,119,o),
(213,14,o),
(362,-44,o),
(454,-44,qs),
(546,-44,o),
(696,10,o),
(803,109,o),
(863,245,o),
(864,328,qs),
(864,368,o),
(847,450,o),
(814,527,o),
(766,593,o),
(736,619,q),
(907,598,l)
);
}
);
userData = {
assembly = "NPUSHB[ ]	/* 35 values pushed */
46 44 37 19 18 5 2 74 0 2 1 2 133 0 1 0 0 1 89 0 1 1 0 97 0 0 1 0 81 28 47 41 3 6 25 
CALL[ ]	/* CallFunction */";
};
width = 967;
}
);
note = uni21BA;
unicode = 8634;
},
{
glyphname = uni21BB;
layers = (
{
layerId = m01;
shapes = (
{
closed = 1;
nodes = (
(200,594,o),
(153,528,o),
(120,453,o),
(103,372,o),
(103,333,qs),
(103,250,o),
(161,112,o),
(267,11,o),
(418,-45,o),
(510,-45,qs),
(603,-45,o),
(754,14,o),
(861,120,o),
(919,268,o),
(919,357,qs),
(919,456,o),
(837,627,o),
(752,686,q),
(729,659,o),
(680,605,o),
(657,578,q),
(718,533,o),
(771,412,o),
(771,350,qs),
(771,300,o),
(736,209,o),
(669,139,o),
(571,97,o),
(507,97,qs),
(445,98,o),
(349,141,o),
(284,210,o),
(251,298,o),
(251,345,qs),
(251,392,o),
(289,494,o),
(335,539,q),
(333,360,l),
(459,360,l),
(457,460,o),
(453,658,o),
(451,758,q),
(46,723,l),
(49,691,o),
(56,630,o),
(60,598,q),
(230,619,l)
);
}
);
userData = {
assembly = "NPUSHB[ ]	/* 36 values pushed */
46 28 25 9 4 5 0 74 0 0 1 0 133 0 1 2 2 1 89 0 1 1 2 97 0 2 1 2 81 37 35 40 23 3 6 24 
CALL[ ]	/* CallFunction */";
};
width = 966;
}
);
note = uni21BB;
unicode = 8635;
},
{
glyphname = uni21B7;
layers = (
{
layerId = m01;
shapes = (
{
closed = 1;
nodes = (
(819,213,o),
(847,310,o),
(845,361,qs),
(843,445,o),
(786,582,o),
(682,679,o),
(539,733,o),
(452,733,qs),
(364,733,o),
(217,679,o),
(109,578,o),
(48,433,o),
(46,342,q),
(191,342,l),
(192,398,o),
(231,490,o),
(299,555,o),
(391,591,o),
(446,591,qs),
(505,591,o),
(600,553,o),
(666,487,o),
(701,397,o),
(701,346,qs),
(701,312,o),
(681,240,o),
(664,211,q),
(610,388,l),
(480,344,l),
(619,-36,l),
(1001,111,l),
(951,237,l),
(793,171,l)
);
}
);
userData = {
assembly = "NPUSHB[ ]	/* 41 values pushed */
4 3 2 1 0 1 76 32 5 2 1 4 1 73 0 1 0 1 134 0 2 0 0 2 89 0 2 2 0 97 0 0 2 0 81 36 20 44 3 6 25 
CALL[ ]	/* CallFunction */";
};
width = 1047;
}
);
note = uni21B7;
unicode = 8631;
},
{
glyphname = uni21B6;
layers = (
{
layerId = m01;
shapes = (
{
closed = 1;
nodes = (
(46,111,l),
(428,-36,l),
(567,343,l),
(437,387,l),
(383,216,l),
(366,245,o),
(346,312,o),
(346,346,qs),
(346,397,o),
(381,487,o),
(447,553,o),
(542,591,o),
(602,591,qs),
(657,591,o),
(748,555,o),
(815,490,o),
(854,398,o),
(856,342,q),
(1001,342,l),
(999,433,o),
(938,578,o),
(830,679,o),
(683,733,o),
(596,733,qs),
(509,733,o),
(365,680,o),
(261,582,o),
(202,446,o),
(201,362,qs),
(200,311,o),
(228,213,o),
(254,171,q),
(96,237,l)
);
}
);
userData = {
assembly = "NPUSHB[ ]	/* 41 values pushed */
29 28 2 1 2 1 76 32 31 30 27 4 1 73 0 1 2 1 134 0 0 2 2 0 89 0 0 0 2 97 0 2 0 2 81 36 20 39 3 6 25 
CALL[ ]	/* CallFunction */";
};
width = 1047;
}
);
note = uni21B6;
unicode = 8630;
},
{
glyphname = five;
layers = (
{
layerId = m01;
shapes = (
{
closed = 1;
nodes = (
(226,315,o),
(278,335,o),
(310,335,qs),
(335,335,o),
(372,318,o),
(398,291,o),
(411,256,o),
(411,238,qs),
(411,196,o),
(361,142,o),
(306,142,qs),
(266,144,o),
(215,187,o),
(208,219,q),
(49,219,l),
(62,100,o),
(198,-7,o),
(309,-7,qs),
(366,-7,o),
(464,26,o),
(535,91,o),
(576,184,o),
(576,244,qs),
(576,296,o),
(546,381,o),
(487,441,o),
(401,474,o),
(346,474,qs),
(315,474,o),
(252,461,o),
(220,444,q),
(223,473,o),
(228,533,o),
(230,562,q),
(548,562,l),
(548,708,l),
(88,708,l),
(83,607,o),
(68,400,o),
(61,297,q),
(203,297,l)
);
}
);
userData = {
assembly = "PUSHB[ ]	/* 6 values pushed */
9 1 6 2 1 76 
MPPEM[ ]	/* MeasurePixelPerEm */
PUSHB[ ]	/* 1 value pushed */
16 
LT[ ]	/* LessThan */
IF[ ]	/* If */
NPUSHB[ ]	/* 44 values pushed */
8 1 7 6 4 6 7 4 128 0 4 5 5 4 112 0 2 0 6 7 2 6 105 0 1 1 0 95 0 0 0 38 77 0 5 5 3 98 0 3 3 47 3 78 
ELSE[ ]	/* Else */
NPUSHB[ ]	/* 45 values pushed */
8 1 7 6 4 6 7 4 128 0 4 5 6 4 5 126 0 2 0 6 7 2 6 105 0 1 1 0 95 0 0 0 38 77 0 5 5 3 98 0 3 3 47 3 78 
EIF[ ]	/* EndIf */
NPUSHB[ ]	/* 16 values pushed */
0 0 0 40 0 40 38 34 18 40 37 17 19 9 8 29 
CALL[ ]	/* CallFunction */";
};
width = 617;
}
);
note = five;
unicode = 53;
},
{
glyphname = six;
layers = (
{
layerId = m01;
shapes = (
{
closed = 1;
nodes = (
(261,157,o),
(237,184,o),
(226,220,o),
(226,239,qs),
(228,275,o),
(281,327,o),
(322,328,qs),
(373,329,o),
(422,274,o),
(422,232,qs),
(422,194,o),
(369,139,o),
(323,139,qs),
(298,140,o)
);
},
{
closed = 1;
nodes = (
(578,563,o),
(536,641,o),
(471,692,o),
(391,716,o),
(343,716,qs),
(264,715,o),
(148,652,o),
(75,543,o),
(45,412,o),
(45,342,qs),
(45,273,o),
(75,147,o),
(143,51,o),
(253,-6,o),
(332,-6,qs),
(383,-6,o),
(474,28,o),
(543,91,o),
(584,181,o),
(584,238,qs),
(584,348,o),
(463,465,o),
(357,465,qs),
(339,465,o),
(296,458,o),
(253,442,o),
(211,415,o),
(194,395,q),
(194,427,o),
(211,490,o),
(246,539,o),
(300,570,o),
(336,570,qs),
(372,570,o),
(422,538,o),
(430,509,q),
(583,509,l)
);
}
);
userData = {
assembly = "NPUSHB[ ]	/* 70 values pushed */
22 1 1 3 1 76 8 1 6 2 3 2 6 3 128 0 3 0 1 0 3 1 105 0 2 2 5 97 0 5 5 46 77 7 1 0 0 4 97 0 4 4 47 4 78 14 14 1 0 14 50 14 50 46 44 36 34 28 26 18 16 7 5 0 13 1 13 9 8 22 
CALL[ ]	/* CallFunction */";
};
width = 625;
}
);
note = six;
unicode = 54;
},
{
glyphname = dieresis;
layers = (
{
layerId = m01;
shapes = (
{
closed = 1;
nodes = (
(94,713,o),
(94,672,qs),
(94,629,o),
(146,583,o),
(184,583,qs),
(222,583,o),
(274,629,o),
(274,672,qs),
(274,714,o),
(222,760,o),
(184,760,qs),
(146,760,o)
);
},
{
closed = 1;
nodes = (
(362,713,o),
(362,672,qs),
(362,629,o),
(414,583,o),
(452,583,qs),
(490,583,o),
(543,629,o),
(543,672,qs),
(543,714,o),
(490,760,o),
(452,760,qs),
(415,760,o)
);
}
);
userData = {
assembly = "PUSHB[ ]	/* 2 values pushed */
6 100 
WCVTP[ ]	/* WriteCVTInPixels */
NPUSHB[ ]	/* 42 values pushed */
5 2 4 3 0 1 1 0 89 5 2 4 3 0 0 1 97 3 1 1 0 1 81 13 12 1 0 19 17 12 23 13 23 7 5 0 11 1 11 6 8 22 
CALL[ ]	/* CallFunction */
PUSHB[ ]	/* 2 values pushed */
6 0 
WCVTP[ ]	/* WriteCVTInPixels */";
};
width = 637;
}
);
note = dieresis;
unicode = 168;
},
{
glyphname = cedilla;
layers = (
{
layerId = m01;
shapes = (
{
closed = 1;
nodes = (
(206,-98,l),
(214,-96,o),
(242,-93,o),
(257,-93,qs),
(282,-93,o),
(316,-110,o),
(316,-127,qs),
(316,-144,o),
(288,-163,o),
(256,-163,qs),
(245,-163,o),
(219,-160,o),
(204,-158,q),
(204,-249,l),
(237,-255,o),
(270,-255,qs),
(299,-255,o),
(357,-240,o),
(404,-208,o),
(433,-158,o),
(433,-122,qs),
(433,-71,o),
(372,-22,o),
(328,-22,q),
(348,39,l),
(249,39,l)
);
}
);
userData = {
assembly = "PUSHB[ ]	/* 2 values pushed */
6 100 
WCVTP[ ]	/* WriteCVTInPixels */
NPUSHB[ ]	/* 57 values pushed */
24 12 2 2 3 11 1 1 2 2 76 0 0 4 3 4 0 3 128 5 1 4 0 3 2 4 3 105 0 2 1 1 2 89 0 2 2 1 97 0 1 2 1 81 0 0 0 25 0 25 36 36 38 17 6 8 26 
CALL[ ]	/* CallFunction */
PUSHB[ ]	/* 2 values pushed */
6 0 
WCVTP[ ]	/* WriteCVTInPixels */";
};
width = 621;
}
);
note = cedilla;
unicode = 184;
},
{
glyphname = dotlessi;
layers = (
{
layerId = m01;
shapes = (
{
closed = 1;
nodes = (
(55,527,l),
(55,0,l),
(212,0,l),
(212,527,l)
);
}
);
userData = {
assembly = "NPUSHB[ ]	/* 16 values pushed */
0 1 1 41 77 0 0 0 39 0 78 17 16 2 8 24 
CALL[ ]	/* CallFunction */";
};
width = 267;
}
);
note = dotlessi;
unicode = 305;
},
{
glyphname = ccedilla;
kernLeft = d;
layers = (
{
layerId = m01;
shapes = (
{
closed = 1;
nodes = (
(226,155,o),
(200,189,o),
(189,234,o),
(189,261,qs),
(189,285,o),
(199,332,o),
(223,370,o),
(265,393,o),
(295,393,qs),
(330,393,o),
(374,360,o),
(380,333,q),
(539,333,l),
(534,384,o),
(495,461,o),
(432,512,o),
(348,538,o),
(300,538,qs),
(237,538,o),
(138,500,o),
(69,429,o),
(31,327,o),
(31,264,qs),
(31,150,o),
(135,12,o),
(236,-3,q),
(206,-112,l),
(215,-111,o),
(244,-108,o),
(262,-108,qs),
(285,-108,o),
(317,-123,o),
(317,-142,qs),
(317,-160,o),
(289,-180,o),
(256,-180,qs),
(244,-180,o),
(219,-177,o),
(204,-175,q),
(204,-267,l),
(220,-270,o),
(253,-274,o),
(274,-274,qs),
(304,-274,o),
(362,-257,o),
(407,-222,o),
(435,-171,o),
(435,-135,qs),
(435,-82,o),
(378,-35,o),
(337,-35,qs),
(329,-35,l),
(337,-5,l),
(377,-1,o),
(448,28,o),
(503,78,o),
(538,148,o),
(542,195,q),
(380,195,l),
(375,169,o),
(331,134,o),
(295,134,qs),
(266,134,o)
);
}
);
userData = {
assembly = "NPUSHB[ ]	/* 15 values pushed */
36 1 2 0 35 23 2 4 5 22 1 3 4 3 76 
MPPEM[ ]	/* MeasurePixelPerEm */
PUSHB[ ]	/* 1 value pushed */
14 
LT[ ]	/* LessThan */
IF[ ]	/* If */
NPUSHB[ ]	/* 53 values pushed */
0 7 8 1 8 7 1 128 0 1 0 8 1 0 126 0 2 0 5 0 2 5 128 9 1 0 0 5 4 0 5 105 0 8 8 6 97 0 6 6 49 77 0 4 4 3 97 0 3 3 51 3 78 
ELSE[ ]	/* Else */
NPUSHB[ ]	/* 50 values pushed */
0 7 8 1 8 7 1 128 0 1 0 8 1 0 126 0 2 0 5 0 2 5 128 9 1 0 0 5 4 0 5 105 0 4 0 3 4 3 101 0 8 8 6 97 0 6 6 49 8 78 
EIF[ ]	/* EndIf */
NPUSHB[ ]	/* 25 values pushed */
1 0 54 52 50 49 45 43 33 31 27 25 20 18 12 10 4 3 0 62 1 62 10 8 22 
CALL[ ]	/* CallFunction */";
};
width = 571;
}
);
note = ccedilla;
unicode = 231;
},
{
glyphname = uni0162;
kernLeft = uni0422;
kernRight = uni0422;
layers = (
{
layerId = m01;
shapes = (
{
closed = 1;
nodes = (
(222,0,l),
(252,0,l),
(220,-110,l),
(228,-108,o),
(255,-106,o),
(270,-106,qs),
(296,-106,o),
(330,-122,o),
(330,-141,qs),
(330,-156,o),
(303,-176,o),
(271,-176,qs),
(260,-176,o),
(234,-173,o),
(219,-171,q),
(219,-194,o),
(218,-239,o),
(218,-262,q),
(235,-264,o),
(267,-268,o),
(288,-268,qs),
(317,-268,o),
(373,-253,o),
(417,-220,o),
(446,-171,o),
(448,-136,qs),
(448,-109,o),
(433,-71,o),
(406,-47,o),
(370,-35,o),
(350,-35,qs),
(342,-35,l),
(352,0,l),
(385,0,l),
(385,559,l),
(601,559,l),
(601,708,l),
(5,708,l),
(5,559,l),
(222,559,l)
);
}
);
userData = {
assembly = "NPUSHB[ ]	/* 11 values pushed */
36 24 2 5 6 21 1 4 5 2 76 
MPPEM[ ]	/* MeasurePixelPerEm */
PUSHB[ ]	/* 1 value pushed */
14 
LT[ ]	/* LessThan */
IF[ ]	/* If */
NPUSHB[ ]	/* 44 values pushed */
0 3 2 6 2 3 6 128 0 6 5 2 6 5 126 9 8 2 1 1 0 95 0 0 0 38 77 7 1 2 2 39 77 0 5 5 4 97 0 4 4 51 4 78 
ELSE[ ]	/* Else */
NPUSHB[ ]	/* 41 values pushed */
0 3 2 6 2 3 6 128 0 6 5 2 6 5 126 0 5 0 4 5 4 101 9 8 2 1 1 0 95 0 0 0 38 77 7 1 2 2 39 2 78 
EIF[ ]	/* EndIf */
NPUSHB[ ]	/* 17 values pushed */
0 0 0 39 0 39 19 36 39 40 33 17 17 17 10 8 30 
CALL[ ]	/* CallFunction */";
};
width = 606;
}
);
note = uni0162;
unicode = 354;
},
{
glyphname = uni0163;
kernLeft = t;
layers = (
{
layerId = m01;
shapes = (
{
closed = 1;
nodes = (
(363,527,l),
(251,527,l),
(251,664,l),
(94,664,l),
(94,527,l),
(16,527,l),
(16,386,l),
(94,386,l),
(94,176,ls),
(94,115,o),
(131,38,o),
(174,20,q),
(135,-112,l),
(143,-110,o),
(171,-108,o),
(186,-108,qs),
(197,-108,o),
(219,-110,o),
(236,-117,o),
(246,-131,o),
(246,-142,qs),
(246,-160,o),
(219,-180,o),
(186,-180,qs),
(175,-180,o),
(149,-177,o),
(134,-175,q),
(134,-267,l),
(148,-270,o),
(178,-274,o),
(195,-274,qs),
(273,-274,o),
(364,-206,o),
(366,-139,qs),
(366,-85,o),
(309,-35,o),
(267,-35,qs),
(259,-35,l),
(269,0,l),
(358,0,l),
(358,140,l),
(308,140,ls),
(275,140,o),
(251,173,o),
(251,199,qs),
(251,386,l),
(363,386,l)
);
}
);
userData = {
assembly = "NPUSHB[ ]	/* 15 values pushed */
34 1 1 0 33 19 2 4 5 18 1 3 4 3 76 
MPPEM[ ]	/* MeasurePixelPerEm */
PUSHB[ ]	/* 1 value pushed */
14 
LT[ ]	/* LessThan */
IF[ ]	/* If */
NPUSHB[ ]	/* 50 values pushed */
0 2 1 5 1 2 5 128 0 8 0 5 4 8 5 105 11 10 2 6 6 7 95 9 1 7 7 41 77 0 0 0 1 95 0 1 1 39 77 0 4 4 3 98 0 3 3 51 3 78 
ELSE[ ]	/* Else */
NPUSHB[ ]	/* 47 values pushed */
0 2 1 5 1 2 5 128 0 8 0 5 4 8 5 105 0 4 0 3 4 3 102 11 10 2 6 6 7 95 9 1 7 7 41 77 0 0 0 1 95 0 1 1 39 1 78 
EIF[ ]	/* EndIf */
NPUSHB[ ]	/* 20 values pushed */
0 0 0 46 0 46 45 44 17 17 23 38 37 36 33 17 35 12 8 31 
CALL[ ]	/* CallFunction */";
};
width = 392;
}
);
note = uni0163;
unicode = 355;
},
{
glyphname = Ccedilla;
kernLeft = O;
kernRight = D;
layers = (
{
layerId = m01;
shapes = (
{
closed = 1;
nodes = (
(223,472,o),
(266,531,o),
(334,567,o),
(383,567,qs),
(445,567,o),
(519,511,o),
(531,461,q),
(686,461,l),
(680,527,o),
(628,623,o),
(547,686,o),
(442,717,o),
(382,717,qs),
(301,717,o),
(172,664,o),
(83,568,o),
(35,435,o),
(35,355,qs),
(35,281,o),
(73,156,o),
(147,63,o),
(255,5,o),
(324,-3,q),
(294,-109,l),
(301,-107,o),
(328,-105,o),
(344,-105,qs),
(371,-105,o),
(404,-120,o),
(404,-138,qs),
(404,-155,o),
(376,-174,o),
(343,-174,qs),
(332,-174,o),
(307,-172,o),
(292,-170,q),
(292,-261,l),
(308,-263,o),
(340,-267,o),
(361,-267,qs),
(390,-267,o),
(448,-251,o),
(493,-218,o),
(521,-168,o),
(521,-133,qs),
(521,-81,o),
(464,-34,o),
(424,-34,qs),
(416,-34,l),
(424,-4,l),
(475,1,o),
(568,38,o),
(639,101,o),
(685,190,o),
(690,247,q),
(533,247,l),
(522,197,o),
(445,143,o),
(383,143,qs),
(335,143,o),
(266,180,o),
(223,240,o),
(203,316,o),
(203,356,qs),
(203,396,o)
);
}
);
userData = {
assembly = "NPUSHB[ ]	/* 15 values pushed */
41 1 2 0 40 28 2 4 5 27 1 3 4 3 76 
MPPEM[ ]	/* MeasurePixelPerEm */
PUSHB[ ]	/* 1 value pushed */
14 
LT[ ]	/* LessThan */
IF[ ]	/* If */
NPUSHB[ ]	/* 52 values pushed */
0 7 8 1 8 7 1 128 0 1 0 8 1 0 126 0 2 0 5 0 2 5 128 0 0 0 5 4 0 5 105 0 8 8 6 97 0 6 6 46 77 0 4 4 3 97 0 3 3 51 3 78 
ELSE[ ]	/* Else */
NPUSHB[ ]	/* 49 values pushed */
0 7 8 1 8 7 1 128 0 1 0 8 1 0 126 0 2 0 5 0 2 5 128 0 0 0 5 4 0 5 105 0 4 0 3 4 3 101 0 8 8 6 97 0 6 6 46 8 78 
EIF[ ]	/* EndIf */
NPUSHB[ ]	/* 12 values pushed */
34 20 44 36 37 38 38 18 36 9 8 31 
CALL[ ]	/* CallFunction */";
};
width = 725;
}
);
note = Ccedilla;
unicode = 199;
},
{
glyphname = scedilla;
kernLeft = d;
layers = (
{
layerId = m01;
shapes = (
{
closed = 1;
nodes = (
(326,389,o),
(329,363,q),
(482,363,l),
(478,410,o),
(440,477,o),
(382,519,o),
(305,538,o),
(263,538,qs),
(222,538,o),
(144,520,o),
(83,481,o),
(44,417,o),
(44,371,qs),
(44,321,o),
(90,263,o),
(162,228,o),
(249,209,o),
(289,199,qs),
(313,194,o),
(341,176,o),
(341,159,qs),
(341,140,o),
(310,121,o),
(280,121,qs),
(247,121,o),
(198,146,o),
(192,173,q),
(30,173,l),
(34,132,o),
(67,72,o),
(115,29,o),
(175,4,o),
(206,-1,q),
(174,-113,l),
(183,-112,o),
(213,-109,o),
(228,-109,qs),
(254,-109,o),
(285,-124,o),
(285,-142,qs),
(285,-160,o),
(257,-180,o),
(224,-180,qs),
(213,-180,o),
(188,-177,o),
(173,-175,q),
(173,-198,o),
(172,-243,o),
(172,-267,q),
(190,-270,o),
(223,-273,o),
(242,-273,qs),
(271,-273,o),
(327,-258,o),
(374,-224,o),
(403,-172,o),
(403,-135,qs),
(402,-84,o),
(345,-37,o),
(305,-37,qs),
(297,-37,l),
(305,-7,l),
(341,-4,o),
(409,17,o),
(463,59,o),
(495,121,o),
(496,166,qs),
(495,203,o),
(471,255,o),
(430,289,o),
(378,309,o),
(321,322,o),
(263,332,o),
(237,339,qs),
(214,345,o),
(197,360,o),
(197,374,qs),
(198,393,o),
(232,409,o),
(256,409,qs),
(284,409,o)
);
}
);
userData = {
assembly = "NPUSHB[ ]	/* 15 values pushed */
47 1 1 6 46 34 2 3 4 31 1 2 3 3 76 
MPPEM[ ]	/* MeasurePixelPerEm */
PUSHB[ ]	/* 1 value pushed */
14 
LT[ ]	/* LessThan */
IF[ ]	/* If */
NPUSHB[ ]	/* 53 values pushed */
0 8 0 5 0 8 5 128 0 5 6 0 5 6 126 0 1 6 4 6 1 4 128 0 6 0 4 3 6 4 105 9 1 0 0 7 97 0 7 7 49 77 0 3 3 2 97 0 2 2 51 2 78 
ELSE[ ]	/* Else */
NPUSHB[ ]	/* 50 values pushed */
0 8 0 5 0 8 5 128 0 5 6 0 5 6 126 0 1 6 4 6 1 4 128 0 6 0 4 3 6 4 105 0 3 0 2 3 2 101 9 1 0 0 7 97 0 7 7 49 0 78 
EIF[ ]	/* EndIf */
NPUSHB[ ]	/* 25 values pushed */
1 0 78 77 73 71 57 55 53 52 44 42 38 36 29 27 21 19 0 80 1 80 10 8 22 
CALL[ ]	/* CallFunction */";
};
width = 527;
}
);
note = scedilla;
unicode = 351;
},
{
glyphname = uni21A9;
layers = (
{
layerId = m01;
shapes = (
{
closed = 1;
nodes = (
(836,536,o),
(912,507,o),
(967,455,o),
(999,382,o),
(999,338,qs),
(999,294,o),
(968,220,o),
(913,167,o),
(837,137,o),
(793,137,qs),
(322,137,l),
(504,290,l),
(418,399,l),
(46,69,l),
(419,-262,l),
(504,-154,l),
(321,0,l),
(811,0,ls),
(882,0,o),
(1003,52,o),
(1092,143,o),
(1143,265,o),
(1143,336,qs),
(1143,408,o),
(1093,531,o),
(1004,622,o),
(883,674,o),
(811,674,qs),
(167,674,l),
(167,536,l),
(793,536,ls)
);
}
);
userData = {
assembly = "NPUSHB[ ]	/* 53 values pushed */
18 17 2 2 3 16 1 1 2 2 76 15 14 2 1 73 0 0 4 1 3 2 0 3 103 0 2 1 1 2 87 0 2 2 1 95 0 1 2 1 79 0 0 0 30 0 29 38 40 33 5 6 25 
CALL[ ]	/* CallFunction */";
};
width = 1189;
}
);
note = uni21A9;
unicode = 8617;
},
{
glyphname = uni2713;
layers = (
{
layerId = m01;
shapes = (
{
closed = 1;
nodes = (
(46,372,l),
(402,-16,l),
(1046,723,l),
(938,826,l),
(400,209,l),
(151,477,l)
);
}
);
userData = {
assembly = "PUSHB[ ]	/* 4 values pushed */
3 1 1 50 
CALL[ ]	/* CallFunction */";
};
width = 1092;
}
);
note = uni2713;
unicode = 10003;
},
{
glyphname = divide;
layers = (
{
layerId = m01;
shapes = (
{
closed = 1;
nodes = (
(521,428,l),
(46,428,l),
(46,294,l),
(521,294,l)
);
},
{
closed = 1;
nodes = (
(189,603,o),
(189,560,qs),
(189,514,o),
(243,468,o),
(282,468,qs),
(322,468,o),
(374,515,o),
(374,560,qs),
(374,603,o),
(322,653,o),
(282,653,qs),
(244,653,o)
);
},
{
closed = 1;
nodes = (
(189,203,o),
(189,159,qs),
(189,114,o),
(243,67,o),
(282,67,qs),
(322,67,o),
(374,114,o),
(374,159,qs),
(374,203,o),
(322,253,o),
(282,253,qs),
(244,253,o)
);
}
);
userData = {
assembly = "NPUSHB[ ]	/* 62 values pushed */
7 1 2 0 3 0 2 3 105 0 0 6 1 1 4 0 1 103 8 1 4 5 5 4 89 8 1 4 4 5 97 0 5 4 5 81 17 16 5 4 0 0 23 21 16 27 17 27 11 9 4 15 5 15 0 3 0 3 17 9 8 23 
CALL[ ]	/* CallFunction */";
};
width = 567;
}
);
note = divide;
unicode = 247;
},
{
glyphname = multiply;
layers = (
{
layerId = m01;
shapes = (
{
closed = 1;
nodes = (
(547,211,l),
(393,361,l),
(545,512,l),
(447,606,l),
(299,455,l),
(147,606,l),
(50,511,l),
(202,361,l),
(50,210,l),
(146,113,l),
(298,267,l),
(449,113,l)
);
}
);
userData = {
assembly = "PUSHB[ ]	/* 4 values pushed */
5 1 1 50 
CALL[ ]	/* CallFunction */";
};
width = 597;
}
);
note = multiply;
unicode = 215;
},
{
glyphname = yen;
layers = (
{
layerId = m01;
shapes = (
{
closed = 1;
nodes = (
(214,708,l),
(26,708,l),
(79,621,o),
(184,450,o),
(238,363,q),
(239,363,l),
(142,363,l),
(142,248,l),
(297,248,l),
(297,193,l),
(142,193,l),
(142,80,l),
(297,80,l),
(297,0,l),
(460,0,l),
(460,80,l),
(614,80,l),
(614,193,l),
(460,193,l),
(460,248,l),
(614,248,l),
(614,363,l),
(517,363,l),
(570,450,o),
(675,621,o),
(729,708,q),
(542,708,l),
(380,413,l)
);
}
);
userData = {
assembly = "NPUSHB[ ]	/* 54 values pushed */
27 1 1 0 1 76 9 1 1 8 1 2 3 1 2 104 7 1 3 6 1 4 5 3 4 103 10 1 0 0 38 77 0 5 5 39 5 78 26 25 21 20 17 17 17 17 17 17 17 19 16 11 8 31 
CALL[ ]	/* CallFunction */";
};
width = 755;
}
);
note = yen;
unicode = 165;
},
{
glyphname = uni20BD;
layers = (
{
layerId = m01;
shapes = (
{
closed = 1;
nodes = (
(127,383,l),
(128,383,l),
(46,383,l),
(46,253,l),
(127,253,l),
(127,193,l),
(46,193,l),
(46,72,l),
(127,72,l),
(127,0,l),
(290,0,l),
(290,72,l),
(472,72,l),
(472,193,l),
(290,193,l),
(290,253,l),
(403,253,ls),
(458,253,o),
(555,278,o),
(627,333,o),
(669,419,o),
(669,480,qs),
(669,547,o),
(626,635,o),
(550,687,o),
(448,708,o),
(390,708,qs),
(127,708,l)
);
},
{
closed = 1;
nodes = (
(290,559,l),
(384,559,ls),
(442,559,o),
(508,523,o),
(508,472,qs),
(508,448,o),
(489,414,o),
(456,393,o),
(411,383,o),
(385,383,qs),
(290,383,l)
);
}
);
userData = {
assembly = "NPUSHB[ ]	/* 71 values pushed */
12 9 2 8 7 1 1 2 8 1 103 6 1 2 5 1 3 4 2 3 103 0 10 10 0 95 11 1 0 0 38 77 0 4 4 39 4 78 29 28 1 0 37 35 28 38 29 38 25 24 23 22 21 20 19 18 17 16 15 14 13 12 11 9 0 27 1 27 13 8 22 
CALL[ ]	/* CallFunction */";
};
width = 705;
}
);
note = uni20BD;
unicode = 8381;
},
{
glyphname = uni20B4;
layers = (
{
layerId = m01;
shapes = (
{
closed = 1;
nodes = (
(180,695,o),
(106,648,o),
(60,569,o),
(60,510,q),
(216,510,l),
(218,528,o),
(236,552,o),
(262,564,o),
(289,569,o),
(309,569,qs),
(348,568,o),
(388,538,o),
(388,516,qs),
(388,504,o),
(374,477,o),
(360,469,q),
(34,469,l),
(34,373,l),
(233,373,l),
(219,365,o),
(175,338,o),
(158,328,q),
(34,328,l),
(34,233,l),
(79,233,l),
(70,222,o),
(59,183,o),
(59,164,qs),
(59,115,o),
(103,48,o),
(171,8,o),
(253,-10,o),
(291,-10,qs),
(340,-10,o),
(433,11,o),
(505,58,o),
(549,136,o),
(549,193,q),
(394,193,l),
(389,161,o),
(339,135,o),
(298,136,qs),
(262,137,o),
(218,165,o),
(218,193,qs),
(218,203,o),
(231,226,o),
(242,233,q),
(565,233,l),
(565,328,l),
(374,328,l),
(446,373,l),
(565,373,l),
(565,470,l),
(526,470,l),
(537,484,o),
(548,525,o),
(548,542,qs),
(548,591,o),
(505,657,o),
(439,698,o),
(358,715,o),
(319,715,qs),
(272,715,o)
);
}
);
userData = {
assembly = "NPUSHB[ ]	/* 93 values pushed */
0 13 12 1 12 13 1 128 0 6 4 5 4 6 5 128 11 1 1 10 1 2 3 1 2 103 9 1 3 8 1 4 6 3 4 103 0 12 12 0 97 14 1 0 0 46 77 0 5 5 7 97 0 7 7 47 7 78 1 0 59 58 54 52 47 46 45 44 41 40 39 38 31 29 25 24 22 20 15 14 13 12 11 10 9 8 0 63 1 63 15 8 22 
CALL[ ]	/* CallFunction */";
};
width = 599;
}
);
note = uni20B4;
unicode = 8372;
},
{
glyphname = sterling;
layers = (
{
layerId = m01;
shapes = (
{
closed = 1;
nodes = (
(287,506,ls),
(287,538,o),
(319,587,o),
(360,587,qs),
(380,587,o),
(407,575,o),
(423,554,o),
(430,526,o),
(431,511,q),
(579,511,l),
(575,620,o),
(463,717,o),
(360,717,qs),
(311,717,o),
(227,691,o),
(165,637,o),
(129,556,o),
(129,502,qs),
(129,407,l),
(130,407,l),
(46,407,l),
(46,268,l),
(129,268,l),
(129,147,l),
(47,147,l),
(47,0,l),
(587,0,l),
(587,147,l),
(287,147,l),
(287,268,l),
(496,268,l),
(496,407,l),
(287,407,l)
);
}
);
userData = {
assembly = "MPPEM[ ]	/* MeasurePixelPerEm */
PUSHB[ ]	/* 1 value pushed */
16 
LT[ ]	/* LessThan */
IF[ ]	/* If */
NPUSHB[ ]	/* 40 values pushed */
0 7 8 5 8 7 114 10 9 2 5 4 1 0 1 5 0 103 0 8 8 6 97 0 6 6 46 77 3 1 1 1 2 95 0 2 2 39 2 78 
ELSE[ ]	/* Else */
NPUSHB[ ]	/* 41 values pushed */
0 7 8 5 8 7 5 128 10 9 2 5 4 1 0 1 5 0 103 0 8 8 6 97 0 6 6 46 77 3 1 1 1 2 95 0 2 2 39 2 78 
EIF[ ]	/* EndIf */
NPUSHB[ ]	/* 18 values pushed */
0 0 0 32 0 32 36 18 38 17 17 17 17 17 17 11 8 31 
CALL[ ]	/* CallFunction */";
};
width = 633;
}
);
note = sterling;
unicode = 163;
},
{
glyphname = Scedilla;
kernLeft = O;
kernRight = D;
layers = (
{
layerId = m01;
shapes = (
{
closed = 1;
nodes = (
(589,549,o),
(545,634,o),
(475,690,o),
(383,717,o),
(329,717,qs),
(282,717,o),
(185,696,o),
(106,646,o),
(56,563,o),
(56,501,qs),
(56,448,o),
(92,377,o),
(157,328,o),
(246,297,o),
(299,285,qs),
(363,270,ls),
(380,266,o),
(410,256,o),
(433,242,o),
(447,221,o),
(447,206,qs),
(447,188,o),
(430,163,o),
(403,149,o),
(368,143,o),
(349,143,qs),
(323,143,o),
(274,151,o),
(234,171,o),
(206,204,o),
(200,229,q),
(35,229,l),
(39,175,o),
(80,93,o),
(143,36,o),
(224,3,o),
(270,-3,q),
(240,-112,l),
(250,-110,o),
(278,-108,o),
(293,-108,qs),
(318,-108,o),
(350,-122,o),
(350,-141,qs),
(350,-158,o),
(322,-177,o),
(290,-177,qs),
(279,-177,o),
(254,-175,o),
(238,-172,q),
(238,-263,l),
(254,-266,o),
(286,-270,o),
(307,-270,qs),
(335,-270,o),
(393,-254,o),
(438,-221,o),
(467,-171,o),
(467,-136,qs),
(467,-83,o),
(410,-36,o),
(370,-36,qs),
(362,-36,l),
(369,-6,l),
(418,-3,o),
(506,25,o),
(572,79,o),
(611,160,o),
(611,216,qs),
(609,267,o),
(577,334,o),
(525,378,o),
(455,404,o),
(416,413,qs),
(340,431,ls),
(314,437,o),
(270,450,o),
(237,467,o),
(218,491,o),
(218,508,qs),
(218,524,o),
(235,548,o),
(263,563,o),
(298,570,o),
(316,570,qs),
(367,570,o),
(430,530,o),
(436,492,q),
(595,492,l)
);
}
);
userData = {
assembly = "NPUSHB[ ]	/* 15 values pushed */
51 1 1 7 50 38 2 4 5 37 1 3 4 3 76 
MPPEM[ ]	/* MeasurePixelPerEm */
PUSHB[ ]	/* 1 value pushed */
14 
LT[ ]	/* LessThan */
IF[ ]	/* If */
NPUSHB[ ]	/* 64 values pushed */
10 1 9 0 6 0 9 6 128 0 6 7 0 6 7 126 0 7 1 0 7 1 126 0 2 1 5 1 2 5 128 0 5 4 1 5 4 126 0 0 0 8 97 0 8 8 46 77 0 1 1 47 77 0 4 4 3 98 0 3 3 51 3 78 
ELSE[ ]	/* Else */
NPUSHB[ ]	/* 61 values pushed */
10 1 9 0 6 0 9 6 128 0 6 7 0 6 7 126 0 7 1 0 7 1 126 0 2 1 5 1 2 5 128 0 5 4 1 5 4 126 0 4 0 3 4 3 102 0 0 0 8 97 0 8 8 46 77 0 1 1 47 1 78 
EIF[ ]	/* EndIf */
NPUSHB[ ]	/* 26 values pushed */
0 0 0 88 0 88 84 82 63 61 57 56 48 46 42 40 35 33 27 25 24 23 34 11 8 23 
CALL[ ]	/* CallFunction */";
};
width = 647;
}
);
note = Scedilla;
unicode = 350;
},
{
glyphname = t_alt;
kernLeft = t;
layers = (
{
layerId = m01;
shapes = (
{
closed = 1;
nodes = (
(363,527,l),
(251,527,l),
(251,664,l),
(121,664,l),
(97,527,l),
(16,527,l),
(16,386,l),
(94,386,l),
(94,176,ls),
(94,77,o),
(195,-2,o),
(301,0,qs),
(358,0,l),
(358,140,l),
(309,140,ls),
(277,140,o),
(251,174,o),
(251,200,qs),
(251,386,l),
(363,386,l)
);
}
);
userData = {
assembly = "NPUSHB[ ]	/* 44 values pushed */
0 4 3 4 133 7 6 2 2 2 3 95 5 1 3 3 22 77 0 0 0 1 98 0 1 1 21 1 78 0 0 0 19 0 19 17 17 17 19 33 35 8 7 28 
CALL[ ]	/* CallFunction */";
};
width = 389;
}
);
note = t_alt;
},
{
glyphname = alt_1;
layers = (
{
layerId = m01;
shapes = (
{
closed = 1;
nodes = (
(34,145,l),
(34,0,l),
(522,0,l),
(522,145,l),
(368,145,l),
(368,708,l),
(247,708,l),
(234,683,o),
(193,651,o),
(143,633,o),
(85,626,o),
(56,626,q),
(56,505,l),
(204,505,l),
(204,145,l)
);
}
);
userData = {
assembly = "NPUSHB[ ]	/* 34 values pushed */
0 1 0 0 3 1 0 103 0 2 2 20 77 5 1 3 3 4 96 0 4 4 21 4 78 17 17 17 20 17 16 6 7 28 
CALL[ ]	/* CallFunction */";
};
width = 528;
}
);
note = alt_1;
},
{
glyphname = colon.uc;
layers = (
{
layerId = m01;
shapes = (
{
closed = 1;
nodes = (
(54,554,o),
(54,509,qs),
(54,461,o),
(109,413,o),
(150,413,qs),
(192,413,o),
(246,461,o),
(246,509,qs),
(246,554,o),
(192,606,o),
(150,606,qs),
(110,606,o)
);
},
{
closed = 1;
nodes = (
(54,210,o),
(54,165,qs),
(54,117,o),
(109,69,o),
(150,69,qs),
(192,69,o),
(246,117,o),
(246,165,qs),
(246,210,o),
(192,262,o),
(150,262,qs),
(110,262,o)
);
}
);
userData = {
assembly = "NPUSHB[ ]	/* 46 values pushed */
4 1 0 0 1 2 0 1 105 5 1 2 3 3 2 89 5 1 2 2 3 97 0 3 2 3 81 13 12 1 0 19 17 12 23 13 23 7 5 0 11 1 11 6 7 22 
CALL[ ]	/* CallFunction */";
};
width = 300;
}
);
note = colon.uc;
},
{
glyphname = t2.alt;
layers = (
{
layerId = m01;
shapes = (
{
closed = 1;
nodes = (
(253,188,o),
(253,221,qs),
(253,386,l),
(409,386,l),
(409,527,l),
(253,527,l),
(253,665,l),
(95,665,l),
(95,527,l),
(16,527,l),
(16,386,l),
(95,386,l),
(95,184,ls),
(95,94,o),
(190,-7,o),
(287,-7,qs),
(302,-7,o),
(341,-2,o),
(382,9,o),
(421,26,o),
(436,38,q),
(394,162,l),
(384,155,o),
(343,138,o),
(320,138,qs),
(280,139,o)
);
}
);
userData = {
assembly = "NPUSHB[ ]	/* 60 values pushed */
3 1 0 2 4 1 1 0 2 76 0 4 3 4 133 6 1 2 2 3 95 5 1 3 3 22 77 7 1 0 0 1 98 0 1 1 28 1 78 1 0 22 21 20 19 18 17 16 15 14 13 10 8 0 25 1 25 8 7 22 
CALL[ ]	/* CallFunction */";
};
width = 438;
}
);
note = t2.alt;
},
{
glyphname = hyphen.uc;
layers = (
{
layerId = m01;
shapes = (
{
closed = 1;
nodes = (
(61,428,l),
(61,290,l),
(404,290,l),
(404,428,l)
);
}
);
userData = {
assembly = "NPUSHB[ ]	/* 21 values pushed */
0 1 0 0 1 87 0 1 1 0 95 0 0 1 0 79 17 16 2 7 24 
CALL[ ]	/* CallFunction */";
};
width = 465;
}
);
note = hyphen.uc;
},
{
glyphname = uni00AD.uc;
layers = (
{
layerId = m01;
shapes = (
{
closed = 1;
nodes = (
(61,428,l),
(61,290,l),
(404,290,l),
(404,428,l)
);
}
);
userData = {
assembly = "NPUSHB[ ]	/* 21 values pushed */
0 1 0 0 1 87 0 1 1 0 95 0 0 1 0 79 17 16 2 7 24 
CALL[ ]	/* CallFunction */";
};
width = 465;
}
);
note = uni00AD.uc;
},
{
glyphname = endash.uc;
layers = (
{
layerId = m01;
shapes = (
{
closed = 1;
nodes = (
(571,428,l),
(61,428,l),
(61,290,l),
(571,290,l)
);
}
);
userData = {
assembly = "NPUSHB[ ]	/* 27 values pushed */
0 0 1 1 0 87 0 0 0 1 95 2 1 1 0 1 79 0 0 0 3 0 3 17 3 7 23 
CALL[ ]	/* CallFunction */";
};
width = 632;
}
);
note = endash.uc;
},
{
glyphname = emdash.uc;
layers = (
{
layerId = m01;
shapes = (
{
closed = 1;
nodes = (
(791,428,l),
(61,428,l),
(61,290,l),
(791,290,l)
);
}
);
userData = {
assembly = "NPUSHB[ ]	/* 27 values pushed */
0 0 1 1 0 87 0 0 0 1 95 2 1 1 0 1 79 0 0 0 3 0 3 17 3 7 23 
CALL[ ]	/* CallFunction */";
};
width = 852;
}
);
note = emdash.uc;
},
{
glyphname = uni2117;
layers = (
{
layerId = m01;
shapes = (
{
closed = 1;
nodes = (
(703,-29,o),
(812,75,o),
(872,225,o),
(872,321,qs),
(872,412,o),
(809,562,o),
(698,669,o),
(548,727,o),
(461,727,qs),
(372,727,o),
(220,670,o),
(109,565,o),
(46,415,o),
(46,321,qs),
(46,225,o),
(108,74,o),
(218,-29,o),
(370,-84,o),
(461,-84,qs),
(552,-84,o)
);
},
{
closed = 1;
nodes = (
(284,71,o),
(208,146,o),
(168,254,o),
(168,320,qs),
(168,385,o),
(209,492,o),
(286,568,o),
(396,610,o),
(465,610,qs),
(534,610,o),
(642,567,o),
(717,491,o),
(756,384,o),
(756,320,qs),
(756,254,o),
(718,147,o),
(645,71,o),
(536,30,o),
(465,30,qs),
(394,30,o)
);
},
{
closed = 1;
nodes = (
(530,219,o),
(593,238,o),
(640,278,o),
(667,337,o),
(668,378,qs),
(668,423,o),
(641,484,o),
(593,522,o),
(527,538,o),
(488,538,qs),
(315,538,l),
(315,87,l),
(425,87,l),
(425,219,l),
(493,219,ls)
);
},
{
closed = 1;
nodes = (
(560,440,o),
(560,376,qs),
(560,348,o),
(522,312,o),
(489,312,qs),
(425,312,l),
(425,440,l),
(488,440,ls)
);
}
);
userData = {
assembly = "NPUSHB[ ]	/* 90 values pushed */
0 4 6 2 6 4 2 128 0 1 0 3 5 1 3 105 0 5 12 1 8 7 5 8 105 0 7 11 1 6 4 7 6 105 10 1 2 0 0 2 89 10 1 2 2 0 97 9 1 0 2 0 81 55 55 40 40 21 20 1 0 55 62 55 61 58 56 40 54 40 53 45 43 42 41 31 29 20 39 21 39 11 9 0 19 1 19 13 6 22 
CALL[ ]	/* CallFunction */";
};
width = 918;
}
);
note = uni2117;
unicode = 8471;
},
{
glyphname = f_alt;
layers = (
{
layerId = m01;
shapes = (
{
closed = 1;
nodes = (
(253,558,ls),
(253,587,o),
(288,621,o),
(320,620,qs),
(339,620,o),
(370,611,o),
(381,604,q),
(421,731,l),
(395,746,o),
(331,759,o),
(298,759,qs),
(256,759,o),
(181,737,o),
(125,692,o),
(95,622,o),
(95,574,qs),
(95,527,l),
(16,527,l),
(16,386,l),
(95,386,l),
(95,0,l),
(253,0,l),
(253,386,l),
(379,386,l),
(379,527,l),
(253,527,l)
);
}
);
userData = {
assembly = "NPUSHB[ ]	/* 52 values pushed */
17 1 5 4 18 1 3 5 2 76 0 4 0 5 3 4 5 105 2 1 0 0 3 95 7 6 2 3 3 22 77 0 1 1 21 1 78 0 0 0 25 0 25 37 37 17 17 17 17 8 7 28 
CALL[ ]	/* CallFunction */";
};
width = 385;
}
);
note = f_alt;
},
{
glyphname = g_alt;
layers = (
{
layerId = m01;
shapes = (
{
closed = 1;
nodes = (
(415,-39,o),
(380,-85,o),
(318,-112,o),
(270,-112,qs),
(215,-112,o),
(128,-82,o),
(102,-65,q),
(91,-97,o),
(69,-164,o),
(56,-196,q),
(106,-228,o),
(228,-261,o),
(292,-261,qs),
(365,-261,o),
(486,-215,o),
(524,-168,qs),
(546,-140,o),
(572,-75,o),
(585,-3,o),
(586,72,o),
(586,108,qs),
(586,527,l),
(446,527,l),
(431,476,l),
(397,513,o),
(316,536,o),
(279,536,qs),
(219,536,o),
(127,495,o),
(64,421,o),
(30,320,o),
(30,261,qs),
(30,203,o),
(61,106,o),
(120,34,o),
(209,-7,o),
(268,-8,qs),
(288,-8,o),
(332,-2,o),
(375,11,o),
(413,35,o),
(428,55,q),
(428,21,o)
);
},
{
closed = 1;
nodes = (
(233,154,o),
(204,189,o),
(189,234,o),
(189,260,qs),
(189,285,o),
(202,333,o),
(231,370,o),
(277,392,o),
(309,392,qs),
(338,392,o),
(383,372,o),
(413,336,o),
(428,291,o),
(428,266,qs),
(428,238,o),
(414,191,o),
(385,155,o),
(339,133,o),
(308,133,qs),
(278,133,o)
);
}
);
userData = {
assembly = "MPPEM[ ]	/* MeasurePixelPerEm */
PUSHB[ ]	/* 1 value pushed */
27 
LT[ ]	/* LessThan */
IF[ ]	/* If */
NPUSHB[ ]	/* 18 values pushed */
18 1 6 1 0 1 0 5 35 1 4 0 32 1 3 4 4 76 
ELSE[ ]	/* Else */
NPUSHB[ ]	/* 18 values pushed */
18 1 6 2 0 1 0 5 35 1 4 0 32 1 3 4 4 76 
EIF[ ]	/* EndIf */
MPPEM[ ]	/* MeasurePixelPerEm */
PUSHB[ ]	/* 1 value pushed */
14 
LT[ ]	/* LessThan */
IF[ ]	/* If */
NPUSHB[ ]	/* 33 values pushed */
0 6 6 1 97 2 1 1 1 29 77 7 1 5 5 0 97 0 0 0 30 77 0 4 4 3 97 0 3 3 31 3 78 
ELSE[ ]	/* Else */
MPPEM[ ]	/* MeasurePixelPerEm */
PUSHB[ ]	/* 1 value pushed */
27 
LT[ ]	/* LessThan */
IF[ ]	/* If */
NPUSHB[ ]	/* 30 values pushed */
0 4 0 3 4 3 101 0 6 6 1 97 2 1 1 1 29 77 7 1 5 5 0 97 0 0 0 30 0 78 
ELSE[ ]	/* Else */
NPUSHB[ ]	/* 34 values pushed */
0 4 0 3 4 3 101 0 2 2 22 77 0 6 6 1 97 0 1 1 29 77 7 1 5 5 0 97 0 0 0 30 0 78 
EIF[ ]	/* EndIf */
EIF[ ]	/* EndIf */
NPUSHB[ ]	/* 16 values pushed */
44 43 54 52 43 62 44 62 39 40 19 40 36 8 7 27 
CALL[ ]	/* CallFunction */";
};
width = 640;
}
);
note = g_alt;
},
{
glyphname = y;
layers = (
{
layerId = m01;
shapes = (
{
closed = 1;
nodes = (
(130,-83,o),
(104,-64,q),
(91,-96,o),
(67,-163,o),
(55,-196,q),
(106,-229,o),
(221,-261,o),
(281,-261,qs),
(356,-261,o),
(476,-215,o),
(516,-167,qs),
(538,-139,o),
(564,-74,o),
(576,-2,o),
(577,74,o),
(577,110,qs),
(577,527,l),
(419,527,l),
(419,263,ls),
(419,242,o),
(411,197,o),
(388,160,o),
(348,134,o),
(317,134,qs),
(286,134,o),
(246,157,o),
(225,193,o),
(217,238,o),
(217,261,qs),
(217,527,l),
(60,527,l),
(60,235,ls),
(60,173,o),
(84,80,o),
(113,48,qs),
(138,22,o),
(215,-8,o),
(267,-8,qs),
(285,-8,o),
(326,-2,o),
(368,11,o),
(405,33,o),
(419,51,q),
(420,3,o),
(395,-60,o),
(352,-97,o),
(298,-112,o),
(269,-112,qs),
(219,-112,o)
);
}
);
userData = {
assembly = "NPUSHB[ ]	/* 14 values pushed */
5 1 1 3 46 1 0 1 43 1 5 0 3 76 
MPPEM[ ]	/* MeasurePixelPerEm */
PUSHB[ ]	/* 1 value pushed */
14 
LT[ ]	/* LessThan */
IF[ ]	/* If */
NPUSHB[ ]	/* 31 values pushed */
0 3 2 1 2 3 1 128 4 1 2 2 41 77 0 1 1 47 77 6 1 0 0 5 98 0 5 5 51 5 78 
ELSE[ ]	/* Else */
NPUSHB[ ]	/* 28 values pushed */
0 3 2 1 2 3 1 128 6 1 0 0 5 0 5 102 4 1 2 2 41 77 0 1 1 47 1 78 
EIF[ ]	/* EndIf */
NPUSHB[ ]	/* 19 values pushed */
1 0 41 39 31 30 25 23 18 17 11 9 0 48 1 48 7 8 22 
CALL[ ]	/* CallFunction */";
};
width = 631;
}
);
note = y;
unicode = 121;
},
